<svg width="58" height="29" viewBox="0 0 58 29" fill="none" xmlns="http://www.w3.org/2000/svg">
<path d="M27.85 14.218C27.562 13.834 27.19 13.3 26.734 12.616C23.578 12.304 22 11.644 22 10.636C22 10.408 22.114 10.222 22.342 10.078C22.582 9.934 22.942 9.862 23.422 9.862C24.622 9.862 25.816 10.624 27.004 12.148C28.204 12.268 29.566 12.328 31.09 12.328H31.288C32.824 11.404 34.252 10.474 35.572 9.538C36.112 8.554 36.58 7.744 36.976 7.108C37.372 6.46 37.852 5.788 38.416 5.092C39.532 3.676 40.708 2.968 41.944 2.968C42.268 2.968 42.43 3.112 42.43 3.4C42.43 4.096 41.854 5.008 40.702 6.136C39.55 7.264 38.02 8.476 36.112 9.772C35.536 10.876 35.104 11.68 34.816 12.184C36.496 12.052 37.708 11.848 38.452 11.572H38.506C38.554 11.572 38.578 11.608 38.578 11.68C38.578 11.74 38.536 11.83 38.452 11.95C37.552 12.226 36.256 12.442 34.564 12.598C33.916 13.714 33.286 14.584 32.674 15.208C32.074 15.82 31.468 16.126 30.856 16.126C29.872 16.126 28.942 15.58 28.066 14.488C26.35 15.352 24.832 16.012 23.512 16.468C23.332 16.528 23.122 16.558 22.882 16.558C22.654 16.558 22.54 16.468 22.54 16.288C22.54 16.192 22.588 16.102 22.684 16.018C22.78 15.946 22.906 15.91 23.062 15.91C24.022 15.91 25.618 15.346 27.85 14.218ZM31.288 12.778C30.376 13.294 29.476 13.78 28.588 14.236C29.392 15.232 30.124 15.73 30.784 15.73C31.276 15.73 31.762 15.466 32.242 14.938C32.734 14.41 33.274 13.648 33.862 12.652C33.13 12.712 32.272 12.754 31.288 12.778ZM41.44 3.4C40.612 3.4 39.778 3.952 38.938 5.056C38.242 5.992 37.48 7.228 36.652 8.764C38.164 7.648 39.376 6.634 40.288 5.722C41.2 4.798 41.656 4.084 41.656 3.58C41.656 3.46 41.584 3.4 41.44 3.4ZM22.864 10.564C22.864 11.248 24.022 11.746 26.338 12.058C25.402 10.81 24.46 10.186 23.512 10.186C23.08 10.186 22.864 10.312 22.864 10.564ZM28.372 13.966C29.116 13.57 29.83 13.174 30.514 12.778H30.442C29.398 12.778 28.39 12.742 27.418 12.67C27.874 13.306 28.192 13.738 28.372 13.966ZM35.086 10.456C34.438 10.888 33.43 11.512 32.062 12.328C32.986 12.304 33.664 12.274 34.096 12.238C34.324 11.842 34.654 11.248 35.086 10.456Z" fill="white"/>
<path d="M40.8149 16.11C40.5289 16.11 40.2869 16.0623 40.0889 15.967C39.8909 15.8643 39.7259 15.747 39.5939 15.615C39.4692 15.483 39.3739 15.3583 39.3079 15.241C39.2492 15.1237 39.2126 15.0467 39.1979 15.01H39.1759V17.848H38.4499V11.523H39.0549L39.1759 12.645H39.1979C39.2126 12.6083 39.2492 12.5313 39.3079 12.414C39.3666 12.2967 39.4546 12.1683 39.5719 12.029C39.6966 11.8897 39.8579 11.7723 40.0559 11.677C40.2612 11.5743 40.5142 11.523 40.8149 11.523C41.2476 11.523 41.6106 11.622 41.9039 11.82C42.1972 12.018 42.4172 12.293 42.5639 12.645C42.7106 12.9897 42.7839 13.3857 42.7839 13.833C42.7839 14.273 42.7069 14.6653 42.5529 15.01C42.4062 15.3547 42.1862 15.626 41.8929 15.824C41.5996 16.0147 41.2402 16.11 40.8149 16.11ZM40.6719 15.483C41.0166 15.483 41.2916 15.4023 41.4969 15.241C41.7096 15.0797 41.8599 14.8743 41.9479 14.625C42.0432 14.3683 42.0909 14.1007 42.0909 13.822C42.0909 13.536 42.0396 13.2683 41.9369 13.019C41.8342 12.7697 41.6729 12.568 41.4529 12.414C41.2402 12.2527 40.9579 12.172 40.6059 12.172C40.3199 12.172 40.0706 12.238 39.8579 12.37C39.6452 12.502 39.4802 12.6927 39.3629 12.942C39.2529 13.1913 39.1979 13.4847 39.1979 13.822C39.1979 14.1593 39.2566 14.4563 39.3739 14.713C39.4986 14.9623 39.6709 15.153 39.8909 15.285C40.1182 15.417 40.3786 15.483 40.6719 15.483ZM45.5736 16.11C45.0823 16.11 44.6753 16 44.3526 15.78C44.0373 15.5527 43.8026 15.263 43.6486 14.911C43.5019 14.5517 43.4286 14.1813 43.4286 13.8C43.4286 13.382 43.5093 13.0007 43.6706 12.656C43.8393 12.304 44.0813 12.0253 44.3966 11.82C44.7193 11.6147 45.1043 11.512 45.5516 11.512C45.9403 11.512 46.2813 11.5963 46.5746 11.765C46.8753 11.9263 47.1136 12.161 47.2896 12.469C47.4729 12.777 47.5756 13.14 47.5976 13.558C47.6049 13.5873 47.6086 13.6313 47.6086 13.69C47.6086 13.7413 47.6086 13.789 47.6086 13.833H44.1106C44.1106 14.3537 44.2353 14.7643 44.4846 15.065C44.7413 15.3583 45.1006 15.505 45.5626 15.505C45.9073 15.505 46.2006 15.417 46.4426 15.241C46.6919 15.065 46.8459 14.8267 46.9046 14.526H47.5976C47.5463 14.8267 47.4326 15.098 47.2566 15.34C47.0806 15.582 46.8496 15.7727 46.5636 15.912C46.2776 16.044 45.9476 16.11 45.5736 16.11ZM44.1326 13.448H46.8826C46.8826 13.3307 46.8569 13.1987 46.8056 13.052C46.7616 12.898 46.6883 12.7513 46.5856 12.612C46.4829 12.4653 46.3473 12.3443 46.1786 12.249C46.0099 12.1537 45.7973 12.106 45.5406 12.106C45.3133 12.106 45.1153 12.1463 44.9466 12.227C44.7779 12.3003 44.6349 12.403 44.5176 12.535C44.4076 12.6597 44.3196 12.8027 44.2536 12.964C44.1949 13.1253 44.1546 13.2867 44.1326 13.448ZM50.0745 16.099C49.6638 16.099 49.3265 16 49.0625 15.802C48.7985 15.5967 48.6005 15.3217 48.4685 14.977C48.3438 14.6323 48.2815 14.24 48.2815 13.8C48.2815 13.3453 48.3475 12.9457 48.4795 12.601C48.6115 12.2563 48.8095 11.985 49.0735 11.787C49.3448 11.5817 49.6785 11.479 50.0745 11.479C50.3092 11.479 50.5108 11.512 50.6795 11.578C50.8555 11.6367 51.0058 11.7173 51.1305 11.82C51.2552 11.9227 51.3578 12.0327 51.4385 12.15C51.5265 12.26 51.5925 12.3663 51.6365 12.469H51.6475V11.523H52.3735V16H51.7685L51.6585 15.131H51.6365C51.5852 15.241 51.5192 15.3547 51.4385 15.472C51.3578 15.582 51.2515 15.6847 51.1195 15.78C50.9948 15.8753 50.8445 15.9523 50.6685 16.011C50.4998 16.0697 50.3018 16.099 50.0745 16.099ZM50.3495 15.472C50.6575 15.472 50.9032 15.406 51.0865 15.274C51.2772 15.1347 51.4165 14.9403 51.5045 14.691C51.5925 14.4417 51.6365 14.1483 51.6365 13.811C51.6365 13.4517 51.5888 13.1473 51.4935 12.898C51.4055 12.6487 51.2662 12.4617 51.0755 12.337C50.8848 12.205 50.6428 12.139 50.3495 12.139C50.0268 12.139 49.7628 12.2123 49.5575 12.359C49.3595 12.5057 49.2165 12.7037 49.1285 12.953C49.0405 13.2023 48.9965 13.4847 48.9965 13.8C48.9965 14.1227 49.0405 14.4123 49.1285 14.669C49.2238 14.9183 49.3705 15.1163 49.5685 15.263C49.7738 15.4023 50.0342 15.472 50.3495 15.472ZM54.0208 16.011H53.3058V9.807H54.0208V16.011ZM55.1978 13.173L57.4088 16.011H56.5398L54.6808 13.668L55.1978 13.173ZM53.9658 14.867V14.042L56.4628 11.512H57.3648L53.9658 14.867Z" fill="white"/>
<path d="M2.716 16.084C2.24933 16.084 1.83633 15.9767 1.477 15.762C1.11767 15.5427 0.835333 15.244 0.63 14.866C0.424667 14.4833 0.322 14.0447 0.322 13.55C0.322 13.0553 0.422333 12.619 0.623 12.241C0.828333 11.8583 1.10833 11.5597 1.463 11.345C1.82233 11.1257 2.233 11.016 2.695 11.016C2.989 11.016 3.27133 11.0697 3.542 11.177C3.81267 11.2797 4.05533 11.4267 4.27 11.618C4.48467 11.8047 4.65033 12.0217 4.767 12.269L4.256 12.528C4.16267 12.332 4.03433 12.1617 3.871 12.017C3.70767 11.8723 3.52567 11.7603 3.325 11.681C3.12433 11.597 2.91433 11.555 2.695 11.555C2.35433 11.555 2.04867 11.6413 1.778 11.814C1.50733 11.982 1.295 12.2153 1.141 12.514C0.991667 12.8127 0.917 13.158 0.917 13.55C0.917 13.942 0.994 14.2897 1.148 14.593C1.302 14.8963 1.51433 15.1343 1.785 15.307C2.06033 15.475 2.37067 15.559 2.716 15.559C2.94 15.559 3.15233 15.5147 3.353 15.426C3.55367 15.3327 3.73333 15.2067 3.892 15.048C4.05533 14.8893 4.18367 14.7073 4.277 14.502L4.795 14.761C4.67367 15.0177 4.50567 15.2463 4.291 15.447C4.081 15.6477 3.83833 15.804 3.563 15.916C3.29233 16.028 3.01 16.084 2.716 16.084ZM9.79092 16L7.82392 11.1H8.41892L10.4139 16H9.79092ZM5.80792 16L7.80292 11.1H8.40492L6.43792 16H5.80792ZM6.75292 14.607V14.075H9.47592V14.607H6.75292ZM11.6232 16V11.1H14.5352V11.639H12.2182V13.312H14.2622V13.851H12.2182V16H11.6232ZM15.914 16V11.1H18.812V11.639H16.509V13.221H18.609V13.753H16.509V15.461H18.826V16H15.914ZM16.915 10.806L17.741 9.945H18.462L17.559 10.806H16.915Z" fill="white"/>
<path d="M8.56995 25V22.9H8.82195V25H8.56995ZM7.12695 25V22.9H7.38195V25H7.12695ZM7.35195 24.034V23.803H8.62395V24.034H7.35195ZM9.67988 25V22.9H9.93488V25H9.67988ZM10.7943 25V22.9H11.4333C11.6313 22.9 11.8053 22.945 11.9553 23.035C12.1073 23.123 12.2263 23.246 12.3123 23.404C12.3983 23.562 12.4413 23.744 12.4413 23.95C12.4413 24.154 12.3983 24.335 12.3123 24.493C12.2263 24.651 12.1073 24.775 11.9553 24.865C11.8053 24.955 11.6313 25 11.4333 25H10.7943ZM11.0493 24.766H11.4333C11.5393 24.766 11.6373 24.746 11.7273 24.706C11.8173 24.664 11.8963 24.605 11.9643 24.529C12.0343 24.453 12.0883 24.366 12.1263 24.268C12.1663 24.168 12.1863 24.062 12.1863 23.95C12.1863 23.838 12.1663 23.733 12.1263 23.635C12.0883 23.535 12.0343 23.447 11.9643 23.371C11.8963 23.295 11.8173 23.237 11.7273 23.197C11.6373 23.155 11.5393 23.134 11.4333 23.134H11.0493V24.766ZM13.1598 25V22.9H13.4148V25H13.1598ZM14.2742 25V22.9H14.5322L15.7832 24.586V22.9H16.0382V25H15.7832L14.5292 23.305V25H14.2742ZM17.8485 25.036C17.6345 25.036 17.4455 24.99 17.2815 24.898C17.1175 24.804 16.9885 24.676 16.8945 24.514C16.8025 24.35 16.7565 24.163 16.7565 23.953C16.7565 23.739 16.8025 23.551 16.8945 23.389C16.9885 23.225 17.1175 23.097 17.2815 23.005C17.4455 22.911 17.6345 22.864 17.8485 22.864C17.9605 22.864 18.0695 22.883 18.1755 22.921C18.2815 22.957 18.3785 23.007 18.4665 23.071C18.5545 23.135 18.6255 23.208 18.6795 23.29L18.4785 23.428C18.4385 23.364 18.3845 23.307 18.3165 23.257C18.2485 23.205 18.1735 23.165 18.0915 23.137C18.0115 23.109 17.9305 23.095 17.8485 23.095C17.6865 23.095 17.5425 23.132 17.4165 23.206C17.2905 23.278 17.1915 23.378 17.1195 23.506C17.0475 23.634 17.0115 23.783 17.0115 23.953C17.0115 24.117 17.0465 24.264 17.1165 24.394C17.1885 24.522 17.2875 24.623 17.4135 24.697C17.5415 24.771 17.6865 24.808 17.8485 24.808C17.9845 24.808 18.1045 24.78 18.2085 24.724C18.3145 24.666 18.3975 24.587 18.4575 24.487C18.5175 24.385 18.5475 24.268 18.5475 24.136L18.7905 24.118C18.7905 24.302 18.7505 24.463 18.6705 24.601C18.5905 24.737 18.4795 24.844 18.3375 24.922C18.1955 24.998 18.0325 25.036 17.8485 25.036ZM18.0315 24.148V23.929H18.7905V24.127L18.6705 24.148H18.0315ZM20.518 25V22.9H20.782L21.508 23.974L22.234 22.9H22.495V25H22.243V23.308L21.508 24.403L20.773 23.314V25H20.518ZM24.1051 24.127L23.8861 24.022L24.5701 22.9H24.8611L24.1051 24.127ZM23.8561 25V23.992H24.1081V25H23.8561ZM23.8591 24.127L23.1031 22.9H23.3971L24.0781 24.022L23.8591 24.127ZM26.1376 25.036C26.0216 25.036 25.9186 25.024 25.8286 25C25.7386 24.974 25.6606 24.939 25.5946 24.895C25.5286 24.849 25.4746 24.799 25.4326 24.745C25.3906 24.689 25.3596 24.63 25.3396 24.568L25.5826 24.484C25.6126 24.572 25.6726 24.649 25.7626 24.715C25.8546 24.779 25.9666 24.811 26.0986 24.811C26.2606 24.811 26.3876 24.779 26.4796 24.715C26.5716 24.651 26.6176 24.566 26.6176 24.46C26.6176 24.362 26.5766 24.283 26.4946 24.223C26.4126 24.161 26.3046 24.113 26.1706 24.079L25.9396 24.019C25.8456 23.995 25.7586 23.96 25.6786 23.914C25.6006 23.866 25.5376 23.806 25.4896 23.734C25.4436 23.66 25.4206 23.572 25.4206 23.47C25.4206 23.28 25.4816 23.132 25.6036 23.026C25.7276 22.918 25.9056 22.864 26.1376 22.864C26.2756 22.864 26.3946 22.887 26.4946 22.933C26.5946 22.977 26.6756 23.034 26.7376 23.104C26.8016 23.172 26.8466 23.246 26.8726 23.326L26.6326 23.41C26.5946 23.31 26.5306 23.232 26.4406 23.176C26.3506 23.118 26.2416 23.089 26.1136 23.089C25.9796 23.089 25.8726 23.122 25.7926 23.188C25.7146 23.252 25.6756 23.34 25.6756 23.452C25.6756 23.548 25.7066 23.622 25.7686 23.674C25.8306 23.724 25.9116 23.761 26.0116 23.785L26.2426 23.842C26.4466 23.89 26.6026 23.97 26.7106 24.082C26.8206 24.192 26.8756 24.311 26.8756 24.439C26.8756 24.549 26.8476 24.65 26.7916 24.742C26.7356 24.832 26.6526 24.904 26.5426 24.958C26.4346 25.01 26.2996 25.036 26.1376 25.036ZM28.0314 25V23.131H27.3624V22.9H28.9524V23.131H28.2834V25H28.0314ZM29.5637 25V22.9H30.8057V23.131H29.8187V23.809H30.7187V24.037H29.8187V24.769H30.8117V25H29.5637ZM31.6391 25V22.9H32.3231C32.4591 22.9 32.5791 22.927 32.6831 22.981C32.7891 23.035 32.8711 23.11 32.9291 23.206C32.9891 23.302 33.0191 23.412 33.0191 23.536C33.0191 23.66 32.9871 23.77 32.9231 23.866C32.8591 23.962 32.7721 24.038 32.6621 24.094C32.5521 24.148 32.4281 24.175 32.2901 24.175H31.8941V25H31.6391ZM32.8241 25L32.3201 24.139L32.5211 24.007L33.1031 25H32.8241ZM31.8941 23.941H32.3591C32.4351 23.941 32.5031 23.924 32.5631 23.89C32.6231 23.854 32.6711 23.806 32.7071 23.746C32.7451 23.684 32.7641 23.614 32.7641 23.536C32.7641 23.416 32.7221 23.319 32.6381 23.245C32.5561 23.169 32.4491 23.131 32.3171 23.131H31.8941V23.941ZM33.817 25V22.9H34.072V25H33.817ZM34.9314 25V22.9H36.1734V23.131H35.1864V23.809H36.0864V24.037H35.1864V24.769H36.1794V25H34.9314ZM37.6788 25.036C37.5628 25.036 37.4598 25.024 37.3698 25C37.2798 24.974 37.2018 24.939 37.1358 24.895C37.0698 24.849 37.0158 24.799 36.9738 24.745C36.9318 24.689 36.9008 24.63 36.8808 24.568L37.1238 24.484C37.1538 24.572 37.2138 24.649 37.3038 24.715C37.3958 24.779 37.5078 24.811 37.6398 24.811C37.8018 24.811 37.9288 24.779 38.0208 24.715C38.1128 24.651 38.1588 24.566 38.1588 24.46C38.1588 24.362 38.1178 24.283 38.0358 24.223C37.9538 24.161 37.8458 24.113 37.7118 24.079L37.4808 24.019C37.3868 23.995 37.2998 23.96 37.2198 23.914C37.1418 23.866 37.0788 23.806 37.0308 23.734C36.9848 23.66 36.9618 23.572 36.9618 23.47C36.9618 23.28 37.0228 23.132 37.1448 23.026C37.2688 22.918 37.4468 22.864 37.6788 22.864C37.8168 22.864 37.9358 22.887 38.0358 22.933C38.1358 22.977 38.2168 23.034 38.2788 23.104C38.3428 23.172 38.3878 23.246 38.4138 23.326L38.1738 23.41C38.1358 23.31 38.0718 23.232 37.9818 23.176C37.8918 23.118 37.7828 23.089 37.6548 23.089C37.5208 23.089 37.4138 23.122 37.3338 23.188C37.2558 23.252 37.2168 23.34 37.2168 23.452C37.2168 23.548 37.2478 23.622 37.3098 23.674C37.3718 23.724 37.4528 23.761 37.5528 23.785L37.7838 23.842C37.9878 23.89 38.1438 23.97 38.2518 24.082C38.3618 24.192 38.4168 24.311 38.4168 24.439C38.4168 24.549 38.3888 24.65 38.3328 24.742C38.2768 24.832 38.1938 24.904 38.0838 24.958C37.9758 25.01 37.8408 25.036 37.6788 25.036ZM41.8588 25L42.5068 22.9H42.7618L42.1108 25H41.8588ZM40.5808 25L39.9388 22.9H40.1938L40.8298 25H40.5808ZM40.6078 25L41.2258 22.9H41.4688L40.8508 25H40.6078ZM41.8378 25L41.2348 22.9H41.4778L42.0898 25H41.8378ZM43.3707 25V22.9H43.6257V25H43.3707ZM44.9082 25V23.131H44.2392V22.9H45.8292V23.131H45.1602V25H44.9082ZM47.8834 25V22.9H48.1354V25H47.8834ZM46.4404 25V22.9H46.6954V25H46.4404ZM46.6654 24.034V23.803H47.9374V24.034H46.6654ZM48.9934 25V22.9H49.2484V25H48.9934ZM50.1078 25V22.9H50.3658L51.6168 24.586V22.9H51.8718V25H51.6168L50.3628 23.305V25H50.1078Z" fill="white"/>
</svg>
