<svg width="58" height="19" viewBox="0 0 58 19" fill="none" xmlns="http://www.w3.org/2000/svg">
<path d="M27.85 14.218C27.562 13.834 27.19 13.3 26.734 12.616C23.578 12.304 22 11.644 22 10.636C22 10.408 22.114 10.222 22.342 10.078C22.582 9.934 22.942 9.862 23.422 9.862C24.622 9.862 25.816 10.624 27.004 12.148C28.204 12.268 29.566 12.328 31.09 12.328H31.288C32.824 11.404 34.252 10.474 35.572 9.538C36.112 8.554 36.58 7.744 36.976 7.108C37.372 6.46 37.852 5.788 38.416 5.092C39.532 3.676 40.708 2.968 41.944 2.968C42.268 2.968 42.43 3.112 42.43 3.4C42.43 4.096 41.854 5.008 40.702 6.136C39.55 7.264 38.02 8.476 36.112 9.772C35.536 10.876 35.104 11.68 34.816 12.184C36.496 12.052 37.708 11.848 38.452 11.572H38.506C38.554 11.572 38.578 11.608 38.578 11.68C38.578 11.74 38.536 11.83 38.452 11.95C37.552 12.226 36.256 12.442 34.564 12.598C33.916 13.714 33.286 14.584 32.674 15.208C32.074 15.82 31.468 16.126 30.856 16.126C29.872 16.126 28.942 15.58 28.066 14.488C26.35 15.352 24.832 16.012 23.512 16.468C23.332 16.528 23.122 16.558 22.882 16.558C22.654 16.558 22.54 16.468 22.54 16.288C22.54 16.192 22.588 16.102 22.684 16.018C22.78 15.946 22.906 15.91 23.062 15.91C24.022 15.91 25.618 15.346 27.85 14.218ZM31.288 12.778C30.376 13.294 29.476 13.78 28.588 14.236C29.392 15.232 30.124 15.73 30.784 15.73C31.276 15.73 31.762 15.466 32.242 14.938C32.734 14.41 33.274 13.648 33.862 12.652C33.13 12.712 32.272 12.754 31.288 12.778ZM41.44 3.4C40.612 3.4 39.778 3.952 38.938 5.056C38.242 5.992 37.48 7.228 36.652 8.764C38.164 7.648 39.376 6.634 40.288 5.722C41.2 4.798 41.656 4.084 41.656 3.58C41.656 3.46 41.584 3.4 41.44 3.4ZM22.864 10.564C22.864 11.248 24.022 11.746 26.338 12.058C25.402 10.81 24.46 10.186 23.512 10.186C23.08 10.186 22.864 10.312 22.864 10.564ZM28.372 13.966C29.116 13.57 29.83 13.174 30.514 12.778H30.442C29.398 12.778 28.39 12.742 27.418 12.67C27.874 13.306 28.192 13.738 28.372 13.966ZM35.086 10.456C34.438 10.888 33.43 11.512 32.062 12.328C32.986 12.304 33.664 12.274 34.096 12.238C34.324 11.842 34.654 11.248 35.086 10.456Z" fill="white"/>
<path d="M40.8154 16.11C40.5294 16.11 40.2874 16.0623 40.0894 15.967C39.8914 15.8643 39.7264 15.747 39.5944 15.615C39.4697 15.483 39.3744 15.3583 39.3084 15.241C39.2497 15.1237 39.2131 15.0467 39.1984 15.01H39.1764V17.848H38.4504V11.523H39.0554L39.1764 12.645H39.1984C39.2131 12.6083 39.2497 12.5313 39.3084 12.414C39.3671 12.2967 39.4551 12.1683 39.5724 12.029C39.6971 11.8897 39.8584 11.7723 40.0564 11.677C40.2617 11.5743 40.5147 11.523 40.8154 11.523C41.2481 11.523 41.6111 11.622 41.9044 11.82C42.1977 12.018 42.4177 12.293 42.5644 12.645C42.7111 12.9897 42.7844 13.3857 42.7844 13.833C42.7844 14.273 42.7074 14.6653 42.5534 15.01C42.4067 15.3547 42.1867 15.626 41.8934 15.824C41.6001 16.0147 41.2407 16.11 40.8154 16.11ZM40.6724 15.483C41.0171 15.483 41.2921 15.4023 41.4974 15.241C41.7101 15.0797 41.8604 14.8743 41.9484 14.625C42.0437 14.3683 42.0914 14.1007 42.0914 13.822C42.0914 13.536 42.0401 13.2683 41.9374 13.019C41.8347 12.7697 41.6734 12.568 41.4534 12.414C41.2407 12.2527 40.9584 12.172 40.6064 12.172C40.3204 12.172 40.0711 12.238 39.8584 12.37C39.6457 12.502 39.4807 12.6927 39.3634 12.942C39.2534 13.1913 39.1984 13.4847 39.1984 13.822C39.1984 14.1593 39.2571 14.4563 39.3744 14.713C39.4991 14.9623 39.6714 15.153 39.8914 15.285C40.1187 15.417 40.3791 15.483 40.6724 15.483ZM45.5741 16.11C45.0828 16.11 44.6758 16 44.3531 15.78C44.0378 15.5527 43.8031 15.263 43.6491 14.911C43.5024 14.5517 43.4291 14.1813 43.4291 13.8C43.4291 13.382 43.5098 13.0007 43.6711 12.656C43.8398 12.304 44.0818 12.0253 44.3971 11.82C44.7198 11.6147 45.1048 11.512 45.5521 11.512C45.9408 11.512 46.2818 11.5963 46.5751 11.765C46.8758 11.9263 47.1141 12.161 47.2901 12.469C47.4734 12.777 47.5761 13.14 47.5981 13.558C47.6054 13.5873 47.6091 13.6313 47.6091 13.69C47.6091 13.7413 47.6091 13.789 47.6091 13.833H44.1111C44.1111 14.3537 44.2358 14.7643 44.4851 15.065C44.7418 15.3583 45.1011 15.505 45.5631 15.505C45.9078 15.505 46.2011 15.417 46.4431 15.241C46.6924 15.065 46.8464 14.8267 46.9051 14.526H47.5981C47.5468 14.8267 47.4331 15.098 47.2571 15.34C47.0811 15.582 46.8501 15.7727 46.5641 15.912C46.2781 16.044 45.9481 16.11 45.5741 16.11ZM44.1331 13.448H46.8831C46.8831 13.3307 46.8574 13.1987 46.8061 13.052C46.7621 12.898 46.6888 12.7513 46.5861 12.612C46.4834 12.4653 46.3478 12.3443 46.1791 12.249C46.0104 12.1537 45.7978 12.106 45.5411 12.106C45.3138 12.106 45.1158 12.1463 44.9471 12.227C44.7784 12.3003 44.6354 12.403 44.5181 12.535C44.4081 12.6597 44.3201 12.8027 44.2541 12.964C44.1954 13.1253 44.1551 13.2867 44.1331 13.448ZM50.075 16.099C49.6643 16.099 49.327 16 49.063 15.802C48.799 15.5967 48.601 15.3217 48.469 14.977C48.3443 14.6323 48.282 14.24 48.282 13.8C48.282 13.3453 48.348 12.9457 48.48 12.601C48.612 12.2563 48.81 11.985 49.074 11.787C49.3453 11.5817 49.679 11.479 50.075 11.479C50.3097 11.479 50.5113 11.512 50.68 11.578C50.856 11.6367 51.0063 11.7173 51.131 11.82C51.2557 11.9227 51.3583 12.0327 51.439 12.15C51.527 12.26 51.593 12.3663 51.637 12.469H51.648V11.523H52.374V16H51.769L51.659 15.131H51.637C51.5857 15.241 51.5197 15.3547 51.439 15.472C51.3583 15.582 51.252 15.6847 51.12 15.78C50.9953 15.8753 50.845 15.9523 50.669 16.011C50.5003 16.0697 50.3023 16.099 50.075 16.099ZM50.35 15.472C50.658 15.472 50.9037 15.406 51.087 15.274C51.2777 15.1347 51.417 14.9403 51.505 14.691C51.593 14.4417 51.637 14.1483 51.637 13.811C51.637 13.4517 51.5893 13.1473 51.494 12.898C51.406 12.6487 51.2667 12.4617 51.076 12.337C50.8853 12.205 50.6433 12.139 50.35 12.139C50.0273 12.139 49.7633 12.2123 49.558 12.359C49.36 12.5057 49.217 12.7037 49.129 12.953C49.041 13.2023 48.997 13.4847 48.997 13.8C48.997 14.1227 49.041 14.4123 49.129 14.669C49.2243 14.9183 49.371 15.1163 49.569 15.263C49.7743 15.4023 50.0347 15.472 50.35 15.472ZM54.0213 16.011H53.3063V9.807H54.0213V16.011ZM55.1983 13.173L57.4093 16.011H56.5403L54.6813 13.668L55.1983 13.173ZM53.9663 14.867V14.042L56.4633 11.512H57.3653L53.9663 14.867Z" fill="white"/>
<path d="M2.716 16.084C2.24933 16.084 1.83633 15.9767 1.477 15.762C1.11767 15.5427 0.835333 15.244 0.63 14.866C0.424667 14.4833 0.322 14.0447 0.322 13.55C0.322 13.0553 0.422333 12.619 0.623 12.241C0.828333 11.8583 1.10833 11.5597 1.463 11.345C1.82233 11.1257 2.233 11.016 2.695 11.016C2.989 11.016 3.27133 11.0697 3.542 11.177C3.81267 11.2797 4.05533 11.4267 4.27 11.618C4.48467 11.8047 4.65033 12.0217 4.767 12.269L4.256 12.528C4.16267 12.332 4.03433 12.1617 3.871 12.017C3.70767 11.8723 3.52567 11.7603 3.325 11.681C3.12433 11.597 2.91433 11.555 2.695 11.555C2.35433 11.555 2.04867 11.6413 1.778 11.814C1.50733 11.982 1.295 12.2153 1.141 12.514C0.991667 12.8127 0.917 13.158 0.917 13.55C0.917 13.942 0.994 14.2897 1.148 14.593C1.302 14.8963 1.51433 15.1343 1.785 15.307C2.06033 15.475 2.37067 15.559 2.716 15.559C2.94 15.559 3.15233 15.5147 3.353 15.426C3.55367 15.3327 3.73333 15.2067 3.892 15.048C4.05533 14.8893 4.18367 14.7073 4.277 14.502L4.795 14.761C4.67367 15.0177 4.50567 15.2463 4.291 15.447C4.081 15.6477 3.83833 15.804 3.563 15.916C3.29233 16.028 3.01 16.084 2.716 16.084ZM9.79092 16L7.82392 11.1H8.41892L10.4139 16H9.79092ZM5.80792 16L7.80292 11.1H8.40492L6.43792 16H5.80792ZM6.75292 14.607V14.075H9.47592V14.607H6.75292ZM11.6232 16V11.1H14.5352V11.639H12.2182V13.312H14.2622V13.851H12.2182V16H11.6232ZM15.914 16V11.1H18.812V11.639H16.509V13.221H18.609V13.753H16.509V15.461H18.826V16H15.914ZM16.915 10.806L17.741 9.945H18.462L17.559 10.806H16.915Z" fill="white"/>
</svg>
