<svg width="12" height="12" viewBox="0 0 12 12" fill="none" xmlns="http://www.w3.org/2000/svg">
<path d="M11.0718 1.72471C11.1666 1.63294 11.2422 1.52316 11.2943 1.40176C11.3463 1.28036 11.3738 1.14978 11.375 1.01763C11.3762 0.885483 11.3511 0.754418 11.3013 0.632083C11.2515 0.509748 11.1779 0.398592 11.0847 0.305102C10.9916 0.211612 10.8809 0.13766 10.759 0.0875606C10.6371 0.0374611 10.5065 0.012218 10.3747 0.0133036C10.243 0.0143892 10.1128 0.041782 9.99172 0.0938838C9.87065 0.145986 9.76114 0.221753 9.66957 0.316765L5.69312 4.30438L1.71798 0.316765C1.62715 0.218983 1.51762 0.140555 1.39592 0.0861584C1.27422 0.0317623 1.14285 0.00251267 1.00963 0.000154887C0.876418 -0.0022029 0.744096 0.0223795 0.620559 0.0724351C0.497021 0.122491 0.3848 0.196994 0.290588 0.291501C0.196377 0.386008 0.122107 0.498581 0.0722083 0.622507C0.0223094 0.746433 -0.002196 0.879172 0.000154402 1.0128C0.0025048 1.14644 0.0316628 1.27822 0.0858886 1.40031C0.140114 1.52239 0.218297 1.63227 0.315773 1.72338L4.28826 5.71233L0.313127 9.69995C0.137878 9.88861 0.0424699 10.1381 0.0470049 10.396C0.0515399 10.6538 0.155664 10.8998 0.337439 11.0822C0.519214 11.2645 0.764449 11.369 1.02148 11.3735C1.27851 11.3781 1.52726 11.2824 1.71534 11.1066L5.69312 7.11894L9.66825 11.1079C9.85633 11.2837 10.1051 11.3794 10.3621 11.3748C10.6191 11.3703 10.8644 11.2658 11.0461 11.0835C11.2279 10.9012 11.332 10.6551 11.3366 10.3973C11.3411 10.1395 11.2457 9.88994 11.0705 9.70127L7.09797 5.71233L11.0718 1.72471Z" fill="#F0F3F3" fill-opacity="0.7"/>
</svg>
