<svg width="13" height="23" viewBox="0 0 13 23" fill="none" xmlns="http://www.w3.org/2000/svg">
<path d="M12.4516 0.566399C12.2792 0.386927 12.0741 0.244476 11.8482 0.147263C11.6223 0.0500504 11.3799 0 11.1352 0C10.8904 0 10.6481 0.0500504 10.4221 0.147263C10.1962 0.244476 9.99115 0.386927 9.81879 0.566399L0.548431 10.1405C0.374652 10.3185 0.23672 10.5303 0.142591 10.7636C0.0484622 10.9969 0 11.2472 0 11.5C0 11.7528 0.0484622 12.0031 0.142591 12.2364C0.23672 12.4697 0.374652 12.6815 0.548431 12.8595L9.81879 22.4336C9.99115 22.6131 10.1962 22.7555 10.4221 22.8527C10.6481 22.95 10.8904 23 11.1352 23C11.3799 23 11.6223 22.95 11.8482 22.8527C12.0741 22.7555 12.2792 22.6131 12.4516 22.4336C12.6253 22.2556 12.7633 22.0438 12.8574 21.8105C12.9515 21.5771 13 21.3269 13 21.0741C13 20.8213 12.9515 20.571 12.8574 20.3377C12.7633 20.1044 12.6253 19.8926 12.4516 19.7146L4.47906 11.5L12.4516 3.28544C12.6253 3.10743 12.7633 2.89565 12.8574 2.66231C12.9515 2.42897 13 2.1787 13 1.92592C13 1.67314 12.9515 1.42286 12.8574 1.18953C12.7633 0.956187 12.6253 0.744406 12.4516 0.566399Z" fill="white" fill-opacity="0.7"/>
</svg>
