<svg width="82" height="464" viewBox="0 0 82 464" fill="none" xmlns="http://www.w3.org/2000/svg">
<path d="M38.1782 56.86C37.8849 57.2267 37.9216 57.63 38.2882 58.07C38.6549 58.3633 38.8749 58.73 38.9482 59.17C39.0216 59.5367 39.0949 59.9767 39.1682 60.49C39.3149 60.4167 39.4616 60.5267 39.6082 60.82C39.6816 61.1133 39.7549 61.37 39.8282 61.59C39.9016 61.81 39.9749 62.0667 40.0482 62.36C40.1216 62.5067 40.1582 62.6533 40.1582 62.8C40.1582 62.9467 40.1949 63.13 40.2682 63.35C40.4149 64.3033 40.7082 65.11 41.1482 65.77C41.2949 65.8433 41.3682 65.99 41.3682 66.21C41.3682 66.3567 41.4049 66.5033 41.4782 66.65C41.4782 66.65 41.5882 66.76 41.8082 66.98C41.8082 66.9067 41.8816 66.7967 42.0282 66.65C42.1016 66.5767 42.1382 66.4667 42.1382 66.32C42.2116 66.1733 42.2849 66.0633 42.3582 65.99C42.5049 66.2833 42.6882 66.54 42.9082 66.76C42.9082 66.76 42.9816 66.9067 43.1282 67.2C43.3482 67.0533 43.4582 66.8333 43.4582 66.54C43.4582 66.2467 43.5316 65.9533 43.6782 65.66C43.8249 65.9533 43.8982 66.1367 43.8982 66.21C43.8982 66.5033 43.9349 66.6867 44.0082 66.76C44.0082 66.9067 44.0816 66.98 44.2282 66.98C44.4482 66.98 44.5582 66.9067 44.5582 66.76C44.7049 66.2467 44.8882 65.77 45.1082 65.33C45.4016 64.8167 45.6216 64.3033 45.7682 63.79C45.9149 63.2767 46.0616 62.8 46.2082 62.36C46.3549 61.8467 46.5382 61.3333 46.7582 60.82C46.9049 60.5267 47.0149 60.2333 47.0882 59.94C47.1616 59.6467 47.2349 59.4267 47.3082 59.28C47.6016 58.9133 47.7482 58.5467 47.7482 58.18C47.8216 57.74 47.8949 57.3733 47.9682 57.08C48.1149 56.86 48.2249 56.64 48.2982 56.42C48.4449 56.2 48.5549 55.98 48.6282 55.76C48.7749 55.32 48.9216 54.88 49.0682 54.44C49.2149 54 49.3616 53.56 49.5082 53.12C49.9482 51.8733 50.4249 50.7 50.9382 49.6C51.1582 48.94 51.4149 48.28 51.7082 47.62C52.0016 46.8867 52.2582 46.19 52.4782 45.53C52.6982 44.87 52.8082 44.21 52.8082 43.55C52.8082 43.4767 52.8082 43.44 52.8082 43.44C52.8082 43.3667 52.8082 43.2933 52.8082 43.22L52.4782 43.44C52.4049 43.5133 52.3316 43.6233 52.2582 43.77C52.2582 43.9167 52.2216 44.0633 52.1482 44.21L51.9282 44.43C51.9282 44.43 51.8916 44.43 51.8182 44.43C51.8182 44.3567 51.8182 44.32 51.8182 44.32L52.1482 43C52.2949 42.6333 52.4416 42.3033 52.5882 42.01C52.7349 41.6433 52.8449 41.3133 52.9182 41.02C52.9916 40.7267 53.1749 40.36 53.4682 39.92C53.6149 39.5533 53.7249 39.15 53.7982 38.71C53.8716 38.27 53.9449 37.9033 54.0182 37.61C54.0182 37.39 53.9449 37.1333 53.7982 36.84C53.5782 36.4733 53.6516 36.2167 54.0182 36.07C54.3849 35.9967 54.6416 35.6667 54.7882 35.08C54.7882 34.9333 54.8249 34.8233 54.8982 34.75C54.9716 34.6033 55.0082 34.4933 55.0082 34.42C55.0082 33.98 54.9716 33.65 54.8982 33.43C54.7516 32.99 54.8249 32.7333 55.1182 32.66C55.2649 32.3667 55.3382 32.0367 55.3382 31.67V31.56C55.4849 30.9733 55.6316 30.4233 55.7782 29.91C55.9249 29.3967 56.0349 28.8833 56.1082 28.37C56.4016 27.6367 56.6216 26.83 56.7682 25.95C56.7682 25.6567 56.7316 25.4 56.6582 25.18C56.5849 24.96 56.5116 24.7033 56.4382 24.41C56.4382 24.2633 56.5116 24.1167 56.6582 23.97C56.6582 23.8967 56.6949 23.86 56.7682 23.86C56.8416 23.86 56.8782 23.86 56.8782 23.86C57.3182 23.64 57.5382 23.1633 57.5382 22.43C57.4649 22.21 57.4282 21.99 57.4282 21.77C57.4282 21.55 57.5382 21.2933 57.7582 21C58.1249 20.7067 58.4182 20.67 58.6382 20.89C59.0049 21.1833 59.2616 21.2567 59.4082 21.11C59.6282 20.9633 59.8482 20.8533 60.0682 20.78C60.2149 20.7067 60.3616 20.6333 60.5082 20.56C60.6549 20.4867 60.8016 20.45 60.9482 20.45C60.9482 20.3033 61.0582 20.34 61.2782 20.56C61.5716 20.7067 61.7182 20.5967 61.7182 20.23C61.7182 20.01 61.7549 19.9 61.8282 19.9C61.9749 19.7533 62.1216 19.6433 62.2682 19.57C62.4882 19.4967 62.6349 19.4233 62.7082 19.35C63.0016 18.9833 63.2582 18.8367 63.4782 18.91C63.6982 18.9833 63.9182 19.02 64.1382 19.02C64.2849 18.9467 64.4316 18.9467 64.5782 19.02C64.7249 19.02 64.8349 18.9833 64.9082 18.91C65.1282 18.8367 65.3482 18.7633 65.5682 18.69C65.8616 18.5433 66.1549 18.4333 66.4482 18.36C66.8882 18.0667 67.2182 18.14 67.4382 18.58C67.7316 18.8733 68.0616 18.9467 68.4282 18.8C68.7216 18.6533 68.9782 18.7633 69.1982 19.13C69.4182 18.9833 69.5649 19.02 69.6382 19.24C69.7849 19.46 69.8949 19.6067 69.9682 19.68C70.1149 19.7533 70.2249 19.8633 70.2982 20.01C70.4449 20.1567 70.5549 20.34 70.6282 20.56C70.8482 20.78 71.1782 20.9633 71.6182 21.11C72.7182 21.4767 73.2682 22.32 73.2682 23.64C73.2682 23.86 73.3416 24.1167 73.4882 24.41C73.6349 24.7033 73.7082 25.0333 73.7082 25.4C73.7816 25.7667 73.8549 26.1333 73.9282 26.5C73.9282 26.7933 73.9649 27.0867 74.0382 27.38C74.1849 27.6 74.2949 27.8567 74.3682 28.15C74.5149 28.4433 74.5882 28.7733 74.5882 29.14C74.5149 29.7267 74.4416 30.35 74.3682 31.01C74.2949 31.5967 74.2216 32.1833 74.1482 32.77C74.0749 33.2833 74.0016 33.7967 73.9282 34.31C73.9282 34.8233 73.8916 35.3367 73.8182 35.85V35.96C73.5982 36.3267 73.5249 36.73 73.5982 37.17C73.6716 37.61 73.6349 38.0133 73.4882 38.38L73.3782 38.82C73.1582 38.8933 73.0482 39.1867 73.0482 39.7V40.58C73.0482 40.9467 73.0116 41.1667 72.9382 41.24C72.8649 41.3133 72.7916 41.4233 72.7182 41.57C72.7182 41.6433 72.6816 41.7533 72.6082 41.9C72.6082 41.9733 72.5716 42.0467 72.4982 42.12C72.4982 42.4133 72.4616 42.7067 72.3882 43C72.3882 43.22 72.4249 43.44 72.4982 43.66C72.5716 43.9533 72.6082 44.21 72.6082 44.43C72.6816 44.5767 72.6449 44.8333 72.4982 45.2C72.4249 45.4933 72.3882 45.8233 72.3882 46.19C72.3882 46.5567 72.3516 46.9233 72.2782 47.29C72.2782 47.51 72.2416 47.6933 72.1682 47.84C72.0216 48.2067 72.0582 48.5733 72.2782 48.94C72.4249 48.94 72.4982 49.0867 72.4982 49.38C72.4249 49.6733 72.3516 49.9667 72.2782 50.26C72.2782 50.48 72.2782 50.7367 72.2782 51.03C72.2782 51.3233 72.2782 51.58 72.2782 51.8C72.2782 52.02 72.3149 52.2767 72.3882 52.57C72.5349 53.0833 72.5716 53.6333 72.4982 54.22C72.4982 54.7333 72.4982 55.2833 72.4982 55.87C72.4249 56.2367 72.3882 56.64 72.3882 57.08C72.4616 57.52 72.4982 57.96 72.4982 58.4C72.4982 58.7667 72.4616 59.1333 72.3882 59.5C72.3882 59.8667 72.3882 60.27 72.3882 60.71V61.92C72.4616 62.14 72.4249 62.3967 72.2782 62.69C72.2049 62.91 72.0949 63.1667 71.9482 63.46C71.8749 63.7533 71.7649 64.0833 71.6182 64.45C71.5449 64.5233 71.5082 64.6333 71.5082 64.78C71.5816 64.9267 71.6182 65.0733 71.6182 65.22C71.6182 65.5867 71.7649 65.7333 72.0582 65.66V66.76C72.0582 67.1267 72.1316 67.53 72.2782 67.97V68.3C71.9849 68.8867 72.0582 69.51 72.4982 70.17C72.5716 69.95 72.6082 69.73 72.6082 69.51C72.6816 69.2167 72.7549 68.9967 72.8282 68.85H72.9382C72.9382 68.9233 72.9382 68.9967 72.9382 69.07C72.9382 69.07 72.9382 69.1067 72.9382 69.18V69.73C72.7916 70.0967 72.7182 70.5 72.7182 70.94C72.7916 71.38 72.8649 71.82 72.9382 72.26C72.9382 72.4067 72.9382 72.59 72.9382 72.81C72.9382 73.03 72.8649 73.2133 72.7182 73.36C72.5716 74.24 72.7182 74.9 73.1582 75.34C73.1582 74.9733 73.1949 74.7533 73.2682 74.68C73.2682 74.5333 73.2682 74.46 73.2682 74.46C73.3416 74.3867 73.3782 74.3133 73.3782 74.24C73.5249 74.3867 73.5982 74.4967 73.5982 74.57C73.5982 74.8633 73.5616 75.12 73.4882 75.34C73.4882 75.4867 73.4882 75.6333 73.4882 75.78C73.4149 75.8533 73.3782 76.0367 73.3782 76.33C73.5249 76.8433 73.5249 77.3567 73.3782 77.87C73.3049 78.31 73.3049 78.75 73.3782 79.19C73.4516 79.4833 73.5249 79.7767 73.5982 80.07C73.6716 80.3633 73.7449 80.6567 73.8182 80.95V80.4C73.8916 80.4 73.9282 80.4367 73.9282 80.51C73.9282 80.51 73.9649 80.51 74.0382 80.51C74.4049 80.07 74.5516 79.5933 74.4782 79.08C74.4782 78.5667 74.5516 78.09 74.6982 77.65C74.6982 77.87 74.6982 78.1267 74.6982 78.42C74.7716 78.7133 74.8082 79.0433 74.8082 79.41V80.4C74.8816 80.9867 74.9549 81.5733 75.0282 82.16C75.1016 82.6733 75.1749 83.2233 75.2482 83.81C75.3216 84.3233 75.3582 84.8733 75.3582 85.46C75.3582 86.0467 75.3949 86.6333 75.4682 87.22V88.21C75.6149 88.7967 75.6882 89.2733 75.6882 89.64L76.0182 91.62C76.1649 92.2067 76.2382 92.7933 76.2382 93.38C76.3116 93.9667 76.4582 94.5533 76.6782 95.14C76.6782 95.2133 76.6782 95.3233 76.6782 95.47C76.6782 95.6167 76.6416 95.7267 76.5682 95.8C76.4216 96.02 76.3482 96.2767 76.3482 96.57C76.3482 96.79 76.3849 97.01 76.4582 97.23C76.4582 97.5233 76.4582 97.78 76.4582 98C76.4582 98.22 76.3849 98.44 76.2382 98.66C76.1649 98.7333 76.0916 98.8067 76.0182 98.88C76.0182 99.0267 75.9816 99.1367 75.9082 99.21C75.3216 98.99 75.0282 99.2833 75.0282 100.09C75.0282 100.31 75.0282 100.53 75.0282 100.75C75.1016 100.97 75.1749 101.19 75.2482 101.41C75.4682 101.557 75.4316 101.777 75.1382 102.07C75.0649 102.143 74.9549 102.18 74.8082 102.18C74.7349 102.253 74.6982 102.253 74.6982 102.18C74.5516 102.033 74.3682 101.923 74.1482 101.85C73.9282 101.777 73.8182 101.593 73.8182 101.3C73.8182 101.08 73.7082 101.043 73.4882 101.19C73.1949 101.337 73.0116 101.373 72.9382 101.3C72.8649 101.3 72.7182 101.153 72.4982 100.86C72.2782 100.493 71.9849 100.273 71.6182 100.2C71.6182 100.2 71.5816 100.2 71.5082 100.2C71.5082 100.2 71.4716 100.237 71.3982 100.31C71.3982 100.603 71.4349 100.787 71.5082 100.86C71.5816 100.933 71.6549 101.007 71.7282 101.08C71.8749 101.153 71.8749 101.263 71.7282 101.41C71.7282 101.41 71.5449 101.337 71.1782 101.19L70.9582 100.86C70.7382 100.493 70.5549 100.273 70.4082 100.2C70.3349 100.053 70.2249 99.9433 70.0782 99.87C69.9316 99.7967 69.8582 99.65 69.8582 99.43C69.7849 99.21 69.6016 99.1 69.3082 99.1C69.0882 99.1733 68.8316 99.21 68.5382 99.21C68.4649 99.21 68.3916 99.1733 68.3182 99.1C68.2449 99.1 68.2082 99.1 68.2082 99.1C67.9149 98.7333 67.6216 98.4033 67.3282 98.11C67.0349 97.89 66.7782 97.56 66.5582 97.12C66.4849 96.7533 66.3382 96.46 66.1182 96.24C65.8982 95.9467 65.7149 95.69 65.5682 95.47C65.2016 95.03 64.9816 94.6633 64.9082 94.37C64.7616 94.0767 64.7616 93.8567 64.9082 93.71C64.9082 93.71 64.9082 93.49 64.9082 93.05C64.9082 93.1967 64.8716 93.3067 64.7982 93.38C64.7982 93.4533 64.7982 93.5633 64.7982 93.71L64.4682 92.83C64.3949 92.5367 64.2482 92.3167 64.0282 92.17C63.8816 91.95 63.7349 91.73 63.5882 91.51C63.3682 91.2167 63.0749 90.9967 62.7082 90.85C62.4149 90.7033 62.1582 90.5567 61.9382 90.41C61.7182 90.2633 61.4249 90.08 61.0582 89.86V89.75C61.3516 89.6033 61.5349 89.53 61.6082 89.53C61.7549 89.6033 61.9382 89.64 62.1582 89.64C62.3782 89.64 62.5616 89.6767 62.7082 89.75C62.9282 89.75 63.0749 89.86 63.1482 90.08C63.2949 90.2267 63.4782 90.2633 63.6982 90.19C64.0649 89.8233 64.5416 89.7867 65.1282 90.08C65.4949 90.1533 65.7882 90.2267 66.0082 90.3C66.2282 90.3733 66.4482 90.4467 66.6682 90.52C66.9616 90.52 67.1816 90.4467 67.3282 90.3C67.4016 90.3 67.4382 90.2267 67.4382 90.08C67.4382 89.86 67.4382 89.7133 67.4382 89.64C67.2182 89.3467 67.1816 88.98 67.3282 88.54V87.77C67.2549 87.55 67.1816 87.33 67.1082 87.11C67.0349 86.8167 66.8516 86.6333 66.5582 86.56C66.4849 86.4867 66.3016 86.45 66.0082 86.45C65.7149 86.45 65.4949 86.4867 65.3482 86.56C65.0549 86.6333 64.9082 86.4867 64.9082 86.12C64.8349 85.9733 64.7616 85.79 64.6882 85.57C64.6149 85.35 64.5782 85.1667 64.5782 85.02C64.5049 84.9467 64.4682 84.8733 64.4682 84.8C64.5416 84.7267 64.5782 84.69 64.5782 84.69C64.9449 84.3233 65.2016 84.14 65.3482 84.14C65.6416 84.14 65.8249 84.03 65.8982 83.81C66.0449 83.5167 66.1549 83.26 66.2282 83.04C66.4482 82.38 66.5582 81.72 66.5582 81.06C66.5582 80.9133 66.5582 80.7667 66.5582 80.62C66.6316 80.4 66.7049 80.18 66.7782 79.96V78.64C66.7782 78.5667 66.7416 78.53 66.6682 78.53C66.5949 78.4567 66.5582 78.3833 66.5582 78.31L66.2282 78.64C66.2282 78.9333 66.1549 79.3 66.0082 79.74V78.42C66.0082 77.98 65.9716 77.65 65.8982 77.43C66.1916 77.2833 66.4116 77.1367 66.5582 76.99C66.7782 76.6233 66.7782 76.33 66.5582 76.11C66.5582 75.9633 66.5216 75.8533 66.4482 75.78C66.4482 75.6333 66.4849 75.5233 66.5582 75.45C66.5582 75.0833 66.5582 74.7533 66.5582 74.46C66.5582 74.1667 66.5582 73.8733 66.5582 73.58V73.14C66.5582 72.7 66.5582 72.2967 66.5582 71.93C66.6316 71.49 66.6682 71.05 66.6682 70.61C66.6682 70.17 66.7049 69.8033 66.7782 69.51C66.7782 69.2167 66.7416 68.9967 66.6682 68.85C66.5949 68.0433 66.5949 67.3833 66.6682 66.87C66.8149 66.2833 66.7782 65.8433 66.5582 65.55C66.4849 65.1833 66.4482 64.8167 66.4482 64.45C66.4482 64.0833 66.4116 63.7533 66.3382 63.46C66.3382 62.8733 66.3016 62.25 66.2282 61.59C66.2282 60.93 66.1916 60.3433 66.1182 59.83V58.4C66.1182 57.8133 66.1182 57.2267 66.1182 56.64C66.1182 55.98 66.1182 55.3933 66.1182 54.88V51.25C66.1182 50.8833 66.1182 50.5167 66.1182 50.15C66.1182 49.7833 66.0816 49.4167 66.0082 49.05C66.0082 48.6833 65.9716 48.3167 65.8982 47.95C65.8982 47.5833 65.8616 47.18 65.7882 46.74C65.7882 46.52 65.7516 46.3733 65.6782 46.3C65.6049 46.3733 65.5316 46.4467 65.4582 46.52C65.3849 46.52 65.3116 46.5933 65.2382 46.74V47.95C65.1649 48.39 65.1282 48.6833 65.1282 48.83C65.1282 48.9767 65.0549 49.3067 64.9082 49.82C64.9082 49.4533 64.8716 49.0867 64.7982 48.72C64.7982 48.3533 64.8349 47.9867 64.9082 47.62C65.1282 46.96 65.1282 46.2267 64.9082 45.42C64.9082 45.3467 64.9082 45.2733 64.9082 45.2C64.9082 45.0533 64.9082 44.9067 64.9082 44.76V43.77C64.7616 43.4033 64.6149 43 64.4682 42.56C64.3216 42.12 64.1749 41.7167 64.0282 41.35C63.7349 40.7633 63.5882 40.1767 63.5882 39.59C63.5882 39.0033 63.5149 38.4533 63.3682 37.94C63.3682 37.4267 63.3316 36.95 63.2582 36.51C63.1849 36.07 63.1116 35.5933 63.0382 35.08C62.8182 34.86 62.6716 34.75 62.5982 34.75H61.6082C61.5349 34.6033 61.4982 34.4933 61.4982 34.42C61.4982 34.3467 61.4249 34.2367 61.2782 34.09L60.5082 34.97C60.2882 35.2633 60.0682 35.52 59.8482 35.74C59.6282 35.96 59.4449 36.2167 59.2982 36.51L58.9682 37.39C58.7482 37.9033 58.5282 38.4167 58.3082 38.93C58.0882 39.37 57.8682 39.81 57.6482 40.25L57.3182 40.58C57.3182 40.7267 57.2449 40.8733 57.0982 41.02C56.9516 41.3133 56.8782 41.4967 56.8782 41.57C56.8049 41.6433 56.7316 41.7533 56.6582 41.9C56.5849 41.9733 56.5849 42.01 56.6582 42.01C56.8049 42.3033 56.7682 42.5967 56.5482 42.89C56.4016 43.11 56.2916 43.33 56.2182 43.55C56.1449 43.6967 56.1082 43.9533 56.1082 44.32C55.9616 44.98 55.6682 45.3467 55.2282 45.42C55.2282 45.3467 55.1916 45.2733 55.1182 45.2C55.1182 45.0533 55.1182 44.9433 55.1182 44.87C54.7516 45.3833 54.7516 45.8233 55.1182 46.19C54.8249 46.41 54.6782 46.7033 54.6782 47.07C54.6782 47.4367 54.5316 47.6933 54.2382 47.84C54.2382 47.6933 54.1649 47.5467 54.0182 47.4C53.7982 47.5467 53.6882 47.8767 53.6882 48.39C53.8349 48.6833 53.8349 48.9767 53.6882 49.27C53.5416 49.49 53.3949 49.71 53.2482 49.93C52.9549 49.6367 52.8816 49.3433 53.0282 49.05V48.83C53.0282 48.7567 52.9916 48.6833 52.9182 48.61C52.9182 48.5367 52.9182 48.4633 52.9182 48.39L52.5882 48.72C52.2216 49.2333 52.0016 49.6367 51.9282 49.93C51.8549 50.0033 51.8182 50.1867 51.8182 50.48C51.8182 50.7733 51.8549 50.9933 51.9282 51.14C51.9282 51.6533 51.8182 51.9467 51.5982 52.02C51.5982 52.02 51.5982 52.0567 51.5982 52.13C51.5982 52.2033 51.5616 52.2767 51.4882 52.35C51.4149 53.01 51.1216 53.5233 50.6082 53.89C50.6082 53.9633 50.5716 54 50.4982 54C50.4249 54.3667 50.3149 54.7333 50.1682 55.1C50.0216 55.3933 49.8749 55.7233 49.7282 56.09C49.7282 56.2367 49.7282 56.31 49.7282 56.31C49.8016 56.6767 49.7649 57.0067 49.6182 57.3C49.5449 57.52 49.4349 57.8133 49.2882 58.18C48.9216 58.2533 48.6649 58.51 48.5182 58.95C48.4449 59.39 48.3349 59.7933 48.1882 60.16C48.0416 60.6 48.0049 61.04 48.0782 61.48C48.1516 61.6267 48.0782 61.92 47.8582 62.36C47.7116 62.8 47.5649 63.0567 47.4182 63.13C47.2716 63.4233 47.1982 63.57 47.1982 63.57C47.1249 64.01 47.0516 64.45 46.9782 64.89C46.9049 65.2567 46.7949 65.6967 46.6482 66.21C46.6482 66.2833 46.6482 66.3933 46.6482 66.54C46.6482 66.6133 46.6482 66.7233 46.6482 66.87H47.1982C47.1249 67.0167 47.0882 67.1633 47.0882 67.31C47.1616 67.4567 47.1616 67.64 47.0882 67.86C47.0149 68.0067 46.9782 68.19 46.9782 68.41C46.9782 68.63 46.9416 68.8133 46.8682 68.96C46.7949 69.18 46.7216 69.4367 46.6482 69.73C46.5749 69.95 46.5016 70.17 46.4282 70.39C46.2816 71.4167 46.3916 72.1867 46.7582 72.7C47.0516 73.2133 47.1982 73.7633 47.1982 74.35C47.1982 74.57 47.1249 74.7533 46.9782 74.9C46.5382 75.4133 46.3182 75.9633 46.3182 76.55C46.3182 76.6233 46.3182 76.6967 46.3182 76.77C46.3916 76.8433 46.3916 76.9167 46.3182 76.99C46.3182 77.5767 46.2449 77.87 46.0982 77.87C46.0249 77.9433 45.8782 77.98 45.6582 77.98C45.5116 77.9067 45.3649 77.87 45.2182 77.87C44.7782 78.1633 44.7049 78.5667 44.9982 79.08C45.1449 79.4467 45.2549 79.8133 45.3282 80.18C45.4016 80.4733 45.4749 80.8033 45.5482 81.17C45.5482 81.4633 45.5849 81.7567 45.6582 82.05C45.8049 82.3433 45.9149 82.6733 45.9882 83.04C46.2082 84.0667 46.5749 84.8733 47.0882 85.46C47.1616 85.6067 47.1982 85.7533 47.1982 85.9C47.1982 86.0467 47.2349 86.1933 47.3082 86.34C47.3082 86.4133 47.3082 86.4867 47.3082 86.56H47.0882C47.0149 86.4867 46.9782 86.4133 46.9782 86.34C46.9782 86.2667 46.9416 86.1933 46.8682 86.12C46.5749 85.6067 46.1716 85.3133 45.6582 85.24L45.1082 84.69C44.8882 84.47 44.7782 84.36 44.7782 84.36C44.6316 84.7267 44.5949 84.9467 44.6682 85.02L44.7782 86.12C44.7782 86.12 44.7782 86.1567 44.7782 86.23C44.7782 86.23 44.7416 86.23 44.6682 86.23C44.5216 85.9367 44.3749 85.7167 44.2282 85.57C44.1549 85.4967 44.0816 85.46 44.0082 85.46C43.9349 85.46 43.8982 85.46 43.8982 85.46C43.7516 85.5333 43.6049 85.6067 43.4582 85.68C43.3116 85.7533 43.1649 85.8267 43.0182 85.9C42.7249 85.9 42.5782 86.0467 42.5782 86.34C42.5782 86.56 42.5049 86.67 42.3582 86.67C41.9916 87.0367 41.8082 87.4033 41.8082 87.77C41.7349 88.2833 41.5149 88.43 41.1482 88.21C40.6349 87.9167 40.2682 88.0633 40.0482 88.65C40.0482 88.7233 39.9749 88.76 39.8282 88.76C39.7549 88.76 39.6816 88.76 39.6082 88.76C39.6082 88.6867 39.5716 88.65 39.4982 88.65C39.2782 88.43 39.0582 88.21 38.8382 87.99C38.6916 87.6967 38.5082 87.44 38.2882 87.22C38.2149 86.9267 38.1049 86.67 37.9582 86.45C37.8116 86.23 37.6649 86.01 37.5182 85.79C37.4449 85.6433 37.3349 85.4967 37.1882 85.35C37.1149 85.2033 37.0416 85.0933 36.9682 85.02C36.8216 84.8733 36.6749 84.69 36.5282 84.47C36.3816 84.1767 36.2349 83.92 36.0882 83.7C35.7949 83.04 35.4649 82.4167 35.0982 81.83C34.8049 81.17 34.4749 80.5467 34.1082 79.96C33.8149 79.4467 33.5216 78.97 33.2282 78.53C33.0082 78.0167 32.7882 77.5033 32.5682 76.99C32.3482 76.6233 32.1282 76.22 31.9082 75.78C31.7616 75.2667 31.5782 74.7533 31.3582 74.24C31.1382 73.6533 30.8816 73.0667 30.5882 72.48C30.3682 71.8933 30.1482 71.27 29.9282 70.61C29.7082 70.0233 29.4882 69.51 29.2682 69.07C29.0482 68.5567 28.8282 68.0067 28.6082 67.42C28.5349 67.2 28.4616 66.9433 28.3882 66.65C28.3149 66.3567 28.2049 66.1 28.0582 65.88C27.9849 65.7333 27.9116 65.55 27.8382 65.33C27.7649 65.11 27.6916 64.9267 27.6182 64.78C27.5449 64.12 27.3616 63.57 27.0682 63.13C26.7749 62.69 26.4816 62.2133 26.1882 61.7C26.1882 61.6267 26.1516 61.59 26.0782 61.59C26.0782 61.59 26.0782 61.5533 26.0782 61.48C26.0049 60.8933 25.8216 60.3433 25.5282 59.83C25.2349 59.3167 24.9416 58.8033 24.6482 58.29C24.5016 57.7767 24.3182 57.3 24.0982 56.86C23.9516 56.3467 23.8049 55.87 23.6582 55.43C23.5116 55.1367 23.3649 54.8433 23.2182 54.55C23.1449 54.1833 23.0349 53.89 22.8882 53.67C22.5949 53.3033 22.3749 52.9 22.2282 52.46C22.0816 51.9467 21.8982 51.5067 21.6782 51.14C21.4582 50.6267 21.2382 50.15 21.0182 49.71C20.8716 49.1967 20.6882 48.72 20.4682 48.28C20.3949 47.9867 20.2849 47.7667 20.1382 47.62C19.9916 47.4733 19.8449 47.29 19.6982 47.07C19.6982 46.9233 19.6249 46.9967 19.4782 47.29C19.1849 48.61 18.9649 50.04 18.8182 51.58C18.8182 51.7267 18.7816 51.91 18.7082 52.13C18.6349 52.2767 18.5982 52.46 18.5982 52.68C18.5249 52.8267 18.4882 53.0467 18.4882 53.34C18.4149 53.7067 18.3416 54.0733 18.2682 54.44C18.2682 54.7333 18.1949 55.0633 18.0482 55.43C18.0482 56.2367 17.8649 57.19 17.4982 58.29C17.2782 58.8767 17.2049 59.5367 17.2782 60.27C17.2782 60.7833 17.0949 61.15 16.7282 61.37C16.6549 61.5167 16.5816 61.7367 16.5082 62.03C16.5082 62.25 16.5082 62.47 16.5082 62.69V63.46C16.2149 64.12 16.0316 64.78 15.9582 65.44C15.9582 66.1 15.8849 66.8333 15.7382 67.64C15.6649 68.2267 15.5916 68.8133 15.5182 69.4C15.4449 69.9867 15.3349 70.5733 15.1882 71.16C15.1882 71.38 15.1882 71.6 15.1882 71.82C15.1882 72.04 15.1882 72.2233 15.1882 72.37L14.8582 74.02C14.8582 74.3133 14.8582 74.7167 14.8582 75.23C14.8582 75.67 14.7849 76.0733 14.6382 76.44C14.4182 76.88 14.3449 77.32 14.4182 77.76C14.5649 78.1267 14.5649 78.5667 14.4182 79.08C14.3449 79.4467 14.2716 79.85 14.1982 80.29C14.1982 80.73 14.1982 81.1333 14.1982 81.5C14.1982 81.5733 14.1616 81.6467 14.0882 81.72C14.0882 81.7933 14.0882 81.8667 14.0882 81.94C14.0882 82.2333 14.0882 82.5267 14.0882 82.82C14.0882 83.1133 14.0516 83.4433 13.9782 83.81V84.25C13.9049 84.7633 13.8682 85.24 13.8682 85.68C13.9416 86.12 14.0149 86.56 14.0882 87V87.33C14.0149 88.1367 13.9416 88.98 13.8682 89.86C13.8682 90.6667 13.8682 91.4733 13.8682 92.28L13.7582 92.72C13.4649 93.0133 13.2816 93.3433 13.2082 93.71C13.1349 94.0767 13.0249 94.4433 12.8782 94.81C12.7316 95.1767 12.5849 95.58 12.4382 96.02C12.3649 96.46 12.2549 96.8633 12.1082 97.23C11.8149 96.79 11.6316 96.46 11.5582 96.24C11.4849 96.1667 11.3749 96.1667 11.2282 96.24C11.1549 96.24 11.0449 96.24 10.8982 96.24C10.9716 95.9467 10.8982 95.7633 10.6782 95.69C10.5316 95.5433 10.3849 95.3967 10.2382 95.25C10.1649 95.1033 10.0916 94.9567 10.0182 94.81C10.0182 94.6633 9.94491 94.5167 9.79824 94.37C9.65158 93.71 9.35824 93.3433 8.91824 93.27C8.77158 93.27 8.62491 93.2333 8.47824 93.16C8.40491 93.0867 8.29491 93.16 8.14824 93.38C8.14824 93.2333 8.11158 93.0867 8.03824 92.94C8.03824 92.7933 8.03824 92.6833 8.03824 92.61C8.03824 92.4633 8.00158 92.39 7.92824 92.39C7.92824 92.3167 7.92824 92.2433 7.92824 92.17C7.78158 91.8767 7.67158 91.5833 7.59824 91.29C7.59824 90.9967 7.59824 90.74 7.59824 90.52V90.3C7.52491 89.7133 7.48824 89.1267 7.48824 88.54C7.56158 87.9533 7.59824 87.4033 7.59824 86.89V86.67C7.52491 86.67 7.45158 86.7067 7.37824 86.78C7.37824 86.8533 7.34158 86.89 7.26824 86.89C7.26824 86.89 7.23158 86.89 7.15824 86.89C7.15824 86.8167 7.15824 86.7433 7.15824 86.67C7.30491 86.23 7.41491 85.7533 7.48824 85.24C7.63491 84.6533 7.78158 84.0667 7.92824 83.48C8.00158 83.48 8.03824 83.5167 8.03824 83.59C8.11158 83.6633 8.14824 83.7 8.14824 83.7C8.51491 84.0667 8.77158 83.92 8.91824 83.26C9.06491 82.82 9.13824 82.4167 9.13824 82.05C9.21158 81.61 9.28491 81.17 9.35824 80.73C9.43158 80.3633 9.46824 80.0333 9.46824 79.74C9.54158 79.4467 9.54158 79.1533 9.46824 78.86C9.46824 78.7867 9.46824 78.75 9.46824 78.75C9.54158 78.6767 9.57824 78.64 9.57824 78.64C9.79824 78.0533 9.90824 77.4667 9.90824 76.88C9.98158 76.22 10.0182 75.5233 10.0182 74.79C10.0182 74.57 10.0916 74.3867 10.2382 74.24C10.4582 74.02 10.4949 73.7267 10.3482 73.36C10.3482 73.2867 10.3116 73.25 10.2382 73.25C10.2382 73.1767 10.2382 73.1033 10.2382 73.03C10.3116 72.7367 10.3482 72.48 10.3482 72.26C10.3482 71.9667 10.3849 71.6733 10.4582 71.38C10.5316 70.8667 10.6049 70.39 10.6782 69.95C10.7516 69.51 10.7882 69.07 10.7882 68.63C10.8616 68.1167 10.9349 67.64 11.0082 67.2C11.0816 66.6867 11.1549 66.1733 11.2282 65.66C11.2282 65.1467 11.3016 64.67 11.4482 64.23C11.5949 63.79 11.7049 63.3133 11.7782 62.8C11.7782 62.2867 11.8882 61.9567 12.1082 61.81V61.59C12.1816 61.15 12.2182 60.7467 12.2182 60.38C12.2182 60.0133 12.2549 59.6467 12.3282 59.28C12.3282 59.1333 12.3282 59.0233 12.3282 58.95C12.4016 58.8033 12.4382 58.6933 12.4382 58.62C12.4382 58.5467 12.4382 58.4733 12.4382 58.4C12.5116 58.2533 12.5482 58.1433 12.5482 58.07C12.5482 57.7033 12.5482 57.3733 12.5482 57.08C12.6216 56.7867 12.6582 56.4933 12.6582 56.2C12.6582 56.0533 12.6216 55.98 12.5482 55.98C12.5482 55.9067 12.5482 55.8333 12.5482 55.76H12.4382C12.4382 55.9067 12.4016 56.0533 12.3282 56.2C11.9616 56.0533 11.7049 56.3467 11.5582 57.08C11.5582 56.4933 11.6682 56.1267 11.8882 55.98C12.0349 55.8333 12.1082 55.5767 12.1082 55.21C12.1082 54.8433 12.1816 54.3667 12.3282 53.78C12.3282 53.7067 12.3649 53.67 12.4382 53.67C12.5116 53.67 12.5482 53.7067 12.5482 53.78C12.6949 54.0733 12.8049 54.2567 12.8782 54.33C12.9516 54.2567 13.0616 54.0733 13.2082 53.78C13.3549 53.56 13.4282 53.3767 13.4282 53.23C13.4282 53.01 13.4282 52.8267 13.4282 52.68C13.3549 52.46 13.3182 52.1667 13.3182 51.8C13.4649 51.2867 13.6116 50.6633 13.7582 49.93C13.8316 49.71 13.8682 49.49 13.8682 49.27C13.8682 49.05 13.8682 48.83 13.8682 48.61C13.8682 48.4633 13.8682 48.3167 13.8682 48.17C13.9416 47.95 13.9782 47.7667 13.9782 47.62C13.9049 47.62 13.8316 47.5467 13.7582 47.4C13.6849 47.18 13.5016 47.18 13.2082 47.4C13.1349 47.1067 13.1349 46.9233 13.2082 46.85C13.3549 46.7033 13.4649 46.5933 13.5382 46.52C13.7582 46.3 13.8316 46.08 13.7582 45.86C13.6849 45.7867 13.6116 45.75 13.5382 45.75C13.4649 45.6767 13.3916 45.6033 13.3182 45.53V44.65C13.3182 44.5767 13.3916 44.4667 13.5382 44.32C13.8316 43.8067 13.8682 43.4033 13.6482 43.11C13.7949 43.0367 13.8682 42.9633 13.8682 42.89C13.9416 42.8167 14.0149 42.78 14.0882 42.78C14.3082 42.78 14.4916 42.56 14.6382 42.12C14.6382 41.9733 14.6382 41.8267 14.6382 41.68C14.7116 41.5333 14.7482 41.3867 14.7482 41.24V40.36C14.8216 39.9933 14.8216 39.6633 14.7482 39.37C14.7482 39.0033 14.7116 38.6367 14.6382 38.27C14.5649 38.27 14.5282 38.27 14.5282 38.27C14.5282 38.1967 14.5282 38.16 14.5282 38.16C14.2349 37.94 14.0882 37.6467 14.0882 37.28C14.0882 36.9133 14.0882 36.5467 14.0882 36.18V33.87C14.0882 33.43 14.0882 32.99 14.0882 32.55C14.0882 32.0367 14.0516 31.5967 13.9782 31.23C13.9782 30.7167 13.9782 30.24 13.9782 29.8C13.9782 29.2867 13.9416 28.81 13.8682 28.37C13.8682 28.0033 13.8316 27.6367 13.7582 27.27C13.7582 26.9033 13.7216 26.5367 13.6482 26.17C13.5016 25.73 13.3549 25.4733 13.2082 25.4C12.9882 25.4 12.8049 25.18 12.6582 24.74C12.5849 24.3 12.5849 23.97 12.6582 23.75C12.8782 23.2367 12.9516 22.7233 12.8782 22.21C12.8049 21.99 12.7316 21.77 12.6582 21.55C12.5849 21.2567 12.5849 20.9633 12.6582 20.67C12.8049 20.5233 12.7682 20.34 12.5482 20.12C12.4016 19.9 12.3649 19.7167 12.4382 19.57C12.5849 19.4233 12.7316 19.2767 12.8782 19.13C13.0249 19.0567 13.2449 19.02 13.5382 19.02C14.0516 19.1667 14.4182 18.9467 14.6382 18.36C14.6382 18.36 14.6382 18.3233 14.6382 18.25C14.6382 18.1767 14.6749 18.1033 14.7482 18.03C14.9682 17.81 15.1149 17.6267 15.1882 17.48C15.3349 17.26 15.5182 17.26 15.7382 17.48C15.9582 17.6267 16.1416 17.81 16.2882 18.03C16.5082 18.25 16.7649 18.3967 17.0582 18.47C17.4249 18.5433 17.7549 18.69 18.0482 18.91C18.4149 19.0567 18.7816 19.2033 19.1482 19.35C19.4416 19.35 19.6249 19.2767 19.6982 19.13C19.9916 19.13 20.2482 19.2033 20.4682 19.35C20.7616 19.4233 21.0549 19.4233 21.3482 19.35C21.5682 19.13 21.7882 19.24 22.0082 19.68C22.1549 19.8267 22.1182 20.01 21.8982 20.23C21.7516 20.5967 21.7516 20.8533 21.8982 21C22.1182 21.2933 22.3382 21.5867 22.5582 21.88C22.8516 22.1 23.0716 22.3933 23.2182 22.76C23.5116 23.0533 23.6949 23.3833 23.7682 23.75C23.7682 23.8967 23.8782 24.0433 24.0982 24.19C24.5382 24.7033 24.7949 25.3633 24.8682 26.17L25.3082 27.71C25.4549 28.0767 25.6382 28.15 25.8582 27.93C26.0049 27.7833 26.1516 27.8567 26.2982 28.15C26.3716 28.2233 26.4082 28.2967 26.4082 28.37C26.4816 28.4433 26.5549 28.5167 26.6282 28.59H26.9582C27.0316 28.59 27.1416 28.5533 27.2882 28.48C27.4349 28.4067 27.5449 28.4067 27.6182 28.48C28.2782 28.48 28.7916 28.81 29.1582 29.47C29.2316 29.6167 29.3049 29.7633 29.3782 29.91C29.4516 29.9833 29.5249 30.1667 29.5982 30.46C29.5982 30.46 29.7816 30.57 30.1482 30.79C30.2949 30.9367 30.2582 31.12 30.0382 31.34C30.0382 31.34 30.0016 31.34 29.9282 31.34C29.9282 31.34 29.8916 31.3767 29.8182 31.45C29.2316 31.7433 29.0482 32.22 29.2682 32.88C29.3416 33.1733 29.3416 33.5033 29.2682 33.87C29.2682 34.1633 29.3049 34.4933 29.3782 34.86C29.3782 35.3 29.3782 35.74 29.3782 36.18C29.4516 36.5467 29.5249 36.9133 29.5982 37.28C29.7449 37.7933 29.8916 38.3067 30.0382 38.82C30.1849 39.3333 30.2949 39.81 30.3682 40.25L32.3482 45.09C32.6416 45.6767 32.9349 46.3 33.2282 46.96C33.5216 47.5467 33.8516 48.1333 34.2182 48.72C34.2182 49.0867 34.3282 49.38 34.5482 49.6L36.3082 52.9C36.5282 53.1933 36.6382 53.5967 36.6382 54.11C36.7116 54.1833 36.7482 54.2567 36.7482 54.33C36.7482 54.4033 36.7849 54.44 36.8582 54.44C37.2249 54.7333 37.4449 55.0633 37.5182 55.43C37.6649 55.7233 37.7749 56.0533 37.8482 56.42C37.9949 56.5667 38.1049 56.7133 38.1782 56.86ZM50.4982 52.24C50.5716 52.3133 50.6082 52.4233 50.6082 52.57C50.6816 52.6433 50.7549 52.68 50.8282 52.68C50.9016 52.7533 51.0116 52.6067 51.1582 52.24C51.1582 52.1667 51.2316 51.9833 51.3782 51.69C51.6716 51.3967 51.7449 51.1033 51.5982 50.81C51.4516 50.2967 51.3049 50.2233 51.1582 50.59C51.0116 50.81 50.8649 51.0667 50.7182 51.36C50.5716 51.58 50.4982 51.8733 50.4982 52.24ZM39.0582 66.32H38.9482C39.1682 67.2 39.4249 67.86 39.7182 68.3C39.8649 68.0067 39.8649 67.64 39.7182 67.2C39.6449 66.76 39.4249 66.4667 39.0582 66.32ZM43.6782 68.41C43.8249 68.2633 43.8616 68.0067 43.7882 67.64C43.7882 67.2733 43.7149 67.0167 43.5682 66.87C43.4949 67.1633 43.4582 67.4567 43.4582 67.75C43.4582 67.97 43.5316 68.19 43.6782 68.41ZM65.5682 92.5C65.4949 92.3533 65.4216 92.28 65.3482 92.28C65.3482 92.28 65.3116 92.2433 65.2382 92.17C65.1649 92.17 65.1282 92.1333 65.1282 92.06C65.1282 91.9867 65.1282 91.95 65.1282 91.95C64.9082 91.8033 64.7982 91.9133 64.7982 92.28C64.7982 92.5733 64.8716 92.72 65.0182 92.72C65.0916 92.72 65.2749 92.6467 65.5682 92.5ZM70.6282 58.29V57.19C70.3349 57.3367 70.1882 57.52 70.1882 57.74C70.1882 57.96 70.3349 58.1433 70.6282 58.29ZM40.1582 69.95C40.4516 69.4367 40.3782 69.1433 39.9382 69.07C40.0849 69.51 40.1582 69.8033 40.1582 69.95ZM71.9482 59.17C71.6549 59.6833 71.7282 60.0133 72.1682 60.16C72.1682 59.94 72.0949 59.61 71.9482 59.17ZM52.8082 39.48C52.2216 39.7 52.0749 40.0667 52.3682 40.58C52.4416 40.6533 52.4416 40.7633 52.3682 40.91C52.3682 40.9833 52.3682 41.0567 52.3682 41.13L51.7082 42.56C51.7082 42.56 51.5616 42.6333 51.2682 42.78V42.56C51.4882 42.4133 51.6349 42.1933 51.7082 41.9C51.7816 41.6067 51.8549 41.35 51.9282 41.13C52.0016 40.8367 52.0382 40.58 52.0382 40.36C52.0382 40.14 52.0749 39.92 52.1482 39.7C52.2949 39.3333 52.5149 39.26 52.8082 39.48ZM11.8882 57.74C11.8882 57.8867 11.8882 58.0333 11.8882 58.18C11.8882 58.2533 11.8882 58.3633 11.8882 58.51V58.84C11.6682 59.1333 11.5582 59.5 11.5582 59.94C11.5582 60.38 11.5216 60.82 11.4482 61.26C11.4482 61.26 11.4482 61.2967 11.4482 61.37C11.4482 61.37 11.4116 61.4067 11.3382 61.48H11.2282C11.2282 61.4067 11.1916 61.37 11.1182 61.37C11.1182 61.2967 11.1182 61.2233 11.1182 61.15C11.3382 60.8567 11.3382 60.5267 11.1182 60.16C11.0449 60.0867 11.0082 59.9767 11.0082 59.83C11.0816 59.6833 11.1182 59.5733 11.1182 59.5C11.4116 58.9867 11.5949 58.51 11.6682 58.07C11.7416 58.07 11.8149 57.96 11.8882 57.74ZM74.6982 74.35V75.78C74.1849 75.4867 74.1849 75.01 74.6982 74.35ZM50.1682 48.83C50.2416 48.6833 50.2782 48.5733 50.2782 48.5C50.2782 48.3533 50.3149 48.17 50.3882 47.95C50.4616 48.4633 50.3882 48.7567 50.1682 48.83ZM50.1682 48.83C50.0949 49.1233 49.9849 49.4167 49.8382 49.71C49.7649 49.93 49.6916 50.2233 49.6182 50.59L49.5082 50.48C49.5082 49.8933 49.7282 49.3433 50.1682 48.83ZM48.7382 49.38C48.8116 49.0867 48.9216 48.7933 49.0682 48.5H49.1782C49.1049 48.6467 49.0316 48.7933 48.9582 48.94C48.9582 49.0867 48.9216 49.2333 48.8482 49.38H48.7382ZM65.3482 65.22C65.3482 65 65.3116 64.78 65.2382 64.56C65.2382 64.34 65.2382 64.0833 65.2382 63.79H65.3482C65.4216 64.0833 65.4582 64.34 65.4582 64.56C65.4582 64.78 65.4582 65 65.4582 65.22H65.3482ZM53.0282 50.59C52.9549 50.6633 52.8816 50.7367 52.8082 50.81C52.8082 50.8833 52.7349 50.9567 52.5882 51.03C52.5882 50.9567 52.5516 50.92 52.4782 50.92C52.6249 50.6267 52.8082 50.48 53.0282 50.48V50.59ZM74.3682 73.58C74.3682 73.4333 74.3682 73.3233 74.3682 73.25C74.3682 73.1033 74.3682 72.9933 74.3682 72.92H74.5882C74.5882 72.9933 74.5516 73.1033 74.4782 73.25C74.4782 73.3233 74.4782 73.4333 74.4782 73.58H74.3682ZM39.4802 215.98C39.4069 215.833 39.3335 215.687 39.2602 215.54C39.1869 215.393 39.1135 215.283 39.0402 215.21C38.1602 215.43 37.3169 215.503 36.5102 215.43C35.7769 215.43 35.0069 215.32 34.2002 215.1C33.1735 214.807 32.1835 214.44 31.2302 214C30.7169 213.78 30.2035 213.56 29.6902 213.34C29.2502 213.12 28.7735 212.9 28.2602 212.68C28.1135 212.533 27.9302 212.423 27.7102 212.35C27.5635 212.277 27.4535 212.167 27.3802 212.02C27.1602 211.653 26.8669 211.36 26.5002 211.14C26.2069 210.847 25.9502 210.553 25.7302 210.26C25.1435 209.747 24.5569 209.197 23.9702 208.61C23.3835 207.95 22.7969 207.327 22.2102 206.74C21.8435 206.52 21.6602 206.19 21.6602 205.75C21.7335 205.383 21.6969 205.09 21.5502 204.87C21.4769 204.65 21.3669 204.43 21.2202 204.21C19.7535 202.157 18.8002 199.993 18.3602 197.72C18.2135 197.133 18.0669 196.51 17.9202 195.85C17.8469 195.117 17.7369 194.42 17.5902 193.76C17.3702 192.513 17.2235 191.303 17.1502 190.13C17.1502 188.883 17.2602 187.637 17.4802 186.39C17.6269 185.657 17.7002 184.96 17.7002 184.3C17.7735 183.567 17.9202 182.833 18.1402 182.1C18.3602 180.56 18.6902 179.02 19.1302 177.48C19.5702 175.94 20.0835 174.4 20.6702 172.86C20.9635 172.273 21.2569 171.65 21.5502 170.99C21.8435 170.33 22.1369 169.67 22.4302 169.01C22.7235 168.717 22.9802 168.423 23.2002 168.13C23.4202 167.763 23.5669 167.397 23.6402 167.03C23.7869 166.663 24.0069 166.333 24.3002 166.04C24.5935 165.747 24.7769 165.417 24.8502 165.05L25.2902 164.61C25.5835 164.243 25.8035 163.877 25.9502 163.51C26.0969 163.07 26.3169 162.667 26.6102 162.3C27.1235 161.493 27.5635 160.723 27.9302 159.99C28.3702 159.257 28.8469 158.487 29.3602 157.68L31.1202 156.03C31.5602 155.663 31.9635 155.297 32.3302 154.93C32.6969 154.563 32.9169 154.123 32.9902 153.61C33.0635 153.39 33.1369 153.17 33.2102 152.95C33.3569 152.73 33.5769 152.583 33.8702 152.51C33.8702 152.363 33.8335 152.217 33.7602 152.07C33.7602 151.85 33.7969 151.703 33.8702 151.63C34.0902 151.337 34.2002 151.117 34.2002 150.97C34.2002 150.75 34.1635 150.493 34.0902 150.2C34.3835 150.053 34.5302 149.98 34.5302 149.98C35.3369 149.98 36.0702 150.017 36.7302 150.09C37.3902 150.09 38.0869 150.09 38.8202 150.09C39.3335 150.017 39.7735 149.943 40.1402 149.87C40.5802 149.723 41.0569 149.613 41.5702 149.54C41.9369 149.393 42.5969 149.357 43.5502 149.43C44.5035 149.43 45.1269 149.503 45.4202 149.65C45.7135 149.723 45.9335 149.833 46.0802 149.98C46.3002 150.053 46.5202 150.163 46.7402 150.31C47.2535 150.823 47.9869 151.08 48.9402 151.08C49.3069 151.08 49.7102 151.263 50.1502 151.63C50.6635 151.923 50.9569 152.253 51.0302 152.62C51.0302 152.84 50.9202 153.06 50.7002 153.28C50.5535 153.5 50.4435 153.72 50.3702 153.94C50.6635 154.453 50.8835 154.747 51.0302 154.82C51.2502 154.82 51.7269 154.783 52.4602 154.71C52.6069 154.71 52.6802 154.82 52.6802 155.04C52.9735 155.773 53.3035 156.433 53.6702 157.02C54.1102 157.607 54.3669 158.303 54.4402 159.11C54.5869 159.55 54.6969 159.99 54.7702 160.43C54.9169 160.797 55.1002 161.163 55.3202 161.53C55.4669 161.97 55.3935 162.41 55.1002 162.85C54.5869 162.63 54.3669 162.263 54.4402 161.75C54.5869 161.163 54.3669 160.833 53.7802 160.76C53.2669 160.76 53.1202 160.943 53.3402 161.31C53.7069 161.75 53.9635 162.227 54.1102 162.74C54.2569 163.253 54.4035 163.73 54.5502 164.17C54.5502 164.39 54.5869 164.61 54.6602 164.83C54.7335 164.977 54.8069 165.16 54.8802 165.38C55.1002 165.307 55.2835 165.27 55.4302 165.27C55.5769 165.197 55.7235 165.16 55.8702 165.16C55.9435 165.233 56.0169 165.343 56.0902 165.49C56.1635 165.637 56.2002 165.783 56.2002 165.93C56.2002 166.223 56.1635 166.553 56.0902 166.92C56.0902 167.287 56.0535 167.653 55.9802 168.02C55.9069 168.533 55.8335 169.083 55.7602 169.67C55.6869 170.183 55.5769 170.697 55.4302 171.21L54.0002 173.96C53.9269 174.107 53.8169 174.253 53.6702 174.4C53.5235 174.473 53.4135 174.583 53.3402 174.73C53.1935 175.097 53.0469 175.573 52.9002 176.16C52.6802 176.233 52.4602 176.38 52.2402 176.6C52.0202 176.747 51.8735 177.003 51.8002 177.37C51.6535 177.663 51.3969 177.847 51.0302 177.92C50.7369 177.993 50.4802 178.14 50.2602 178.36C50.1135 178.58 50.0035 178.837 49.9302 179.13C49.8569 179.423 49.6369 179.643 49.2702 179.79C49.0502 179.863 48.8669 180.01 48.7202 180.23C48.5735 180.377 48.5369 180.56 48.6102 180.78C48.6835 180.853 48.6835 181 48.6102 181.22C48.5369 181.44 48.3535 181.513 48.0602 181.44C47.8402 181.44 47.5835 181.513 47.2902 181.66C46.9235 182.32 46.1902 182.54 45.0902 182.32C45.2369 182.687 45.3835 183.053 45.5302 183.42C45.6769 183.713 45.8235 184.007 45.9702 184.3C45.6035 184.593 45.1635 184.85 44.6502 185.07C44.2102 185.217 43.8802 185.473 43.6602 185.84C43.5869 186.06 43.4035 186.097 43.1102 185.95C42.3769 185.877 41.7169 185.95 41.1302 186.17C40.5435 186.39 39.9935 186.683 39.4802 187.05C39.4069 187.123 39.0402 187.233 38.3802 187.38C37.7202 187.527 37.3902 187.673 37.3902 187.82C37.2435 188.407 36.9869 188.59 36.6202 188.37C36.2535 188.223 35.9235 188.15 35.6302 188.15C35.4102 188.077 35.1169 188.113 34.7502 188.26C34.5302 188.48 34.3469 188.333 34.2002 187.82C34.1269 187.747 34.4202 187.637 35.0802 187.49C35.8135 187.27 36.2169 187.16 36.2902 187.16C36.5835 187.16 36.8035 187.05 36.9502 186.83C37.1702 186.537 37.4635 186.463 37.8302 186.61C38.5635 186.903 39.1135 186.683 39.4802 185.95C38.7469 185.437 38.0502 185.253 37.3902 185.4C36.7302 185.473 36.0702 185.693 35.4102 186.06L35.7402 186.83C35.3002 186.757 34.8602 186.683 34.4202 186.61C34.0535 186.463 33.6869 186.427 33.3202 186.5C33.0269 186.573 32.7335 186.647 32.4402 186.72C32.2202 186.72 31.5602 186.94 30.4602 187.38H28.8102C28.6635 188.113 28.5902 188.663 28.5902 189.03C28.5902 189.323 28.7369 189.47 29.0302 189.47C28.9569 189.617 28.8835 189.8 28.8102 190.02C28.7369 190.167 28.7002 190.313 28.7002 190.46C28.9202 191.34 29.1402 192.22 29.3602 193.1C29.5802 193.98 29.9102 194.823 30.3502 195.63C30.8635 196.95 31.5235 198.233 32.3302 199.48C33.1369 200.653 34.1269 201.68 35.3002 202.56C37.0602 204.173 39.1502 205.09 41.5702 205.31C42.8169 205.53 44.1002 205.493 45.4202 205.2C46.3735 205.127 47.4002 204.907 48.5002 204.54C48.8669 204.467 49.2335 204.357 49.6002 204.21C50.0402 203.99 50.4435 203.843 50.8102 203.77C50.9569 203.623 51.2502 203.403 51.6902 203.11C52.5702 202.523 53.4135 201.973 54.2202 201.46C55.0269 200.947 55.7969 200.36 56.5302 199.7C57.3369 198.967 58.0702 198.27 58.7302 197.61C59.3902 196.95 60.0135 196.18 60.6002 195.3C61.0402 194.64 61.4435 193.943 61.8102 193.21C62.2502 192.403 62.6902 191.633 63.1302 190.9C63.2035 190.753 63.3135 190.607 63.4602 190.46C63.6069 190.24 63.7535 190.02 63.9002 189.8C63.8269 188.92 64.0835 188.26 64.6702 187.82V185.29C65.1102 185.437 65.5502 185.51 65.9902 185.51C65.9902 185.803 66.0269 186.17 66.1002 186.61C66.1735 186.977 66.2102 187.343 66.2102 187.71L67.3102 187.49C67.3102 187.783 67.3102 188.077 67.3102 188.37C67.3102 188.663 67.3102 188.957 67.3102 189.25C67.6769 189.177 67.9702 189.03 68.1902 188.81C68.4835 188.59 68.8135 188.627 69.1802 188.92C69.1802 189.213 69.1435 189.507 69.0702 189.8C68.9969 190.02 68.8869 190.277 68.7402 190.57C68.4469 191.303 68.0435 191.963 67.5302 192.55C67.0169 193.063 66.5769 193.65 66.2102 194.31C66.1369 194.383 66.0635 194.53 65.9902 194.75C65.9902 194.897 65.9535 195.043 65.8802 195.19C65.7335 195.63 65.5502 196.033 65.3302 196.4C65.1835 196.767 64.8902 197.06 64.4502 197.28C64.3035 197.28 64.1569 197.353 64.0102 197.5L62.2502 200.14C61.9569 200.433 61.6269 200.727 61.2602 201.02C60.9669 201.313 60.4902 201.46 59.8302 201.46C59.7569 201.46 59.6469 201.533 59.5002 201.68C59.6469 202.927 59.2435 203.77 58.2902 204.21C58.1435 204.283 58.0335 204.43 57.9602 204.65C57.8869 204.87 57.7769 205.053 57.6302 205.2C56.8235 205.713 56.3102 205.86 56.0902 205.64C55.8702 205.42 55.6502 205.53 55.4302 205.97C54.9902 206.557 54.4769 206.74 53.8902 206.52C53.5235 206.373 53.1569 206.373 52.7902 206.52C52.4969 206.593 52.2035 206.703 51.9102 206.85C51.4702 207.29 50.9935 207.62 50.4802 207.84C50.1869 208.06 49.9302 208.28 49.7102 208.5C49.4902 208.647 49.3069 208.903 49.1602 209.27C48.7202 210.297 47.9135 210.48 46.7402 209.82C46.5202 209.673 46.3002 209.527 46.0802 209.38C45.9335 209.233 45.6769 209.087 45.3102 208.94C45.2369 209.087 45.1269 209.27 44.9802 209.49C44.8335 209.71 44.6502 209.893 44.4302 210.04C44.2102 210.187 43.9902 210.297 43.7702 210.37C43.5502 210.443 43.3302 210.553 43.1102 210.7C43.1102 210.773 43.1102 210.883 43.1102 211.03C43.1835 211.103 43.2202 211.213 43.2202 211.36C43.0735 211.433 42.8535 211.507 42.5602 211.58C42.3402 211.653 42.1569 211.69 42.0102 211.69C41.3502 211.543 40.9469 211.8 40.8002 212.46C40.7269 212.607 40.6535 212.753 40.5802 212.9C40.5069 212.973 40.4335 213.083 40.3602 213.23C39.6269 213.23 38.8569 213.23 38.0502 213.23C37.3169 213.157 36.5469 213.083 35.7402 213.01C35.8869 213.083 35.9969 213.157 36.0702 213.23C36.2169 213.23 36.3269 213.267 36.4002 213.34C36.8402 213.487 37.0969 213.597 37.1702 213.67C37.5369 214.11 37.9402 214.33 38.3802 214.33C38.8202 214.403 39.2969 214.44 39.8102 214.44H43.5502C43.0369 215.027 42.3769 215.32 41.5702 215.32C40.8369 215.393 40.1402 215.613 39.4802 215.98ZM38.6002 212.68C38.6002 212.387 38.6002 212.167 38.6002 212.02C38.6735 211.8 38.7102 211.58 38.7102 211.36C38.1235 211.507 37.6102 211.47 37.1702 211.25C36.8035 211.03 36.3635 210.993 35.8502 211.14C35.8502 211.14 35.7402 211.03 35.5202 210.81C35.0069 210.37 34.5669 210.187 34.2002 210.26C33.9069 210.333 33.5035 210.7 32.9902 211.36C33.9435 211.653 34.8602 211.983 35.7402 212.35C36.6935 212.643 37.6469 212.753 38.6002 212.68ZM42.8902 213.12C42.5969 213.047 42.3769 212.973 42.2302 212.9C42.0835 212.753 41.8635 212.643 41.5702 212.57C41.8635 212.423 42.1202 212.313 42.3402 212.24C42.5602 212.093 42.8169 211.983 43.1102 211.91C43.0369 212.203 42.9635 212.46 42.8902 212.68C42.8902 212.827 42.8902 212.973 42.8902 213.12ZM44.2102 212.46C44.1369 212.46 43.9902 212.35 43.7702 212.13C43.8435 212.057 43.8802 211.983 43.8802 211.91C43.8802 211.837 43.9169 211.8 43.9902 211.8C44.1369 211.8 44.2469 211.837 44.3202 211.91C44.4669 211.91 44.5769 211.91 44.6502 211.91C44.6502 211.983 44.6502 212.057 44.6502 212.13C44.7235 212.13 44.7602 212.167 44.7602 212.24C44.6135 212.387 44.4302 212.46 44.2102 212.46ZM47.2902 209.6C47.7302 209.453 47.9869 209.38 48.0602 209.38C48.0602 209.307 48.0235 209.27 47.9502 209.27C47.9502 209.197 47.9502 209.16 47.9502 209.16C47.8769 209.16 47.7669 209.197 47.6202 209.27C47.4735 209.27 47.3269 209.27 47.1802 209.27C47.2535 209.343 47.2902 209.453 47.2902 209.6ZM31.0102 182.76C31.5969 183.053 31.9635 183.2 32.1102 183.2C32.2569 183.2 32.5135 183.053 32.8802 182.76C32.7335 182.613 32.5502 182.503 32.3302 182.43C32.1835 182.283 31.9635 182.173 31.6702 182.1C31.2302 181.953 31.0102 182.173 31.0102 182.76ZM36.0702 184.19C36.4369 183.97 36.8402 183.897 37.2802 183.97C38.0869 184.043 38.4902 183.64 38.4902 182.76H37.0602C36.8402 182.833 36.6202 182.943 36.4002 183.09C36.1802 183.163 35.9235 183.2 35.6302 183.2C35.3369 183.2 35.0435 183.2 34.7502 183.2C34.4569 183.2 34.1635 183.163 33.8702 183.09C34.0169 183.457 34.3102 183.787 34.7502 184.08C35.2635 184.3 35.7035 184.337 36.0702 184.19ZM33.6502 181.77C34.2369 181.77 34.7869 181.77 35.3002 181.77C35.8135 181.77 36.2535 181.513 36.6202 181C35.8869 180.853 35.3369 180.817 34.9702 180.89C34.6769 180.963 34.2369 181.257 33.6502 181.77ZM48.3902 182.98C48.3169 182.833 48.2802 182.723 48.2802 182.65C48.2802 182.503 48.2435 182.393 48.1702 182.32C48.2435 182.32 48.2802 182.32 48.2802 182.32C48.3535 182.247 48.4269 182.21 48.5002 182.21L48.8302 182.76C48.8302 182.76 48.6835 182.833 48.3902 182.98ZM30.4602 180.34C30.5335 180.047 30.6802 179.79 30.9002 179.57C31.3402 179.79 31.5602 179.9 31.5602 179.9C31.9269 179.387 32.2202 179.277 32.4402 179.57C32.6602 179.863 32.9169 179.973 33.2102 179.9C33.4302 179.753 33.6502 179.57 33.8702 179.35C34.0902 179.13 34.2735 178.983 34.4202 178.91C34.7869 178.69 35.1902 178.543 35.6302 178.47C36.1435 178.323 36.5469 178.03 36.8402 177.59C36.9869 177.443 37.1702 177.37 37.3902 177.37C37.6835 177.297 37.8669 177.26 37.9402 177.26C38.6735 177.48 39.2235 177.297 39.5902 176.71C39.9569 176.417 40.3969 176.087 40.9102 175.72C41.4969 175.353 42.0469 174.95 42.5602 174.51C42.2669 174.143 42.2302 173.85 42.4502 173.63C42.7435 173.41 42.9635 173.227 43.1102 173.08C43.1835 172.933 43.2935 172.823 43.4402 172.75C43.6602 172.677 43.8069 172.603 43.8802 172.53C44.9069 172.237 45.6769 171.65 46.1902 170.77C46.7035 169.817 46.9602 168.9 46.9602 168.02C46.9602 167.58 46.9235 167.177 46.8502 166.81C46.7769 166.37 46.7402 166.003 46.7402 165.71C46.7402 164.537 46.5935 163.437 46.3002 162.41C46.0069 161.31 45.5669 160.21 44.9802 159.11C44.9802 159.11 44.9435 159.11 44.8702 159.11C44.8702 159.037 44.7969 158.963 44.6502 158.89C44.4302 159.183 44.2102 159.403 43.9902 159.55C43.7702 159.697 43.5869 159.843 43.4402 159.99C43.1469 160.283 42.8902 160.54 42.6702 160.76C42.5235 160.98 42.2669 161.237 41.9002 161.53C41.4602 161.823 41.0202 162.153 40.5802 162.52C40.1402 162.813 39.8469 163.253 39.7002 163.84C39.7002 163.987 39.6269 164.133 39.4802 164.28C38.9669 164.94 38.4169 165.6 37.8302 166.26C37.3169 166.847 36.6569 167.433 35.8502 168.02C34.8969 168.827 34.0535 169.78 33.3202 170.88C32.5869 171.98 31.9269 173.117 31.3402 174.29C31.0469 175.17 30.7535 176.013 30.4602 176.82C30.1669 177.553 29.8002 178.323 29.3602 179.13C29.5069 179.423 29.6535 179.643 29.8002 179.79C30.0202 179.937 30.2402 180.12 30.4602 180.34ZM70.2802 183.75C70.2802 183.383 70.3902 183.163 70.6102 183.09C70.9035 183.017 71.1235 182.833 71.2702 182.54C71.4169 183.053 71.4169 183.383 71.2702 183.53C71.1969 183.603 70.8669 183.677 70.2802 183.75ZM22.2287 288.53C22.082 288.603 21.9353 288.86 21.7887 289.3C21.7153 289.373 21.6053 289.52 21.4587 289.74C21.3853 289.887 21.2753 290.033 21.1287 290.18V289.74C21.2753 289.3 21.422 288.86 21.5687 288.42C21.7887 287.98 21.9353 287.577 22.0087 287.21C22.0087 287.063 22.0087 286.953 22.0087 286.88C22.082 286.733 22.0453 286.623 21.8987 286.55C21.6787 286.183 21.642 285.963 21.7887 285.89C21.7887 285.743 21.7887 285.633 21.7887 285.56C21.862 285.487 21.8987 285.413 21.8987 285.34C21.972 284.827 21.8253 284.607 21.4587 284.68C21.4587 284.02 21.422 283.543 21.3487 283.25C21.3487 283.103 21.312 282.993 21.2387 282.92C21.1653 282.773 21.1287 282.663 21.1287 282.59C20.9087 281.93 20.872 281.27 21.0187 280.61C21.092 280.463 21.092 280.353 21.0187 280.28C20.872 279.913 20.7987 279.583 20.7987 279.29C20.872 278.923 20.9087 278.557 20.9087 278.19C20.9087 277.677 20.872 277.2 20.7987 276.76C20.7253 276.32 20.6153 275.88 20.4687 275.44C20.322 274.56 20.1387 273.753 19.9187 273.02C19.6987 272.213 19.5153 271.443 19.3687 270.71C19.3687 270.71 19.332 270.71 19.2587 270.71C19.2587 270.637 19.2587 270.563 19.2587 270.49C19.1853 270.343 19.0753 270.27 18.9287 270.27C18.8553 270.197 18.782 270.123 18.7087 270.05C18.6353 269.83 18.562 269.61 18.4887 269.39C18.4153 269.17 18.3053 268.95 18.1587 268.73C18.012 268.583 17.9387 268.4 17.9387 268.18C17.9387 267.96 17.902 267.74 17.8287 267.52C17.7553 267.373 17.682 267.19 17.6087 266.97C17.5353 266.75 17.462 266.53 17.3887 266.31C17.1687 266.457 16.9853 266.603 16.8387 266.75C16.6187 266.383 16.3987 266.053 16.1787 265.76C15.9587 265.393 15.7753 265.063 15.6287 264.77C15.8487 264.77 15.9953 264.807 16.0687 264.88C16.2153 264.66 16.362 264.477 16.5087 264.33C16.7287 264.11 17.022 264.037 17.3887 264.11C17.3887 264.183 17.3887 264.22 17.3887 264.22C17.462 264.147 17.4987 264.11 17.4987 264.11C17.6453 263.817 17.8653 263.707 18.1587 263.78C18.5253 263.78 18.8553 263.707 19.1487 263.56H19.6987C20.212 263.56 20.4687 263.377 20.4687 263.01V262.9C20.4687 262.46 20.5053 262.203 20.5787 262.13C20.652 261.983 20.9087 261.873 21.3487 261.8C21.5687 261.8 21.752 261.763 21.8987 261.69C22.0453 261.543 22.192 261.433 22.3387 261.36C22.852 261.067 23.402 260.92 23.9887 260.92C24.2087 260.92 24.4287 260.92 24.6487 260.92C24.942 260.92 25.2353 260.957 25.5287 261.03C25.6753 261.03 25.822 261.103 25.9687 261.25C26.1153 261.323 26.262 261.397 26.4087 261.47H26.5187C26.8853 261.177 27.1787 261.14 27.3987 261.36C27.692 261.507 27.9853 261.69 28.2787 261.91C28.4987 262.13 28.7187 262.313 28.9387 262.46C29.1587 262.533 29.3787 262.643 29.5987 262.79C29.892 262.937 30.0387 263.01 30.0387 263.01C30.1853 263.23 30.2953 263.45 30.3687 263.67C30.5153 263.89 30.662 264.147 30.8087 264.44C30.8087 264.513 30.8087 264.587 30.8087 264.66C30.8087 264.733 30.8087 264.807 30.8087 264.88V266.31C30.8087 266.457 30.8453 266.603 30.9187 266.75C31.0653 266.823 31.1753 266.933 31.2487 267.08C31.1753 267.153 31.1387 267.3 31.1387 267.52C31.212 267.74 31.102 267.887 30.8087 267.96C30.8087 268.253 30.8453 268.4 30.9187 268.4C31.3587 268.547 31.5787 268.803 31.5787 269.17C31.652 269.537 31.7253 269.903 31.7987 270.27V272.25C31.7987 272.47 31.8353 272.727 31.9087 273.02C31.982 273.313 32.0187 273.643 32.0187 274.01C32.0187 274.303 32.0553 274.633 32.1287 275C32.202 275.293 32.092 275.55 31.7987 275.77V275.88C32.1653 276.247 32.2753 276.65 32.1287 277.09C31.982 277.53 32.0187 277.97 32.2387 278.41C32.2387 278.703 32.202 279.033 32.1287 279.4C32.0553 279.767 32.0187 280.17 32.0187 280.61C32.0187 281.05 32.0187 281.453 32.0187 281.82C32.0187 282.187 31.9453 282.59 31.7987 283.03C31.7987 284.057 31.6887 285.12 31.4687 286.22V287.65C31.4687 287.943 31.432 288.127 31.3587 288.2C31.2853 288.493 31.212 288.787 31.1387 289.08C31.0653 289.373 30.992 289.667 30.9187 289.96L31.0287 290.18C31.2487 289.74 31.4687 289.337 31.6887 288.97C31.982 288.53 32.2387 288.163 32.4587 287.87C32.8253 287.357 33.1187 286.807 33.3387 286.22C33.632 285.633 33.9253 285.083 34.2187 284.57L35.4287 282.59C35.5753 282.37 35.6853 282.15 35.7587 281.93C35.9053 281.71 36.0887 281.453 36.3087 281.16C37.1153 279.84 37.9953 278.63 38.9487 277.53C39.6087 276.43 40.3787 275.44 41.2587 274.56C41.552 274.267 41.8087 273.9 42.0287 273.46C42.2487 273.02 42.4687 272.617 42.6887 272.25C42.8353 272.177 42.9453 272.067 43.0187 271.92C43.092 271.773 43.2387 271.7 43.4587 271.7L43.5687 271.48C43.7153 271.407 43.8253 271.37 43.8987 271.37C44.0453 271.297 44.1553 271.187 44.2287 271.04C44.3753 270.893 44.4487 270.71 44.4487 270.49C45.1087 270.637 45.1087 270.967 44.4487 271.48C44.3753 271.407 44.302 271.37 44.2287 271.37C44.0087 271.37 43.8987 271.48 43.8987 271.7L43.4587 272.36C43.6053 272.213 43.752 272.103 43.8987 272.03C44.0453 271.957 44.192 271.883 44.3387 271.81C44.412 272.177 44.3387 272.433 44.1187 272.58C43.8987 272.727 43.7153 272.91 43.5687 273.13C43.422 273.497 43.202 273.79 42.9087 274.01H42.5787C42.5053 274.23 42.3953 274.487 42.2487 274.78C42.1753 275 42.102 275.22 42.0287 275.44C41.882 275.513 41.772 275.66 41.6987 275.88C41.6253 276.027 41.5153 276.173 41.3687 276.32C41.1487 276.833 41.2587 277.09 41.6987 277.09C41.6987 277.09 41.7353 277.09 41.8087 277.09C41.882 277.09 41.9553 277.127 42.0287 277.2L40.8187 278.63C40.672 278.85 40.562 278.997 40.4887 279.07C40.4887 279.143 40.4153 279.327 40.2687 279.62C40.2687 279.693 40.232 279.84 40.1587 280.06C40.0853 280.28 40.012 280.463 39.9387 280.61C39.9387 280.61 39.902 280.647 39.8287 280.72C39.8287 280.72 39.7553 280.72 39.6087 280.72C39.6087 280.793 39.6453 280.867 39.7187 280.94C39.792 281.013 39.8287 281.05 39.8287 281.05C39.6087 281.343 39.3887 281.71 39.1687 282.15C39.0953 282.37 38.9487 282.517 38.7287 282.59L38.6187 282.81C38.7653 283.103 38.7287 283.36 38.5087 283.58C38.2887 283.8 38.1053 284.02 37.9587 284.24L37.7387 284.46C37.8853 284.753 37.8853 284.973 37.7387 285.12C37.592 285.267 37.4453 285.413 37.2987 285.56C37.2253 285.78 37.152 286.037 37.0787 286.33C37.0787 286.55 37.0053 286.77 36.8587 286.99C36.7853 287.137 36.7487 287.283 36.7487 287.43C36.5287 287.503 36.382 287.613 36.3087 287.76C36.2353 287.907 36.1253 288.053 35.9787 288.2C35.9787 288.347 35.9053 288.493 35.7587 288.64C35.7587 288.64 35.722 288.64 35.6487 288.64C35.5753 288.64 35.5387 288.713 35.5387 288.86C35.5387 289.153 35.502 289.483 35.4287 289.85C35.3553 290.217 35.172 290.547 34.8787 290.84C34.6587 291.06 34.5487 291.427 34.5487 291.94C34.4753 292.087 34.3653 292.307 34.2187 292.6C34.1453 292.82 34.072 293.077 33.9987 293.37C33.9987 293.443 33.9253 293.553 33.7787 293.7C33.7787 293.847 33.7053 294.14 33.5587 294.58C33.5587 294.653 33.522 294.763 33.4487 294.91C33.3753 294.983 33.3387 295.057 33.3387 295.13C33.4853 295.497 33.4853 295.827 33.3387 296.12C33.192 296.413 33.1187 296.743 33.1187 297.11C32.972 297.257 32.8253 297.623 32.6787 298.21V298.87C32.6787 298.943 32.642 299.017 32.5687 299.09C32.4953 299.163 32.4587 299.273 32.4587 299.42C32.3853 299.493 32.3487 299.603 32.3487 299.75C32.3487 299.823 32.312 299.933 32.2387 300.08V300.52C31.9453 301.327 31.762 302.023 31.6887 302.61V302.94C31.6153 303.087 31.5053 303.233 31.3587 303.38C31.212 303.527 31.212 303.71 31.3587 303.93C31.432 304.077 31.432 304.26 31.3587 304.48C31.2853 304.7 31.2487 304.92 31.2487 305.14C31.2487 305.653 31.212 306.13 31.1387 306.57C31.0653 307.01 30.9553 307.413 30.8087 307.78C30.8087 308 30.772 308.183 30.6987 308.33C30.6253 308.477 30.552 308.623 30.4787 308.77V309.21C30.4053 309.577 30.3687 309.943 30.3687 310.31C30.442 310.677 30.5153 311.043 30.5887 311.41C30.5887 312.07 30.6987 312.547 30.9187 312.84C31.212 312.987 31.102 313.39 30.5887 314.05C30.5153 314.05 30.442 314.05 30.3687 314.05C30.3687 313.977 30.3687 313.94 30.3687 313.94C30.0753 314.307 29.892 314.747 29.8187 315.26C29.8187 315.7 29.8187 316.14 29.8187 316.58C29.8187 316.8 29.7453 316.947 29.5987 317.02C29.3787 317.313 29.2687 317.717 29.2687 318.23C29.342 318.743 29.3787 319.22 29.3787 319.66C29.3053 320.1 29.1953 320.54 29.0487 320.98C28.9753 321.347 28.9387 321.75 28.9387 322.19C28.9387 322.703 28.9753 323.033 29.0487 323.18C29.0487 323.4 29.0487 323.62 29.0487 323.84C29.122 324.06 29.1587 324.28 29.1587 324.5C29.1587 324.867 29.1953 325.197 29.2687 325.49C29.342 325.783 29.3053 326.113 29.1587 326.48C29.0853 326.847 28.902 326.993 28.6087 326.92C28.462 326.92 28.3153 326.957 28.1687 327.03C28.022 327.103 27.8753 327.213 27.7287 327.36C27.4353 327.433 27.252 327.323 27.1787 327.03C27.032 327.103 26.8853 327.14 26.7387 327.14C26.592 327.14 26.4453 327.213 26.2987 327.36C26.0053 326.92 25.7853 326.627 25.6387 326.48C25.3453 326.7 25.1253 327.067 24.9787 327.58C24.9053 327.947 24.8687 328.35 24.8687 328.79C24.8687 329.157 24.7587 329.523 24.5387 329.89C24.5387 329.89 24.5387 329.963 24.5387 330.11C24.2453 330.257 23.9887 330.367 23.7687 330.44C23.5487 330.587 23.2553 330.77 22.8887 330.99C22.8153 330.697 22.7787 330.403 22.7787 330.11C22.852 329.817 22.5953 329.743 22.0087 329.89C22.0087 329.743 21.972 329.633 21.8987 329.56C21.8987 329.413 21.8987 329.303 21.8987 329.23C21.972 329.157 22.0453 329.083 22.1187 329.01C22.2653 328.937 22.3387 328.863 22.3387 328.79C22.3387 328.497 22.192 328.35 21.8987 328.35C21.8253 328.35 21.7153 328.35 21.5687 328.35C21.422 328.35 21.2753 328.387 21.1287 328.46C20.982 328.68 20.7987 328.753 20.5787 328.68V327.58C20.3587 327.58 20.1387 327.58 19.9187 327.58C19.772 327.507 19.6987 327.653 19.6987 328.02C19.4053 327.947 19.2587 327.8 19.2587 327.58C19.332 327.14 19.112 326.7 18.5987 326.26C18.3787 325.967 18.4153 325.783 18.7087 325.71V325.49C18.562 325.49 18.4153 325.527 18.2687 325.6C18.1953 325.6 18.0853 325.6 17.9387 325.6C17.6453 325.307 17.6087 324.977 17.8287 324.61V324.06C17.682 323.693 17.572 323.327 17.4987 322.96C17.4253 322.52 17.352 322.08 17.2787 321.64C17.4987 321.713 17.6453 321.713 17.7187 321.64C17.792 321.493 17.8653 321.383 17.9387 321.31C18.0853 321.09 18.1587 320.87 18.1587 320.65C18.232 320.43 18.3053 320.21 18.3787 319.99L18.8187 319.55C19.332 319.55 19.5887 319.293 19.5887 318.78V317.68C19.5887 317.46 19.5887 317.277 19.5887 317.13C19.662 316.91 19.6987 316.69 19.6987 316.47C19.8453 316.103 19.992 315.773 20.1387 315.48C20.2853 315.113 20.432 314.783 20.5787 314.49V314.27C20.5787 314.123 20.5787 313.94 20.5787 313.72C20.652 313.5 20.762 313.317 20.9087 313.17C21.2753 312.657 21.3487 311.887 21.1287 310.86V310.31C21.2753 309.943 21.3487 309.613 21.3487 309.32C21.3487 308.953 21.3487 308.623 21.3487 308.33C21.422 308.257 21.4587 308.147 21.4587 308C21.6053 307.853 21.642 307.78 21.5687 307.78C21.4953 307.193 21.4953 306.643 21.5687 306.13C21.7153 305.617 21.7153 305.103 21.5687 304.59C21.4953 304.223 21.4953 303.857 21.5687 303.49C21.7153 303.05 21.7887 302.683 21.7887 302.39C21.7887 302.023 21.7887 301.62 21.7887 301.18C21.862 300.74 21.8987 300.373 21.8987 300.08C21.8987 300.007 21.862 299.933 21.7887 299.86C21.7887 299.787 21.7887 299.713 21.7887 299.64C21.5687 299.567 21.422 299.42 21.3487 299.2C21.2753 298.98 21.312 298.76 21.4587 298.54C21.532 298.467 21.5687 298.393 21.5687 298.32C21.642 298.173 21.7153 298.063 21.7887 297.99C21.7887 297.623 21.7887 297.293 21.7887 297C21.862 296.707 21.9353 296.413 22.0087 296.12C21.862 296.12 21.642 296.047 21.3487 295.9C21.422 295.753 21.5687 295.497 21.7887 295.13C21.862 295.277 21.8987 295.387 21.8987 295.46C21.972 295.533 22.0087 295.607 22.0087 295.68C22.3753 295.387 22.5587 295.057 22.5587 294.69C22.632 294.25 22.5953 293.847 22.4487 293.48C22.4487 293.333 22.412 293.187 22.3387 293.04C22.3387 292.82 22.3387 292.6 22.3387 292.38C22.192 292.233 22.0453 292.05 21.8987 291.83C21.8253 291.537 21.7153 291.28 21.5687 291.06C21.5687 291.133 21.532 291.28 21.4587 291.5C21.4587 291.647 21.4587 291.793 21.4587 291.94C21.3853 291.793 21.2753 291.72 21.1287 291.72C21.0553 291.647 21.0553 291.573 21.1287 291.5C21.1287 291.06 21.2387 290.84 21.4587 290.84C21.972 290.62 22.2653 290.363 22.3387 290.07C22.412 289.703 22.412 289.337 22.3387 288.97C22.3387 288.897 22.3387 288.823 22.3387 288.75C22.3387 288.677 22.3387 288.603 22.3387 288.53H22.2287ZM21.7887 278.96H22.0087C22.0087 278.593 22.0087 278.227 22.0087 277.86C22.082 277.493 22.1553 277.09 22.2287 276.65C22.0087 276.723 21.8253 276.797 21.6787 276.87C21.532 276.87 21.422 276.943 21.3487 277.09C21.1287 277.677 21.2753 278.3 21.7887 278.96ZM30.4787 312.95C30.4053 312.95 30.332 312.95 30.2587 312.95C30.2587 312.877 30.1853 312.84 30.0387 312.84C30.0387 312.84 30.002 312.877 29.9287 312.95C29.9287 312.95 29.9287 312.987 29.9287 313.06C30.1487 313.28 30.2587 313.427 30.2587 313.5L30.3687 313.39C30.3687 313.243 30.3687 313.17 30.3687 313.17C30.442 313.097 30.4787 313.023 30.4787 312.95ZM21.4587 275.33C21.752 274.89 21.7153 274.633 21.3487 274.56C21.3487 274.707 21.3487 274.853 21.3487 275C21.422 275.073 21.4587 275.183 21.4587 275.33ZM39.4987 279.4H39.6087C39.7553 279.327 39.8287 279.18 39.8287 278.96C39.7553 278.96 39.682 278.96 39.6087 278.96C39.5353 278.887 39.462 278.85 39.3887 278.85L39.4987 279.4ZM50.9387 333.08C50.9387 332.933 50.902 332.787 50.8287 332.64C50.7553 332.567 50.682 332.457 50.6087 332.31C50.5353 332.017 50.3887 331.723 50.1687 331.43C50.022 331.21 49.8387 330.917 49.6187 330.55C49.3253 330.183 49.0687 329.817 48.8487 329.45C48.702 329.083 48.5553 328.68 48.4087 328.24C48.3353 328.093 48.2987 327.983 48.2987 327.91C48.372 327.837 48.4087 327.727 48.4087 327.58C48.482 327.507 48.5187 327.433 48.5187 327.36C48.592 327.287 48.6653 327.213 48.7387 327.14C48.5187 327.067 48.2987 327.03 48.0787 327.03C47.932 326.957 47.7853 326.92 47.6387 326.92C47.6387 326.627 47.602 326.37 47.5287 326.15L47.9687 326.04C48.5553 326.187 48.7387 326.003 48.5187 325.49C48.5187 325.197 48.482 325.013 48.4087 324.94C48.3353 324.573 48.3353 324.243 48.4087 323.95C48.6287 323.583 48.592 323.253 48.2987 322.96C48.2253 322.813 48.1887 322.667 48.1887 322.52C48.262 322.3 48.2987 322.153 48.2987 322.08C48.372 321.86 48.372 321.603 48.2987 321.31C48.2987 321.017 48.2987 320.76 48.2987 320.54C48.2987 320.467 48.2987 320.393 48.2987 320.32C48.2987 320.173 48.2987 320.063 48.2987 319.99L48.9587 321.31C48.9587 321.163 49.032 321.09 49.1787 321.09C49.1053 320.87 49.142 320.687 49.2887 320.54C49.5087 320.32 49.5453 320.027 49.3987 319.66C49.3253 319.44 49.362 319.22 49.5087 319C49.6553 318.78 49.7653 318.56 49.8387 318.34C49.8387 317.753 49.8387 317.203 49.8387 316.69C49.912 316.177 49.9853 315.663 50.0587 315.15C50.0587 315.003 50.0587 314.857 50.0587 314.71C50.132 314.49 50.1687 314.343 50.1687 314.27C50.242 313.903 50.2787 313.61 50.2787 313.39C50.352 313.097 50.2787 312.84 50.0587 312.62C49.912 312.4 49.8387 311.997 49.8387 311.41C49.7653 311.263 49.7287 311.117 49.7287 310.97C49.7287 310.75 49.692 310.567 49.6187 310.42C49.472 310.053 49.5453 309.723 49.8387 309.43C50.0587 308.99 50.2053 308.623 50.2787 308.33L50.7187 307.56C50.8653 307.487 50.9753 307.413 51.0487 307.34C51.122 307.193 51.0853 307.083 50.9387 307.01C50.7187 306.79 50.6453 306.533 50.7187 306.24C50.9387 305.947 51.122 305.653 51.2687 305.36C51.4887 304.993 51.5987 304.663 51.5987 304.37C51.672 304.077 51.7453 303.82 51.8187 303.6C51.892 303.307 51.9653 303.05 52.0387 302.83C52.0387 302.61 51.892 302.39 51.5987 302.17C51.3053 302.023 51.0487 301.767 50.8287 301.4C50.682 300.96 50.6453 300.63 50.7187 300.41L50.9387 300.3C51.3053 299.86 51.342 299.383 51.0487 298.87C51.4153 298.723 51.5987 298.503 51.5987 298.21C51.5987 297.917 51.6353 297.623 51.7087 297.33C51.7087 297.037 51.7453 296.743 51.8187 296.45C51.892 296.083 51.9653 295.753 52.0387 295.46V294.69C51.9653 294.763 51.892 294.8 51.8187 294.8C51.7453 294.8 51.7087 294.8 51.7087 294.8C50.9753 294.8 50.7187 294.507 50.9387 293.92C51.0853 293.48 51.1953 293.04 51.2687 292.6C51.4153 292.16 51.5253 291.72 51.5987 291.28C51.5987 290.62 51.5987 289.96 51.5987 289.3C51.672 288.64 51.672 288.017 51.5987 287.43C51.5253 286.99 51.452 286.55 51.3787 286.11C51.3787 285.597 51.3053 285.083 51.1587 284.57C51.0853 284.13 51.0487 283.653 51.0487 283.14C51.0487 282.627 51.012 282.113 50.9387 281.6V281.49C50.6453 280.903 50.462 280.353 50.3887 279.84C50.3887 279.253 50.3153 278.703 50.1687 278.19C50.0953 278.117 50.0587 278.043 50.0587 277.97C50.0587 277.897 49.9853 277.823 49.8387 277.75C49.7653 277.603 49.7287 277.493 49.7287 277.42C49.802 277.347 49.8387 277.273 49.8387 277.2C49.9853 276.98 50.0587 276.687 50.0587 276.32C50.0587 275.953 50.0587 275.587 50.0587 275.22C50.0587 274.853 49.8387 274.523 49.3987 274.23C49.3987 274.157 49.362 274.083 49.2887 274.01C49.2153 273.643 49.3253 273.46 49.6187 273.46V272.36C49.472 272.507 49.3253 272.58 49.1787 272.58C48.9587 272.213 48.8487 271.847 48.8487 271.48C48.8487 271.407 48.8487 271.297 48.8487 271.15C48.8487 270.93 48.812 270.747 48.7387 270.6C48.7387 270.527 48.702 270.49 48.6287 270.49C48.5553 270.417 48.482 270.343 48.4087 270.27C48.3353 270.417 48.2987 270.563 48.2987 270.71C48.2253 270.71 48.152 270.747 48.0787 270.82C48.0787 270.893 48.042 270.93 47.9687 270.93C47.9687 270.93 47.932 270.93 47.8587 270.93C47.8587 270.857 47.7853 270.783 47.6387 270.71C47.5653 270.563 47.4187 270.417 47.1987 270.27C47.052 270.123 46.9053 269.977 46.7587 269.83L46.9787 269.72C47.3453 269.72 47.6753 269.83 47.9687 270.05C48.042 270.05 48.1153 270.05 48.1887 270.05C48.262 270.05 48.3353 270.05 48.4087 270.05V269.61C48.4087 269.61 48.372 269.61 48.2987 269.61C48.2987 269.537 48.2987 269.463 48.2987 269.39C48.0053 269.243 47.8953 269.17 47.9687 269.17C47.9687 269.023 48.042 268.913 48.1887 268.84C48.3353 268.693 48.4453 268.547 48.5187 268.4H47.9687C47.4553 268.4 47.1987 268.217 47.1987 267.85C47.1987 267.63 47.272 267.52 47.4187 267.52C47.6387 267.373 47.8587 267.263 48.0787 267.19C48.2987 267.043 48.5187 266.897 48.7387 266.75C49.252 267.41 49.7653 267.337 50.2787 266.53C50.572 266.677 50.7187 266.75 50.7187 266.75H50.9387C50.8653 266.603 50.792 266.457 50.7187 266.31C50.7187 266.163 50.682 266.017 50.6087 265.87H51.0487C51.782 265.87 51.9653 265.687 51.5987 265.32C51.5253 265.027 51.562 264.843 51.7087 264.77C51.9287 264.623 52.1487 264.513 52.3687 264.44C52.5887 264.367 52.8087 264.257 53.0287 264.11C53.4687 263.67 53.872 263.78 54.2387 264.44C54.2387 264.513 54.3487 264.55 54.5687 264.55C55.082 264.623 55.5587 264.843 55.9987 265.21C56.4387 265.503 56.9153 265.723 57.4287 265.87C57.5753 265.87 57.6487 265.943 57.6487 266.09C57.722 266.163 57.722 266.237 57.6487 266.31C57.6487 266.897 57.7587 267.593 57.9787 268.4C57.9787 268.767 58.1253 269.023 58.4187 269.17H58.6387C58.8587 269.463 59.042 269.793 59.1887 270.16C59.3353 270.453 59.5187 270.783 59.7387 271.15L60.0687 271.48C60.4353 271.993 60.5453 272.69 60.3987 273.57C60.3253 274.23 60.3253 274.817 60.3987 275.33C60.5453 275.77 60.6553 276.247 60.7287 276.76C60.7287 276.833 60.7653 276.943 60.8387 277.09C60.9853 277.163 61.0587 277.163 61.0587 277.09C61.132 277.09 61.2787 276.98 61.4987 276.76C61.4987 276.907 61.572 277.017 61.7187 277.09C61.9387 277.163 61.9753 277.31 61.8287 277.53C61.7553 277.603 61.682 277.75 61.6087 277.97C61.5353 278.19 61.462 278.373 61.3887 278.52C61.3887 278.593 61.352 278.667 61.2787 278.74C61.2053 278.813 61.1687 278.887 61.1687 278.96C61.1687 278.96 61.1687 278.997 61.1687 279.07C61.242 279.07 61.3153 279.07 61.3887 279.07C61.5353 278.997 61.6453 278.923 61.7187 278.85C61.8653 278.777 61.9753 278.703 62.0487 278.63C62.1953 278.777 62.2687 278.923 62.2687 279.07V279.62C62.1953 279.62 62.0853 279.62 61.9387 279.62C61.8653 279.62 61.7553 279.62 61.6087 279.62H61.3887C61.3153 279.693 61.242 279.767 61.1687 279.84C61.3153 280.06 61.3887 280.243 61.3887 280.39C61.3887 280.537 61.3887 280.683 61.3887 280.83C61.3887 281.197 61.3887 281.563 61.3887 281.93C61.462 282.297 61.4987 282.627 61.4987 282.92C61.4987 283.213 61.4987 283.507 61.4987 283.8C61.4987 284.02 61.5353 284.277 61.6087 284.57C61.8287 285.083 61.7553 285.523 61.3887 285.89C61.3153 285.963 61.2787 286.11 61.2787 286.33C61.352 286.55 61.3887 286.77 61.3887 286.99C61.242 287.21 61.1687 287.503 61.1687 287.87V289.3C61.1687 289.667 61.022 289.85 60.7287 289.85C60.8753 289.923 60.9487 290.033 60.9487 290.18C61.022 290.253 61.0953 290.327 61.1687 290.4C61.3887 290.62 61.4987 290.877 61.4987 291.17C61.4253 291.537 61.3887 291.867 61.3887 292.16C61.3887 292.453 61.3887 292.82 61.3887 293.26C61.3887 293.333 61.352 293.443 61.2787 293.59C61.2053 293.663 61.1687 293.773 61.1687 293.92C61.1687 293.92 61.132 293.957 61.0587 294.03C61.0587 294.103 61.0587 294.177 61.0587 294.25L60.9487 296.12C60.802 296.34 60.6553 296.67 60.5087 297.11C60.5087 297.183 60.4353 297.22 60.2887 297.22C60.2153 297.147 60.1053 297.147 59.9587 297.22C59.9587 297.22 59.8853 297.22 59.7387 297.22C59.6653 297.22 59.6287 297.22 59.6287 297.22V297.66C59.7753 297.733 59.922 297.843 60.0687 297.99C60.2153 298.063 60.362 298.137 60.5087 298.21C60.6553 298.21 60.802 298.173 60.9487 298.1C61.022 297.953 61.0953 297.77 61.1687 297.55C61.242 297.33 61.3153 297.11 61.3887 296.89C61.462 296.743 61.4987 296.597 61.4987 296.45C61.4987 296.303 61.5353 296.193 61.6087 296.12C61.9753 295.9 62.0853 295.57 61.9387 295.13C61.9387 295.13 61.9387 295.093 61.9387 295.02C61.9387 294.947 61.9753 294.873 62.0487 294.8C62.2687 295.02 62.3787 295.167 62.3787 295.24C62.3053 295.533 62.2687 295.827 62.2687 296.12C62.2687 296.34 62.1953 296.597 62.0487 296.89C61.9753 297.037 61.8653 297.183 61.7187 297.33C61.6453 297.403 61.6087 297.513 61.6087 297.66C61.7553 297.953 61.7187 298.247 61.4987 298.54C61.352 298.76 61.3153 299.09 61.3887 299.53C61.462 299.823 61.4987 300.153 61.4987 300.52C61.4987 300.813 61.5353 301.143 61.6087 301.51H61.1687C60.9487 301.143 60.912 300.777 61.0587 300.41C61.2053 300.043 61.1687 299.713 60.9487 299.42H60.7287C60.7287 299.493 60.692 299.603 60.6187 299.75C60.6187 299.823 60.6187 299.897 60.6187 299.97H59.9587C59.812 300.263 59.592 300.557 59.2987 300.85C59.0787 301.143 59.0053 301.51 59.0787 301.95L59.1887 302.06C59.262 301.987 59.3353 301.913 59.4087 301.84C59.5553 301.693 59.6653 301.583 59.7387 301.51L59.9587 301.62C59.8853 301.693 59.812 301.767 59.7387 301.84C59.7387 301.913 59.702 301.987 59.6287 302.06C59.262 302.353 59.0787 302.683 59.0787 303.05C59.0787 303.197 59.042 303.343 58.9687 303.49C58.8953 303.563 58.8587 303.673 58.8587 303.82C58.8587 303.893 58.8953 303.967 58.9687 304.04C59.042 304.113 59.1153 304.223 59.1887 304.37C59.4087 304.077 59.6287 303.783 59.8487 303.49C60.0687 303.197 60.252 302.903 60.3987 302.61H60.5087C60.4353 302.83 60.362 303.05 60.2887 303.27C60.2153 303.417 60.142 303.6 60.0687 303.82L59.9587 303.93C59.9587 304.223 59.9587 304.59 59.9587 305.03C60.032 305.47 60.032 305.873 59.9587 306.24C59.8853 306.607 59.7753 307.01 59.6287 307.45C59.482 307.817 59.1887 308.147 58.7487 308.44C58.7487 308.44 58.712 308.477 58.6387 308.55C58.6387 308.623 58.6387 308.697 58.6387 308.77C58.5653 308.917 58.5287 309.137 58.5287 309.43C58.5287 309.65 58.4553 309.833 58.3087 309.98C58.0153 310.2 57.9053 310.42 57.9787 310.64C58.1253 310.86 58.1987 311.08 58.1987 311.3C58.272 311.447 58.272 311.63 58.1987 311.85C58.1987 311.997 58.1987 312.18 58.1987 312.4C57.9787 312.327 57.7953 312.363 57.6487 312.51C57.5753 312.583 57.5753 312.693 57.6487 312.84C57.722 313.133 57.6853 313.463 57.5387 313.83C57.4653 314.123 57.4287 314.453 57.4287 314.82C57.4287 314.967 57.4653 315.077 57.5387 315.15C57.612 315.223 57.6853 315.297 57.7587 315.37C57.9787 315.517 58.052 315.7 57.9787 315.92C57.9787 316.067 57.9787 316.25 57.9787 316.47C57.9053 316.763 57.832 317.057 57.7587 317.35C57.7587 317.57 57.722 317.863 57.6487 318.23H57.7587C57.7587 318.083 57.7953 317.937 57.8687 317.79C57.942 317.643 57.9787 317.533 57.9787 317.46C57.6853 317.02 57.832 316.947 58.4187 317.24V318.23C58.4187 318.303 58.4553 318.34 58.5287 318.34C58.602 318.34 58.6387 318.34 58.6387 318.34C58.7853 318.047 58.8587 317.79 58.8587 317.57C58.8587 317.277 58.8587 317.057 58.8587 316.91C58.8587 316.69 58.8953 316.433 58.9687 316.14C59.042 315.847 59.1153 315.59 59.1887 315.37C59.6287 315.737 59.812 316.177 59.7387 316.69C59.6653 317.203 59.6653 317.753 59.7387 318.34C59.8853 318.047 59.9953 317.863 60.0687 317.79C60.2153 317.643 60.3253 317.497 60.3987 317.35H60.5087C60.5087 317.423 60.5087 317.533 60.5087 317.68C60.5087 317.753 60.5087 317.827 60.5087 317.9V320.1C60.5087 320.393 60.3253 320.723 59.9587 321.09C59.9587 320.797 59.9587 320.54 59.9587 320.32C60.032 320.1 60.0687 319.88 60.0687 319.66C60.0687 319.513 60.032 319.367 59.9587 319.22C59.9587 319.073 59.9587 318.927 59.9587 318.78C59.812 318.78 59.6653 318.78 59.5187 318.78C59.4453 318.707 59.3353 318.67 59.1887 318.67C59.1153 318.67 59.042 318.707 58.9687 318.78C58.8953 318.78 58.8587 318.78 58.8587 318.78C58.8587 318.853 58.8953 318.89 58.9687 318.89C59.042 318.89 59.0787 318.963 59.0787 319.11C59.152 319.183 59.2987 319.22 59.5187 319.22V319.33C59.0787 319.33 58.7853 319.293 58.6387 319.22V320.54C58.712 320.76 58.7487 320.98 58.7487 321.2C58.7487 321.42 58.7487 321.64 58.7487 321.86C58.7487 322.153 58.8953 322.263 59.1887 322.19C59.4087 322.117 59.592 322.043 59.7387 321.97C59.9587 321.897 60.032 321.677 59.9587 321.31C60.1053 321.53 60.142 321.787 60.0687 322.08C59.9953 322.373 60.1053 322.593 60.3987 322.74C60.1787 322.96 60.032 323.217 59.9587 323.51C59.9587 323.803 59.9587 324.133 59.9587 324.5C59.9587 324.94 60.1053 325.307 60.3987 325.6V326.15C60.1787 326.883 60.0687 327.58 60.0687 328.24C59.9953 328.313 59.9587 328.387 59.9587 328.46C59.9587 328.533 59.8853 328.643 59.7387 328.79C59.6653 328.57 59.6287 328.387 59.6287 328.24C59.6287 328.02 59.592 327.873 59.5187 327.8C59.2987 327.507 59.0053 327.543 58.6387 327.91C58.4187 327.543 58.272 327.287 58.1987 327.14C58.1987 326.993 58.052 326.92 57.7587 326.92C57.7587 326.92 57.6487 326.993 57.4287 327.14V327.47C57.1353 328.35 56.622 328.753 55.8887 328.68C55.6687 328.68 55.4853 328.79 55.3387 329.01C55.2653 329.23 55.302 329.45 55.4487 329.67C55.5953 330.183 55.4487 330.44 55.0087 330.44C54.7153 330.513 54.5687 330.843 54.5687 331.43C54.5687 331.503 54.532 331.577 54.4587 331.65C54.3853 331.723 54.3487 331.797 54.3487 331.87C54.2753 332.09 54.1653 332.273 54.0187 332.42C53.872 332.567 53.762 332.713 53.6887 332.86C53.6153 332.933 53.5787 333.007 53.5787 333.08C53.652 333.153 53.6153 333.227 53.4687 333.3C53.4687 333.593 53.432 333.777 53.3587 333.85C53.0653 333.85 52.882 333.813 52.8087 333.74C52.5887 333.74 52.4787 333.667 52.4787 333.52C52.1853 333.153 51.9653 332.933 51.8187 332.86C51.7453 332.86 51.452 332.933 50.9387 333.08ZM52.1487 268.84C51.9287 268.4 51.5987 268.107 51.1587 267.96C50.7187 267.813 50.2787 267.667 49.8387 267.52C50.0587 267.813 50.2053 268.107 50.2787 268.4C50.4253 268.547 50.5353 268.693 50.6087 268.84C50.7553 268.913 50.8653 269.023 50.9387 269.17C51.232 269.683 51.4887 269.683 51.7087 269.17C51.8553 269.023 51.9287 268.95 51.9287 268.95C52.002 268.95 52.0753 268.913 52.1487 268.84ZM52.1487 275.55C52.0753 275.55 52.002 275.587 51.9287 275.66C51.9287 275.733 51.8553 275.77 51.7087 275.77C51.4153 275.843 51.232 276.027 51.1587 276.32C51.0853 276.613 51.1953 276.87 51.4887 277.09H51.9287C52.0753 276.65 52.1487 276.283 52.1487 275.99C52.2953 275.917 52.332 275.843 52.2587 275.77C52.1853 275.697 52.1487 275.623 52.1487 275.55ZM52.3687 286C52.3687 286 52.332 286 52.2587 286C52.1853 286 52.1487 285.963 52.1487 285.89C52.002 286.477 51.9287 286.843 51.9287 286.99C51.8553 287.063 51.892 287.21 52.0387 287.43C52.112 287.357 52.1853 287.283 52.2587 287.21C52.4053 287.137 52.4787 287.063 52.4787 286.99C52.4787 286.843 52.442 286.697 52.3687 286.55C52.3687 286.33 52.3687 286.147 52.3687 286ZM60.5087 292.49H60.1787C60.1053 292.71 60.0687 292.93 60.0687 293.15C60.0687 293.37 60.032 293.553 59.9587 293.7H60.0687C60.142 293.553 60.252 293.407 60.3987 293.26C60.6187 293.04 60.6553 292.783 60.5087 292.49ZM50.6087 274.01C50.682 273.937 50.7187 273.827 50.7187 273.68V273.57C50.6453 273.423 50.4987 273.313 50.2787 273.24C50.132 273.167 50.0953 273.02 50.1687 272.8C50.1687 272.727 50.0587 272.69 49.8387 272.69V272.8C50.0587 273.167 50.3153 273.57 50.6087 274.01ZM52.4787 273.68C52.4053 274.34 52.552 274.743 52.9187 274.89C52.8453 274.743 52.772 274.597 52.6987 274.45C52.6253 274.23 52.552 273.973 52.4787 273.68ZM61.0587 304.15C61.2787 304.443 61.352 304.773 61.2787 305.14C61.2053 305.507 61.0953 305.837 60.9487 306.13C60.8753 306.35 60.802 306.57 60.7287 306.79C60.6553 307.01 60.582 307.23 60.5087 307.45L60.6187 308C60.6187 308.367 60.6187 308.733 60.6187 309.1C60.6187 309.393 60.5453 309.723 60.3987 310.09C60.252 310.237 60.1787 310.347 60.1787 310.42V311.85C59.8853 311.557 59.6653 311.41 59.5187 311.41C59.592 311.19 59.6653 310.97 59.7387 310.75C59.8853 310.53 59.9587 310.273 59.9587 309.98C60.1053 309.173 60.252 308.33 60.3987 307.45C60.6187 306.57 60.692 305.653 60.6187 304.7C60.5453 304.627 60.6553 304.443 60.9487 304.15H61.0587ZM58.7487 311.63C58.822 311.777 58.8953 311.96 58.9687 312.18C59.042 312.327 59.1153 312.51 59.1887 312.73C59.262 312.583 59.3353 312.473 59.4087 312.4C59.482 312.327 59.5187 312.253 59.5187 312.18C59.592 312.18 59.6653 312.217 59.7387 312.29C59.6653 312.363 59.592 312.437 59.5187 312.51C59.5187 312.583 59.4453 312.693 59.2987 312.84C59.2987 312.913 59.262 312.987 59.1887 313.06C59.1153 313.06 59.0787 313.097 59.0787 313.17C59.0787 313.463 59.042 313.757 58.9687 314.05C58.8953 314.343 58.8587 314.637 58.8587 314.93C58.712 315.223 58.6387 315.37 58.6387 315.37C58.3453 314.71 58.272 314.087 58.4187 313.5C58.6387 312.913 58.7487 312.29 58.7487 311.63ZM62.3787 286.55C62.452 286.183 62.4887 285.817 62.4887 285.45C62.562 285.01 62.6353 284.607 62.7087 284.24C63.002 284.387 62.892 285.157 62.3787 286.55ZM60.7287 311.85C60.7287 312.07 60.7287 312.29 60.7287 312.51C60.7287 312.657 60.7287 312.803 60.7287 312.95L60.6187 313.06C60.5453 312.987 60.5087 312.913 60.5087 312.84C60.5087 312.693 60.5087 312.547 60.5087 312.4C60.5087 312.253 60.5453 312.07 60.6187 311.85H60.7287ZM62.2687 281.27C62.4887 281.783 62.4153 282.223 62.0487 282.59C62.1953 282.37 62.2687 282.15 62.2687 281.93C62.2687 281.71 62.2687 281.49 62.2687 281.27ZM62.7087 283.25C62.6353 283.323 62.5987 283.433 62.5987 283.58C62.672 283.727 62.5987 283.8 62.3787 283.8C62.1587 283.58 62.0853 283.47 62.1587 283.47C62.232 283.397 62.4153 283.323 62.7087 283.25ZM60.3987 300.52C60.5453 300.74 60.582 300.85 60.5087 300.85C60.5087 300.997 60.3987 301.143 60.1787 301.29C60.1787 301.217 60.142 301.143 60.0687 301.07C60.0687 300.997 60.0687 300.923 60.0687 300.85L60.3987 300.52ZM16.0687 320.43L15.6287 319.77C16.0687 319.77 16.2153 319.99 16.0687 320.43ZM50.2095 396.72C50.0628 396.353 49.9528 396.023 49.8795 395.73C49.8795 395.437 49.8795 395.143 49.8795 394.85C49.0728 394.557 48.8895 394.043 49.3295 393.31C49.5495 393.09 49.6595 392.833 49.6595 392.54C49.5128 392.247 49.4762 391.99 49.5495 391.77C49.6962 391.477 49.8062 391.183 49.8795 390.89C50.3195 390.597 50.4295 390.157 50.2095 389.57V389.35C50.4295 388.763 50.6495 388.213 50.8695 387.7C51.1628 387.113 51.4562 386.49 51.7495 385.83H53.0695C53.0695 385.683 53.0695 385.5 53.0695 385.28C53.1428 385.06 53.2528 384.913 53.3995 384.84C53.5462 384.84 53.6562 384.877 53.7295 384.95C53.8762 385.023 54.0962 385.06 54.3895 385.06C54.3895 384.693 54.3162 384.51 54.1695 384.51C54.0228 384.217 53.9128 383.997 53.8395 383.85C53.7662 383.703 53.8762 383.483 54.1695 383.19C54.3162 383.19 54.4262 383.263 54.4995 383.41C54.6462 383.557 54.7195 383.557 54.7195 383.41C55.0128 383.41 55.2695 383.337 55.4895 383.19C55.7828 382.97 56.1495 382.787 56.5895 382.64C56.9562 383.153 57.4695 383.153 58.1295 382.64C58.4962 382.64 58.7528 382.75 58.8995 382.97C59.3395 383.19 59.7428 383.337 60.1095 383.41C60.5495 383.41 61.0262 383.41 61.5395 383.41C61.8328 383.557 62.0895 383.667 62.3095 383.74C62.6028 383.74 62.8962 383.813 63.1895 383.96C64.0695 384.4 65.0595 384.84 66.1595 385.28C66.3062 385.427 66.4162 385.537 66.4895 385.61C66.6362 385.61 66.7828 385.683 66.9295 385.83C67.5162 386.197 67.5162 386.563 66.9295 386.93C65.7562 387.59 65.0228 388.653 64.7295 390.12C64.6562 390.487 64.5462 390.927 64.3995 391.44C64.3262 391.953 64.1062 392.467 63.7395 392.98C63.5928 393.127 63.4828 393.383 63.4095 393.75C63.4095 394.043 63.4095 394.337 63.4095 394.63C63.3362 395.657 63.0795 396.683 62.6395 397.71C62.2728 398.663 62.0895 399.653 62.0895 400.68C62.0162 400.973 61.9062 401.267 61.7595 401.56C61.6128 401.78 61.5395 402.037 61.5395 402.33C61.4662 402.697 61.3195 403.137 61.0995 403.65C60.9528 404.163 60.9528 404.603 61.0995 404.97C61.3195 405.41 61.3195 405.777 61.0995 406.07C60.5862 406.583 60.2562 407.133 60.1095 407.72C59.9628 408.307 59.7428 408.893 59.4495 409.48C59.3028 409.7 59.2295 410.14 59.2295 410.8C59.2295 410.287 59.1562 409.737 59.0095 409.15C58.9362 408.49 58.8995 407.903 58.8995 407.39H58.6795C58.5328 407.537 58.4595 407.793 58.4595 408.16C58.3128 408.82 58.2028 409.443 58.1295 410.03C58.0562 410.543 57.8728 411.057 57.5795 411.57V412.45C57.5795 412.963 57.5795 413.44 57.5795 413.88C57.5795 414.32 57.5062 414.723 57.3595 415.09V417.18C57.3595 417.693 57.2862 418.207 57.1395 418.72C57.0662 419.233 56.9562 419.71 56.8095 420.15C56.8095 420.223 56.8095 420.333 56.8095 420.48C56.8095 420.627 56.8095 420.773 56.8095 420.92V424.33C56.4428 424.843 56.2962 425.393 56.3695 425.98C56.5162 426.567 56.5895 427.19 56.5895 427.85C56.5895 428.217 56.5528 428.473 56.4795 428.62C56.4062 428.767 56.1495 429.023 55.7095 429.39V426.75C55.8562 425.797 55.9662 424.88 56.0395 424C56.1128 423.047 56.1862 422.093 56.2595 421.14C56.2595 420.26 56.0762 419.197 55.7095 417.95C55.1962 418.097 54.9028 418.28 54.8295 418.5C54.7562 418.647 54.7195 418.903 54.7195 419.27C54.9395 420.59 54.7562 421.947 54.1695 423.34C54.0228 423.853 53.9128 424.44 53.8395 425.1C53.7662 425.687 53.7662 426.31 53.8395 426.97C53.8395 427.557 53.7662 428.033 53.6195 428.4C52.9595 429.06 52.6295 429.72 52.6295 430.38C52.7028 431.04 52.9595 431.773 53.3995 432.58C53.6195 432.433 53.8395 432.36 54.0595 432.36C54.3528 432.287 54.6462 432.177 54.9395 432.03C54.9395 431.15 55.3795 430.71 56.2595 430.71C56.2595 431.003 56.2595 431.333 56.2595 431.7C56.2595 431.993 56.1862 432.287 56.0395 432.58V433.68C56.0395 433.973 56.0395 434.23 56.0395 434.45C56.1128 434.67 56.0028 434.853 55.7095 435C55.6362 435 55.5628 435.11 55.4895 435.33C55.4895 435.477 55.4895 435.623 55.4895 435.77C55.4162 436.063 55.3062 436.357 55.1595 436.65C55.0128 436.87 54.8662 437.127 54.7195 437.42V439.29C54.5728 439.363 54.3895 439.583 54.1695 439.95C53.9495 440.317 53.8395 440.683 53.8395 441.05C54.5728 441.49 55.1962 441.6 55.7095 441.38C55.8562 441.453 56.0028 441.637 56.1495 441.93C56.2962 442.15 56.4428 442.333 56.5895 442.48C56.8095 442.847 56.6995 443.177 56.2595 443.47C55.0862 443.983 55.0128 444.607 56.0395 445.34C56.1862 445.34 56.3328 445.413 56.4795 445.56C56.6262 445.633 56.7362 445.67 56.8095 445.67C56.5162 446.037 56.5162 446.367 56.8095 446.66C57.1028 447.027 57.1762 447.393 57.0295 447.76L56.8095 447.43C56.7362 447.43 56.6628 447.467 56.5895 447.54C56.5162 447.687 56.4062 447.76 56.2595 447.76V449.3C55.7462 448.933 55.4528 448.64 55.3795 448.42C55.3795 448.273 55.4162 447.943 55.4895 447.43C55.4895 447.21 55.4528 446.953 55.3795 446.66C55.3795 446.44 55.2328 446.257 54.9395 446.11C54.7928 445.963 54.6095 445.817 54.3895 445.67C54.3162 445.67 54.2428 445.707 54.1695 445.78C54.1695 445.853 54.1695 445.89 54.1695 445.89C53.7295 446.33 53.2895 446.33 52.8495 445.89C52.8495 445.743 52.6662 445.487 52.2995 445.12C51.7862 445.413 51.6395 445.707 51.8595 446C52.1528 446.367 52.1162 446.697 51.7495 446.99C51.6762 446.843 51.5662 446.697 51.4195 446.55C51.2728 446.403 51.1262 446.257 50.9795 446.11C50.6862 446.11 50.3928 446.183 50.0995 446.33C49.8795 446.55 49.6228 446.66 49.3295 446.66C48.6695 446.807 48.1928 446.697 47.8995 446.33C47.6795 446.037 47.5695 445.633 47.5695 445.12H46.4695C47.0562 444.533 47.4228 444.24 47.5695 444.24C47.4228 444.093 47.2762 443.983 47.1295 443.91C47.0562 443.837 47.0195 443.8 47.0195 443.8C47.1662 443.507 47.1662 443.213 47.0195 442.92C46.8728 442.553 46.9462 442.223 47.2395 441.93C47.3862 441.49 47.4595 441.087 47.4595 440.72C47.5328 440.28 47.5695 439.803 47.5695 439.29C47.5695 438.997 47.5328 438.667 47.4595 438.3C47.4595 437.86 47.3862 437.457 47.2395 437.09C47.2395 436.723 47.1662 436.467 47.0195 436.32C46.6528 436.173 46.4695 435.807 46.4695 435.22C46.6162 434.707 46.6528 434.193 46.5795 433.68C46.5795 433.093 46.6162 432.543 46.6895 432.03C46.8362 431.81 46.8728 431.48 46.7995 431.04C46.7262 430.527 46.6895 430.087 46.6895 429.72C46.6895 429.427 46.6895 429.17 46.6895 428.95C46.7628 428.657 46.8728 428.363 47.0195 428.07C47.0195 428.437 47.2028 428.803 47.5695 429.17C47.5695 428.877 47.6062 428.583 47.6795 428.29C47.7528 427.923 47.9728 427.667 48.3395 427.52C48.4862 427.813 48.4862 428.18 48.3395 428.62C48.1928 429.06 48.4495 429.243 49.1095 429.17C49.6228 430.05 49.4395 430.673 48.5595 431.04C48.0462 431.26 47.9728 431.59 48.3395 432.03C48.7062 432.47 48.8895 432.8 48.8895 433.02C48.9628 433.24 48.8528 433.533 48.5595 433.9C48.3395 434.193 48.3395 434.487 48.5595 434.78C48.5595 435.147 48.6328 435.55 48.7795 435.99C48.9262 436.357 49.0362 436.723 49.1095 437.09C48.5962 437.383 48.3395 437.787 48.3395 438.3C48.3395 438.813 48.3395 439.4 48.3395 440.06V441.38C48.3395 441.527 48.4128 441.71 48.5595 441.93C48.9262 441.93 49.1095 441.82 49.1095 441.6C49.2562 441.453 49.3295 441.27 49.3295 441.05C49.4028 440.83 49.5128 440.573 49.6595 440.28C49.9528 440.647 50.0262 441.05 49.8795 441.49C49.7328 441.857 49.6595 442.187 49.6595 442.48C49.2928 443.287 49.0362 443.983 48.8895 444.57C49.2562 444.863 49.5128 444.79 49.6595 444.35C49.8795 443.837 50.1362 443.727 50.4295 444.02C50.7228 443.727 50.9428 443.47 51.0895 443.25C51.2362 442.957 51.3828 442.7 51.5295 442.48C51.6762 442.48 51.8228 442.517 51.9695 442.59C52.1895 442.663 52.2995 442.7 52.2995 442.7C52.4462 442.553 52.5195 442.297 52.5195 441.93C52.4462 441.27 52.4095 440.573 52.4095 439.84C52.4095 439.033 52.2995 438.373 52.0795 437.86C51.8595 437.567 51.7495 437.127 51.7495 436.54C51.4562 437.053 51.3828 437.64 51.5295 438.3C51.6762 438.96 51.6762 439.62 51.5295 440.28C51.1628 440.06 50.9795 439.877 50.9795 439.73C50.8328 439.51 50.7228 439.29 50.6495 439.07C50.6495 438.777 50.6495 438.483 50.6495 438.19C50.6495 437.823 50.6128 437.493 50.5395 437.2C50.4662 436.833 50.3562 436.467 50.2095 436.1C50.2095 436.1 50.1362 436.063 49.9895 435.99C49.9162 435.843 49.8062 435.77 49.6595 435.77V435.55C50.3195 434.743 50.5762 433.937 50.4295 433.13C50.3562 432.323 50.3562 431.517 50.4295 430.71C50.4295 430.417 50.3928 430.16 50.3195 429.94C50.2462 429.72 50.2095 429.463 50.2095 429.17C50.2095 428.803 50.1728 428.4 50.0995 427.96C50.0995 427.52 49.9528 427.117 49.6595 426.75C49.6595 426.603 49.6595 426.42 49.6595 426.2C49.6595 425.98 49.6595 425.797 49.6595 425.65V424.66C49.3662 424.733 49.1462 424.88 48.9995 425.1C48.8528 425.32 48.6328 425.503 48.3395 425.65V424.88C48.3395 424.587 48.3395 424.257 48.3395 423.89C48.4128 423.523 48.3028 423.157 48.0095 422.79C48.0095 422.79 48.0095 422.68 48.0095 422.46C48.0828 422.24 48.1928 421.983 48.3395 421.69C48.4862 421.177 48.5962 420.663 48.6695 420.15C48.8162 419.563 48.8895 419.013 48.8895 418.5C49.0362 418.353 49.1095 417.913 49.1095 417.18C48.5962 417.033 48.2662 416.997 48.1195 417.07C47.9728 417.143 47.7895 417.437 47.5695 417.95C47.5695 417.437 47.6062 416.923 47.6795 416.41C47.7528 415.897 47.5328 415.457 47.0195 415.09C46.8728 415.163 46.7262 415.31 46.5795 415.53C46.4328 415.677 46.2128 415.86 45.9195 416.08C46.0662 415.42 46.1395 414.833 46.1395 414.32C46.2128 413.733 46.3228 413.183 46.4695 412.67C46.1762 412.817 45.9562 413.037 45.8095 413.33C45.6628 413.623 45.5162 413.843 45.3695 413.99C45.0028 414.503 44.6728 415.017 44.3795 415.53C44.1595 415.97 44.0495 416.52 44.0495 417.18C44.0495 417.547 43.7928 417.987 43.2795 418.5C42.9128 419.013 42.5828 419.6 42.2895 420.26C42.0695 420.92 41.7762 421.58 41.4095 422.24C41.3362 422.607 41.0062 423.23 40.4195 424.11C39.9062 424.99 39.5395 425.613 39.3195 425.98C39.1728 426.053 39.0262 426.163 38.8795 426.31C38.8062 426.457 38.7695 426.53 38.7695 426.53C38.7695 427.043 38.7695 427.52 38.7695 427.96C38.8428 428.4 39.0262 428.803 39.3195 429.17C39.3195 429.537 39.2462 429.867 39.0995 430.16C39.0262 430.453 38.9162 430.747 38.7695 431.04C38.7695 431.627 38.5128 432.25 37.9995 432.91C37.4128 433.13 37.1195 433.57 37.1195 434.23C37.0462 434.89 36.8262 435.44 36.4595 435.88C36.1662 436.32 35.8728 436.833 35.5795 437.42C35.0662 438.373 34.4428 439.217 33.7095 439.95C32.9762 440.61 32.2795 441.343 31.6195 442.15C31.3262 442.443 31.0328 442.737 30.7395 443.03C30.4462 443.25 30.1162 443.507 29.7495 443.8C29.4562 444.167 29.1262 444.46 28.7595 444.68C28.3928 444.827 27.9162 444.973 27.3295 445.12C26.8162 445.193 26.3395 445.377 25.8995 445.67C25.4595 445.89 24.9462 446.147 24.3595 446.44C23.9928 446.513 23.5895 446.66 23.1495 446.88C22.7828 447.173 22.4162 447.467 22.0495 447.76C21.7562 447.467 21.4995 447.173 21.2795 446.88C21.0595 446.587 20.8762 446.257 20.7295 445.89C20.4362 445.303 20.1428 444.827 19.8495 444.46C19.6295 444.02 19.3728 443.617 19.0795 443.25C18.7862 442.957 18.5662 442.663 18.4195 442.37C18.2728 442.003 18.1262 441.673 17.9795 441.38C17.8328 441.38 17.7595 441.197 17.7595 440.83C17.9062 439.803 17.8695 438.813 17.6495 437.86C17.5028 436.833 17.3562 435.807 17.2095 434.78C17.1362 434.047 17.0628 433.35 16.9895 432.69C16.9895 431.957 16.9895 431.223 16.9895 430.49C16.8428 429.83 16.7695 429.17 16.7695 428.51C16.8428 427.777 16.8062 427.007 16.6595 426.2C16.5862 425.247 16.5495 424.293 16.5495 423.34C16.6228 422.387 16.6595 421.397 16.6595 420.37V417.18C16.6595 416.52 16.6962 415.897 16.7695 415.31C16.9162 414.723 16.9895 414.1 16.9895 413.44C16.9895 412.633 16.9895 411.827 16.9895 411.02C17.0628 410.213 17.1362 409.443 17.2095 408.71C17.3562 406.73 17.5028 404.75 17.6495 402.77C17.7962 400.717 17.9062 398.7 17.9795 396.72C18.1262 395.4 18.2728 394.153 18.4195 392.98C18.5662 391.733 18.7128 390.523 18.8595 389.35C18.8595 389.057 18.7862 388.763 18.6395 388.47C18.5662 388.103 18.5295 387.773 18.5295 387.48C18.5295 387.04 18.4562 386.637 18.3095 386.27C18.1628 385.83 18.2362 385.427 18.5295 385.06C18.6762 385.06 18.8228 385.06 18.9695 385.06C19.1162 385.06 19.2628 385.06 19.4095 385.06V383.96C19.6295 383.96 19.9228 383.887 20.2895 383.74C20.6562 383.52 20.9495 383.41 21.1695 383.41C21.3162 383.41 21.4995 383.483 21.7195 383.63C22.0128 383.703 22.1962 383.74 22.2695 383.74C22.9295 384.107 23.4062 384.29 23.6995 384.29C23.9928 384.217 24.3962 383.923 24.9095 383.41C26.0095 383.85 27.0728 384.217 28.0995 384.51C29.1995 384.73 30.2628 385.17 31.2895 385.83C31.5828 386.123 31.8762 386.343 32.1695 386.49C32.5362 386.637 32.8662 386.857 33.1595 387.15C33.5262 387.517 33.7095 387.7 33.7095 387.7C34.2962 387.847 34.6995 388.103 34.9195 388.47C35.2128 388.837 35.5062 389.203 35.7995 389.57C35.5062 390.377 35.1762 390.633 34.8095 390.34C34.3695 390.047 34.0028 390.047 33.7095 390.34C33.4895 390.633 33.2328 390.927 32.9395 391.22C32.4262 391.587 32.0595 392.027 31.8395 392.54C31.6928 393.053 31.6195 393.64 31.6195 394.3V394.63C31.3262 395.363 31.0695 396.133 30.8495 396.94C30.6295 397.747 30.4462 398.553 30.2995 399.36C30.1528 399.8 30.0062 400.167 29.8595 400.46C29.7862 400.753 29.7495 401.12 29.7495 401.56C29.6028 402.733 29.3828 403.907 29.0895 405.08C28.7962 406.253 28.6495 407.463 28.6495 408.71C28.6495 410.323 28.5028 411.937 28.2095 413.55C27.9162 415.09 27.6962 416.667 27.5495 418.28C27.5495 419.453 27.5128 420.627 27.4395 421.8C27.3662 422.973 27.3295 424.183 27.3295 425.43V426.53C27.2562 427.043 27.1828 427.593 27.1095 428.18C27.1095 428.767 27.1095 429.353 27.1095 429.94C27.1095 430.233 27.0362 430.563 26.8895 430.93C26.8162 431.223 26.7795 431.517 26.7795 431.81C26.7062 431.15 26.5962 430.453 26.4495 429.72C26.3028 428.913 26.2295 428.18 26.2295 427.52C26.1562 426.713 26.0462 425.943 25.8995 425.21C25.8262 424.403 25.7895 423.67 25.7895 423.01C25.6428 422.717 25.5328 422.497 25.4595 422.35C25.3862 422.203 25.2028 422.093 24.9095 422.02C24.6162 422.387 24.5795 422.68 24.7995 422.9C25.0928 423.047 25.2395 423.267 25.2395 423.56C24.9462 423.853 24.6895 424.183 24.4695 424.55C24.2495 424.917 24.1395 425.283 24.1395 425.65C24.0662 425.943 24.0662 426.237 24.1395 426.53C24.2128 426.823 24.2862 427.153 24.3595 427.52C24.2862 427.813 24.1762 428.107 24.0295 428.4C23.8828 428.62 23.9928 428.877 24.3595 429.17V429.72C24.2862 430.673 24.2128 431.59 24.1395 432.47C24.1395 433.35 24.0662 434.267 23.9195 435.22C23.9195 435.367 23.9562 435.55 24.0295 435.77C24.1028 435.99 24.1395 436.173 24.1395 436.32C24.2862 436.98 24.3595 437.64 24.3595 438.3C24.4328 438.96 24.5428 439.62 24.6895 440.28C25.3495 439.987 25.9362 439.73 26.4495 439.51C27.0362 439.29 27.5128 438.923 27.8795 438.41C28.2462 437.897 28.7228 437.383 29.3095 436.87C29.9695 436.283 30.5562 435.733 31.0695 435.22C31.3628 435.22 31.6195 434.963 31.8395 434.45C32.1328 433.717 32.4995 433.277 32.9395 433.13C33.3062 432.763 33.4895 432.397 33.4895 432.03C33.3428 431.663 33.3795 431.37 33.5995 431.15C33.8928 430.93 34.1128 430.6 34.2595 430.16C34.4062 430.453 34.4795 430.673 34.4795 430.82C34.4795 430.967 34.4795 431.113 34.4795 431.26C34.9928 431.26 35.2495 431.077 35.2495 430.71C35.3962 430.417 35.4695 430.16 35.4695 429.94C35.5428 429.72 35.5795 429.537 35.5795 429.39C35.3595 428.95 35.5428 428.437 36.1295 427.85C36.1295 428.143 36.1295 428.363 36.1295 428.51C36.1295 428.583 36.1295 428.693 36.1295 428.84H36.6795C36.8262 428.473 37.0095 428.107 37.2295 427.74C37.4495 427.3 37.5962 426.897 37.6695 426.53C37.8162 426.237 37.9262 426.053 37.9995 425.98C38.1462 425.833 38.4028 425.833 38.7695 425.98V424.88C38.7695 424.733 38.8062 424.623 38.8795 424.55C38.9528 424.403 38.9895 424.33 38.9895 424.33C39.5762 424.11 39.9062 423.817 39.9795 423.45C40.1262 423.01 40.2362 422.607 40.3095 422.24C40.4562 421.947 40.5662 421.69 40.6395 421.47C40.7128 421.177 40.8962 420.92 41.1895 420.7C41.8495 419.967 42.1795 418.903 42.1795 417.51C43.0595 417.143 43.4995 416.593 43.4995 415.86C43.4995 415.567 43.5728 415.347 43.7195 415.2C43.8662 415.053 43.9762 414.907 44.0495 414.76C44.6362 414.247 44.9662 413.66 45.0395 413C45.1862 412.267 45.2962 411.643 45.3695 411.13C45.5162 410.47 45.7362 409.81 46.0295 409.15C46.3962 408.417 46.7262 407.72 47.0195 407.06C47.0195 406.913 47.0562 406.73 47.1295 406.51C47.2028 406.29 47.2395 406.143 47.2395 406.07C47.2395 405.63 47.3128 405.227 47.4595 404.86C47.6062 404.493 47.7162 404.163 47.7895 403.87C47.9362 403.65 48.0095 403.43 48.0095 403.21C48.0828 402.917 48.1928 402.623 48.3395 402.33C48.3395 401.963 48.4128 401.78 48.5595 401.78C48.5595 401.633 48.5962 401.523 48.6695 401.45C48.8162 401.303 48.8895 401.23 48.8895 401.23C48.5962 400.863 48.5228 400.497 48.6695 400.13C48.8895 399.763 49.1095 399.433 49.3295 399.14V398.37C49.3295 397.637 49.6228 397.087 50.2095 396.72ZM54.7195 410.8C55.0128 410.653 55.2328 410.507 55.3795 410.36C55.5262 410.14 55.7462 410.03 56.0395 410.03C56.5528 409.81 56.8095 409.443 56.8095 408.93C56.8095 408.637 56.8462 408.417 56.9195 408.27C56.9928 408.123 57.0295 407.903 57.0295 407.61C57.3228 406.95 57.4695 406.29 57.4695 405.63C57.5428 404.897 57.5795 404.163 57.5795 403.43C57.5795 403.21 57.5062 403.027 57.3595 402.88C57.2128 403.54 57.0295 404.127 56.8095 404.64C56.6628 405.153 56.2962 405.703 55.7095 406.29C55.7095 406.29 55.7095 406.327 55.7095 406.4C55.7095 406.4 55.7095 406.473 55.7095 406.62V408.93C55.1962 409.077 54.9028 409.333 54.8295 409.7C54.7562 410.067 54.7195 410.433 54.7195 410.8ZM55.2695 433.9C54.3162 434.267 53.6928 434.56 53.3995 434.78C53.3995 435.293 53.3995 435.587 53.3995 435.66C53.4728 435.733 53.6195 435.77 53.8395 435.77C54.4262 435.77 54.7928 435.66 54.9395 435.44C55.1595 435.22 55.2695 434.707 55.2695 433.9ZM51.7495 431.81C51.1628 432.03 50.9795 432.397 51.1995 432.91C51.1995 433.277 51.1995 433.643 51.1995 434.01C51.1995 434.377 51.3828 434.707 51.7495 435C52.0428 434.413 52.1162 433.863 51.9695 433.35C51.8228 432.837 51.7495 432.323 51.7495 431.81ZM59.2295 407.06H59.4495C59.7428 406.84 59.8162 406.583 59.6695 406.29C59.5962 405.997 59.6328 405.63 59.7795 405.19H59.4495C59.3762 405.483 59.3028 405.813 59.2295 406.18C59.2295 406.547 59.2295 406.84 59.2295 407.06ZM55.7095 412.67C56.0762 411.79 56.2595 411.277 56.2595 411.13C55.7462 410.983 55.4528 411.02 55.3795 411.24C55.3795 411.387 55.4895 411.863 55.7095 412.67ZM56.2595 413.22C56.2595 413.22 56.2962 413.22 56.3695 413.22C56.5162 413.22 56.5895 413.22 56.5895 413.22V411.57C56.2962 411.863 56.1495 412.157 56.1495 412.45C56.2228 412.67 56.2595 412.927 56.2595 413.22ZM54.3895 436.54C54.2428 436.54 54.1695 436.467 54.1695 436.32L53.8395 436.54C53.8395 436.687 53.8762 436.797 53.9495 436.87C54.0962 436.87 54.1695 436.87 54.1695 436.87L54.3895 436.54ZM56.0395 416.41H55.7095C55.6362 416.41 55.5628 416.447 55.4895 416.52C55.4895 416.593 55.4895 416.63 55.4895 416.63C55.4895 416.63 55.5262 416.63 55.5995 416.63C55.6728 416.63 55.7095 416.63 55.7095 416.63L56.0395 416.41ZM59.7795 422.24C59.6328 423.56 59.5228 424.953 59.4495 426.42C59.4495 427.813 59.3762 429.243 59.2295 430.71C59.2295 430.417 59.1562 430.123 59.0095 429.83C58.9362 429.463 58.8995 429.133 58.8995 428.84C58.8995 428.62 58.8995 428.327 58.8995 427.96C58.9728 427.593 59.0828 427.263 59.2295 426.97V425.98C59.2295 425.32 59.2295 424.66 59.2295 424C59.3028 423.34 59.3762 422.753 59.4495 422.24H59.7795ZM48.8895 449.85C48.5962 449.483 48.5228 449.153 48.6695 448.86C48.8162 448.567 48.8895 448.273 48.8895 447.98C49.1095 448.347 49.4395 448.53 49.8795 448.53C50.0262 448.53 50.3928 448.347 50.9795 447.98C50.8328 448.347 50.7228 448.64 50.6495 448.86C50.6495 449.08 50.5762 449.337 50.4295 449.63C50.1362 449.63 49.8428 449.483 49.5495 449.19C49.2562 448.97 49.0362 449.19 48.8895 449.85ZM59.4495 442.92C59.5962 443.433 59.7795 443.983 59.9995 444.57C60.2195 445.157 60.1462 445.78 59.7795 446.44C59.7795 446.147 59.7428 445.89 59.6695 445.67C59.6695 445.377 59.5962 445.083 59.4495 444.79C59.4495 444.423 59.4128 444.093 59.3395 443.8C59.2662 443.507 59.2295 443.213 59.2295 442.92H59.4495ZM55.7095 438.74C55.4895 438.447 55.4162 438.19 55.4895 437.97C55.5628 437.677 55.6362 437.383 55.7095 437.09C55.7095 437.383 55.8195 437.64 56.0395 437.86C56.2595 438.007 56.1495 438.3 55.7095 438.74ZM49.8795 438.41C50.1728 438.85 50.2828 439.143 50.2095 439.29C50.1362 439.437 49.9528 439.583 49.6595 439.73C49.6595 439.437 49.7328 438.997 49.8795 438.41ZM59.9995 416.96C59.9995 417.033 59.9995 417.217 59.9995 417.51C60.0728 417.73 60.1462 417.987 60.2195 418.28C59.8528 417.987 59.6328 417.803 59.5595 417.73C59.5595 417.583 59.6328 417.327 59.7795 416.96H59.9995ZM50.9795 452.27C50.9795 452.123 50.9062 451.977 50.7595 451.83C50.6862 451.683 50.6495 451.463 50.6495 451.17H50.9795C50.9795 451.317 50.9795 451.5 50.9795 451.72C51.0528 451.94 51.1262 452.123 51.1995 452.27H50.9795ZM59.2295 441.6V440.28C59.2295 440.28 59.2662 440.28 59.3395 440.28C59.4128 440.28 59.4495 440.28 59.4495 440.28V441.38C59.4495 441.527 59.3762 441.6 59.2295 441.6ZM44.3795 420.15C44.3795 420.223 44.3062 420.333 44.1595 420.48C44.0862 420.627 44.0495 420.773 44.0495 420.92H43.8295C43.8295 420.627 44.0128 420.37 44.3795 420.15ZM58.6795 435.77C58.6795 435.623 58.7162 435.55 58.7895 435.55C58.8628 435.477 58.8995 435.367 58.8995 435.22H59.2295C59.2295 435.367 59.1562 435.513 59.0095 435.66C58.9362 435.733 58.8995 435.77 58.8995 435.77H58.6795ZM35.0295 382.42V382.09C35.0295 382.09 35.0295 382.053 35.0295 381.98C35.0295 381.907 35.0295 381.87 35.0295 381.87H35.2495C35.2495 381.87 35.2128 381.943 35.1395 382.09C35.0662 382.163 35.0295 382.273 35.0295 382.42ZM40.0895 421.47C39.9428 421.323 39.8328 421.213 39.7595 421.14C39.7595 420.993 39.7595 420.92 39.7595 420.92C39.7595 420.92 39.7962 420.883 39.8695 420.81C40.0162 420.737 40.0895 420.7 40.0895 420.7H40.3095C40.3095 420.847 40.2362 421.103 40.0895 421.47Z" fill="black"/>
</svg>
