<svg width="13" height="23" viewBox="0 0 13 23" fill="none" xmlns="http://www.w3.org/2000/svg">
<path d="M0.548431 22.4336C0.720792 22.6131 0.925853 22.7555 1.15179 22.8527C1.37772 22.9499 1.62006 23 1.86482 23C2.10958 23 2.35192 22.9499 2.57786 22.8527C2.80379 22.7555 3.00885 22.6131 3.18121 22.4336L12.4516 12.8595C12.6253 12.6815 12.7633 12.4697 12.8574 12.2364C12.9515 12.0031 13 11.7528 13 11.5C13 11.2472 12.9515 10.9969 12.8574 10.7636C12.7633 10.5303 12.6253 10.3185 12.4516 10.1405L3.18121 0.566402C3.00885 0.38693 2.80379 0.244472 2.57786 0.14726C2.35192 0.0500479 2.10958 -9.52071e-07 1.86482 -9.73468e-07C1.62006 -9.94866e-07 1.37773 0.0500478 1.15179 0.14726C0.925855 0.244471 0.720794 0.386929 0.548433 0.566401C0.374654 0.744408 0.236722 0.956187 0.142593 1.18952C0.0484648 1.42286 1.86445e-06 1.67314 1.84235e-06 1.92592C1.82026e-06 2.1787 0.0484647 2.42897 0.142593 2.66231C0.236722 2.89565 0.374654 3.10743 0.548433 3.28544L8.52094 11.5L0.548432 19.7146C0.374652 19.8926 0.23672 20.1043 0.142592 20.3377C0.0484631 20.571 1.90468e-07 20.8213 1.68369e-07 21.0741C1.46271e-07 21.3269 0.048463 21.5771 0.142592 21.8105C0.23672 22.0438 0.374652 22.2556 0.548431 22.4336Z" fill="white" fill-opacity="0.7"/>
</svg>
