<svg width="167" height="240" viewBox="0 0 167 240" fill="none" xmlns="http://www.w3.org/2000/svg">
<path d="M128.808 171.239C125.226 177.255 120.772 182.738 115.654 187.469C110.546 192.211 104.91 196.355 98.8403 199.758C97.9504 200.25 97.049 200.742 96.1439 201.242C95.2236 201.723 94.269 202.15 93.3297 202.612L91.9187 203.295L90.4698 203.902C89.5076 204.31 88.5454 204.714 87.5909 205.115C85.6399 205.802 83.7574 206.591 81.8749 207.152C80.9356 207.45 80.0304 207.785 79.1253 208.056C78.2202 208.312 77.3341 208.575 76.4784 208.838C74.4514 209.453 72.3939 209.949 70.325 210.365C68.8609 210.288 67.7238 209.926 66.986 209.304C66.5639 208.949 65.8717 208.774 65.0122 208.682C64.1489 208.552 63.1183 208.522 62.0268 208.541C61.6123 208.549 61.213 208.56 60.8289 208.568C60.4409 208.564 60.0645 208.556 59.7032 208.552C58.9768 208.552 58.3037 208.571 57.6685 208.61C56.4059 208.713 55.3144 208.751 54.3522 208.934C53.3901 209.102 52.5573 209.388 51.8119 209.712C51.0665 210.029 50.4123 210.441 49.8 210.96C49.6175 211.116 49.6669 211.318 49.4958 211.475C48.2408 211.368 46.9896 211.242 45.7346 211.097C42.2966 210.567 38.8397 209.964 35.4436 208.995C29.815 207.476 24.3006 205.409 19.0486 202.822C14.7132 200.689 10.4271 198.22 7.49496 196.759C3.88207 194.943 -0.0160141 192.349 -3.78864 189.052C-7.56506 185.76 -11.178 181.75 -14.3953 177.343C-15.0381 176.523 -15.6162 175.649 -16.1904 174.779C-16.7571 173.902 -17.377 173.059 -17.9018 172.158L-19.4952 169.464L-19.8945 168.793L-20.2558 168.099L-20.9784 166.71C-21.99 164.89 -22.8039 162.967 -23.6786 161.082C-24.1045 160.136 -24.4544 159.156 -24.8461 158.194C-25.2302 157.233 -25.6257 156.275 -25.9338 155.287C-27.5729 150.766 -28.7518 146.244 -29.7216 141.7C-30.2388 139.434 -30.5659 137.137 -30.9538 134.833C-31.0983 133.673 -31.2428 132.509 -31.3874 131.342C-31.5395 130.171 -31.5889 128.992 -31.703 127.805L-31.8247 126.397L-31.8665 124.986C-31.897 124.039 -31.9274 123.093 -31.954 122.143C-31.9312 121.197 -31.9084 120.243 -31.8855 119.293L-31.8513 117.862L-31.7372 116.432C-31.6612 115.474 -31.5851 114.52 -31.509 113.562C-31.3797 112.609 -31.2542 111.655 -31.1249 110.701L-30.9272 109.266L-30.6571 107.843L-30.1057 104.993C-28.3753 97.4504 -25.6486 90.0525 -21.7885 83.3414C-21.2256 82.3532 -20.6742 81.2467 -20.0353 80.2433C-19.4648 79.32 -18.9324 78.3509 -18.4038 77.4581C-17.8561 76.5806 -17.358 75.7489 -16.951 75.0392C-16.5593 74.3258 -16.236 73.7458 -16.0269 73.3643C-15.8291 72.9828 -15.7797 72.7882 -15.9242 72.8607C-16.449 73.1316 -17.0385 73.3529 -17.9816 74.4784C-23.5911 80.8156 -29.1588 90.4493 -32.5701 101.811C-35.6734 112.067 -36.9779 123.024 -36.2895 133.997C-36.4835 132.357 -36.628 130.705 -36.7078 129.034C-36.7192 127.271 -36.9132 125.466 -37.0006 123.723L-37.1528 120.266C-37.2174 119.106 -37.1604 117.954 -37.1718 116.786C-37.1718 116.203 -37.168 115.619 -37.168 115.031C-37.1642 114.444 -37.111 113.86 -37.0881 113.269C-37.0159 112.09 -36.974 110.896 -36.8828 109.694C-37.381 110.548 -37.8145 110.979 -38.0199 111.815C-39.408 117.496 -39.8872 123.498 -39.0087 129.633C-38.6816 131.449 -38.6055 133.238 -38.5371 134.959C-38.4382 136.672 -38.5599 138.347 -38.6625 139.915C-38.7424 141.113 -38.7957 142.364 -38.8375 143.57C-38.8718 144.776 -38.8071 145.92 -38.8071 146.927C-36.9702 154.383 -34.5477 160.838 -31.5167 166.962C-30.7447 168.423 -29.9688 169.678 -29.1892 170.72C-28.3791 171.746 -27.5387 172.543 -26.7286 173.146C-26.2837 173.474 -25.8197 173.852 -25.3671 174.23C-24.8955 174.588 -24.4316 174.947 -24.0095 175.268C-22.4502 177.477 -22.8115 178.037 -22.7164 178.938C-22.6594 179.567 -22.4768 180.346 -22.2144 181.17C-22.0166 181.784 -21.7542 182.486 -21.4842 183.139C-21.2104 183.787 -20.9556 184.413 -20.8377 184.924C-20.7084 185.481 -21.2446 185.779 -21.7657 185.367C-22.3399 184.905 -22.9408 184.451 -23.5074 183.955C-24.0665 183.444 -24.6331 182.929 -25.2112 182.406C-25.7817 181.876 -26.3673 181.33 -26.9416 180.754C-27.4892 180.159 -28.0445 179.545 -28.5997 178.907C-29.0637 178.373 -29.5429 177.751 -30.0258 177.099C-30.4708 176.42 -30.931 175.718 -31.3797 175.035C-31.8285 174.344 -32.2735 173.677 -32.6994 173.078C-32.8097 172.914 -32.9162 172.757 -33.0227 172.601C-37.7118 163.524 -41.0547 153.78 -42.8231 143.749C-44.4432 135.008 -44.7474 126.122 -44.1351 117.324C-43.7396 112.933 -43.2453 108.538 -42.3401 104.2L-42.0321 102.567C-41.918 102.025 -41.7849 101.487 -41.6594 100.949L-41.1232 98.6408C-41.0851 98.9307 -41.0433 99.2169 -40.9976 99.4992C-40.9368 99.8083 -40.6402 99.8998 -40.4919 99.6137C-40.1002 98.8735 -39.3699 97.5878 -39.3053 97.0536C-38.6549 91.9792 -37.5445 86.8629 -35.0003 81.4108C-34.6618 80.6096 -34.3195 79.816 -33.9887 79.0148C-33.5171 78.1068 -33.0264 77.2102 -32.5587 76.325C-30.2008 72.1205 -27.6718 68.0191 -24.7853 64.1847C-21.9292 60.335 -18.8753 56.6304 -15.5134 53.2271L-14.2699 51.9337C-13.8515 51.5102 -13.4066 51.1058 -12.9768 50.6937C-12.1059 49.8734 -11.2464 49.0417 -10.3641 48.2367C-8.54245 46.6877 -6.77024 45.0814 -4.8497 43.6544C-2.99381 42.1474 -1.01241 40.8082 0.946152 39.4347C1.92734 38.7556 2.96177 38.1528 3.96957 37.508L5.49079 36.5542C5.9966 36.2413 6.52896 35.9666 7.04618 35.669C8.17568 35.0433 9.29002 34.368 10.3815 33.7308C11.4882 33.1204 12.5644 32.5214 13.576 31.9644C14.3747 31.5141 14.7094 31.1288 14.6561 30.9991C14.6067 30.8923 13.8651 31.0372 13.1159 31.3653C8.27081 33.3722 3.65009 35.8636 -0.833702 38.5954C-5.3327 41.3157 -9.56168 44.4824 -13.5929 47.9162L-15.0951 49.221C-15.6009 49.6521 -16.0991 50.0909 -16.5707 50.5602L-18.6091 52.5175C-18.0463 51.8956 -17.4758 51.2698 -16.894 50.6555L-14.9506 48.7555C-14.3002 48.1298 -13.6804 47.4698 -13.0187 46.8632C-12.3645 46.2565 -11.718 45.646 -11.0905 45.028C-9.86209 43.7689 -8.61474 42.5976 -7.52327 41.3424C-7.22663 41.0066 -6.69039 40.5183 -6.11993 40.0795C-5.53426 39.6599 -4.92955 39.2783 -4.53023 39.0952C-3.17635 38.4809 -1.84532 37.7064 -0.430595 36.9776C0.980339 36.2451 2.34942 35.3638 3.81359 34.6198C6.67728 33.0403 9.64748 31.5485 12.5378 30.5336C13.1197 30.3466 13.6597 30.1406 14.1883 29.9308C14.6599 31.2394 16.1165 32.1322 18.9421 32.4565C20.3721 32.6244 20.9121 33.2043 20.7942 34.0361C20.528 35.917 20.3911 36.8098 22.9848 36.4511C23.6389 36.3825 24.4679 36.2337 25.5024 36.0086C26.0234 35.8903 26.5938 35.7606 27.2213 35.6156C27.8602 35.4897 28.56 35.3523 29.3206 35.1997C30.0813 35.0433 30.9027 34.8678 31.7964 34.6809C32.6977 34.5321 33.6713 34.3756 34.721 34.2039C35.242 34.1162 35.782 34.0246 36.341 33.9292C36.9077 33.8644 37.4895 33.7957 38.098 33.727C38.6989 33.6545 39.3227 33.582 39.9654 33.5057C40.2886 33.4676 40.6157 33.4294 40.9465 33.3875C41.2812 33.3684 41.6197 33.3455 41.9658 33.3226C42.5324 33.3684 43.3235 33.3798 43.6163 33.4752C44.2134 33.6736 44.8067 33.8758 44.9284 34.1505C45.0539 34.4252 45.2858 34.6732 45.6357 34.8907C45.9856 35.1158 46.4534 35.3333 47.0428 35.5202C48.2256 35.917 49.8913 36.1078 52.1237 36.4321C53.238 36.577 54.4892 36.6534 55.8925 36.8517C57.2882 37.0234 58.836 37.1379 60.536 37.3973C61.3841 37.5156 62.274 37.6034 63.1981 37.7331C64.1223 37.8819 65.0883 38.0345 66.0923 38.1947C67.1039 38.3206 68.1383 38.561 69.2222 38.7594C69.7622 38.8624 70.3136 38.9655 70.8765 39.0685C71.4393 39.1715 72.006 39.3279 72.5841 39.4576C79.0835 40.9227 84.731 43.2691 89.7206 45.7414C90.7664 46.1115 91.7019 46.5923 92.6299 46.9852C93.5464 47.3935 94.4288 47.7712 95.2426 48.2061C96.0717 48.6182 96.8665 49.015 97.6385 49.4003C98.4144 49.7895 99.1331 50.2206 99.8671 50.6098C104.252 52.9906 108.432 55.7147 112.242 58.8928C116.064 62.0557 119.453 65.7299 122.237 69.8275C122.396 70.0564 122.666 70.3922 122.993 70.7813C123.309 71.1781 123.674 71.636 124.047 72.1053C124.792 73.04 125.633 73.9633 126.104 74.5318C129.337 78.1373 132.216 82.7233 134.631 88.2975C139.578 99.7816 142.138 112.04 142.309 124.417H140.932C141.495 129.766 141.153 135.447 140.312 141.143C139.822 144.467 139.168 147.79 138.449 151.132C137.913 152.723 137.338 154.299 136.73 155.829C134.608 161.258 131.535 166.675 128.808 171.239ZM57.216 226.703C57.0106 226.838 56.2081 227.041 55.227 227.073C41.768 227.397 27.8641 224.334 15.4091 218.651C10.6363 216.458 6.02701 213.917 1.63449 211.051C2.79442 210.384 3.36106 209.323 2.09464 207.286C1.547 206.443 0.653305 205.34 -0.343094 204.218C-0.837486 203.653 -1.36611 203.093 -1.86431 202.509C-2.3473 201.918 -2.81892 201.33 -3.24105 200.769C-3.45022 200.491 -3.48824 200.277 -3.54909 200.052C1.34163 204.42 6.92828 208.083 12.9029 210.895C13.3098 211.09 13.8461 211.299 14.3329 211.46C20.8247 214.848 27.7347 217.515 34.9035 219.357C37.6645 220.054 40.4597 220.622 43.2702 221.087C43.8596 221.377 44.4187 221.678 45.0728 221.959C45.841 222.305 46.5941 222.631 47.4193 222.915C46.6359 222.838 45.8525 222.763 45.069 222.687C43.255 222.479 41.4524 222.169 39.6421 221.9L36.9533 221.357C36.0558 221.167 35.1545 221.017 34.2684 220.773C32.5 220.306 30.7087 219.93 28.9707 219.365C21.9617 217.309 15.2304 214.573 8.86406 211.483C7.86386 211.009 6.36549 210.281 6.46057 210.433C6.80284 210.887 7.33527 211.681 8.59027 212.394C19.7712 218.995 32.5114 223.4 45.5559 225.216C47.4041 225.457 49.2105 225.74 50.9903 225.883C51.8841 225.975 52.7664 226.066 53.6411 226.156C54.5158 226.229 55.3867 226.265 56.2538 226.32C57.022 226.366 57.3985 226.581 57.216 226.703ZM-5.7472 197.545C-5.23379 198.182 -4.72042 198.816 -4.17659 199.43C-4.42759 199.239 -4.67858 199.048 -4.92197 198.846L-6.19599 197.778C-7.03646 197.057 -7.89592 196.366 -8.65653 195.588C-9.47038 194.749 -9.47041 194.295 -8.87714 194.462C-7.96441 195.374 -7.03266 196.263 -6.0819 197.137C-5.97161 197.274 -5.85749 197.412 -5.7472 197.545ZM-30.988 164.096C-31.2276 163.722 -31.5205 163.368 -31.6878 162.978C-32.2773 161.643 -32.2012 161.216 -31.6421 161.964C-31.4596 162.189 -31.239 162.83 -31.0336 163.287C-31.0184 163.551 -31.0033 163.822 -30.988 164.096ZM166.903 110.026C166.455 100.178 164.405 90.2394 160.971 80.6821C160.545 79.4879 160.046 78.3204 159.579 77.1338L158.86 75.3636C158.62 74.7722 158.335 74.2037 158.073 73.6237L156.445 70.1518L154.646 66.7638C154.338 66.203 154.041 65.6307 153.722 65.0774L152.729 63.4293C152.06 62.3343 151.41 61.224 150.702 60.1519C149.257 58.0306 147.835 55.8787 146.226 53.8643C145.043 52.8837 144.184 52.0596 143.328 51.4911C141.602 50.3007 140.172 49.53 138.795 48.9387C137.396 48.3664 136.095 47.9314 134.699 47.3668C133.904 47.0272 132.904 46.3939 131.828 45.585C130.744 44.78 129.603 43.7651 128.356 42.8456C127.116 41.9147 125.903 40.9303 124.682 40.1902C124.214 39.904 123.762 39.6484 123.32 39.4156C122.324 38.5534 121.506 37.7522 121.004 37.218C120.346 36.4817 120.312 36.1459 121.32 36.6534C121.83 36.9166 122.393 37.1951 122.952 37.5233C123.507 37.859 124.077 38.2062 124.652 38.5496C125.789 39.2554 126.96 39.9193 127.911 40.5297C128.713 41.0295 128.706 40.6785 128.188 39.9116C127.679 39.1409 126.58 38.0421 125.321 36.9662C119.772 32.3459 113.718 28.1109 107.237 24.8068C85.7502 13.7729 60.7338 10.0911 36.9267 14.1506C35.242 14.4711 33.5306 14.8183 31.8839 15.2342C30.2486 15.6958 28.6703 16.1842 27.2213 16.6687C25.78 17.1838 24.4832 17.7485 23.3727 18.2445C22.2622 18.7366 21.3571 19.2021 20.722 19.6409C19.5468 20.4192 18.0598 21.3082 17.2954 21.9491C15.9187 22.4604 14.5496 22.9983 13.1957 23.5668C6.91312 26.4588 0.691307 29.8926 -4.63295 33.9941C-12.0869 39.7972 -19.0617 46.4549 -24.656 53.9062C-26.0935 55.7337 -27.3713 57.6643 -28.6339 59.5681C-29.2881 60.5067 -29.8243 61.5177 -30.4099 62.483C-30.969 63.4674 -31.5737 64.4136 -32.0681 65.4208C-33.0797 67.42 -34.0951 69.3697 -34.8975 71.3956C-35.3121 72.4029 -35.7342 73.391 -36.1031 74.3906C-36.453 75.4055 -36.7877 76.409 -37.1109 77.4047C-37.1147 77.4238 -37.1224 77.4429 -37.13 77.462C-37.2555 77.6947 -37.3809 77.9236 -37.5026 78.1602L-38.9364 81.0827C-39.1722 81.571 -39.4194 82.0556 -39.6438 82.5478L-40.2941 84.0434L-41.5833 87.0384L-42.7357 90.0945L-43.3099 91.6282C-43.4886 92.1395 -43.6484 92.6622 -43.8195 93.1811L-44.8197 96.2982C-47.2917 104.673 -48.7748 113.387 -49.1399 122.193C-49.1704 124.394 -49.2921 126.599 -49.1856 128.805L-49.0829 132.116L-48.8281 135.42L-48.714 136.859C-48.8433 136.267 -48.9726 135.672 -49.0905 135.077L-49.6458 131.742L-49.9195 130.071C-49.9994 129.51 -50.0565 128.95 -50.1249 128.389L-50.509 125.012C-50.6383 123.883 -50.6688 122.75 -50.7524 121.617C-50.8057 120.48 -50.9198 119.339 -50.9236 118.194L-50.954 114.757C-50.9806 113.604 -50.9274 112.456 -50.8703 111.304C-50.8171 110.148 -50.7601 108.992 -50.703 107.832C-50.5889 106.676 -50.4748 105.516 -50.3569 104.356L-50.1744 102.609C-50.1021 102.029 -50.0032 101.453 -49.9158 100.873C-49.7294 99.7091 -49.5431 98.5454 -49.3567 97.3779C-49.1438 96.2142 -48.8776 95.062 -48.6304 93.8983C-48.1702 91.5557 -47.4666 89.2704 -46.8277 86.9392C-46.4208 85.6344 -46.0101 84.3295 -45.607 83.04C-45.4054 82.399 -45.2304 81.7466 -45.0289 81.1208C-44.8235 80.4913 -44.6181 79.8694 -44.4204 79.2628C-40.952 67.9466 -34.3994 56.8364 -25.9833 47.1379C-22.2677 42.8075 -18.1604 38.8129 -13.8972 35.0624C-13.1327 34.3947 -12.4215 33.7041 -11.737 33.0097C-11.0372 32.3382 -10.3527 31.6782 -9.67957 31.0334C-9.34489 30.7129 -9.35629 30.3848 -9.4932 30.2742C-9.6111 30.175 -10.1207 30.236 -10.482 30.4649C-18.9476 35.7949 -26.4738 42.7235 -32.9009 50.7929C-43.2946 64.055 -50.9883 79.5222 -54.9244 95.9205C-55.0537 96.5004 -55.4074 97.3779 -55.6013 97.603C-56.2022 98.305 -56.3505 97.6221 -56.0729 95.8823C-55.1145 90.8118 -53.9622 85.7221 -52.3041 80.766L-51.7032 78.8965C-51.5016 78.2708 -51.2582 77.6642 -51.0377 77.0499L-49.6495 73.3605C-49.1475 72.1434 -48.6151 70.9416 -48.0903 69.7283L-47.2917 67.9122L-46.417 66.1305C-44.1427 61.3346 -41.3742 56.7562 -38.3812 52.2771C-35.3425 47.8246 -31.9121 43.5972 -28.2042 39.5454C-24.1045 35.173 -19.4686 30.9304 -15.4982 27.1838C-9.13192 21.2624 -1.678 16.3368 7.04618 12.5062C14.1465 9.40057 21.5016 6.71077 29.0887 5.00151C36.4894 3.3304 44.0346 2.36896 51.576 2.09807C59.1137 1.82336 66.6741 2.24306 74.1547 3.39528C89.1121 5.66539 103.647 10.7779 116.718 18.3475C124.781 23.0289 132.17 28.6107 138.593 35.1501C143.362 39.9155 148.01 45.0852 152.09 50.5907C152.433 51.0409 153.323 51.8154 153.395 51.7353C153.604 51.4911 153.912 51.0867 153.494 50.3961C152.6 48.9348 151.71 47.4011 150.71 45.9055C149.687 44.4328 148.603 42.9563 147.42 41.5331C137.278 29.7667 124.807 19.8049 110.706 12.8115C90.9376 3.0061 68.4273 -1.39679 46.499 0.388779C35.4892 1.17093 24.5783 3.6013 14.1427 7.29834C12.8383 7.77144 11.5566 8.29414 10.2674 8.79395L8.33543 9.56081C7.69651 9.82788 7.06901 10.1178 6.4339 10.4002L2.64987 12.1094L-1.05431 13.9942C-1.6666 14.3109 -2.29023 14.6199 -2.89492 14.9518L-4.70137 15.9782C-5.89932 16.6726 -7.10872 17.3441 -8.28767 18.069C-10.6189 19.5608 -12.9806 21.0068 -15.213 22.6473C-19.442 25.5737 -23.3857 28.8816 -27.2078 32.3115L-29.9878 34.9784L-31.3721 36.3214L-32.6956 37.7178L-35.3349 40.5259L-37.8487 43.4484C-44.5193 51.2698 -50.0983 60.0031 -54.6277 69.2323C-57.7348 75.6306 -60.2639 82.3609 -62.0437 89.1636C-68.3643 113.463 -67.0219 139.072 -58.659 162.208C-55.2591 171.559 -50.9084 180.674 -45.4548 189.033C-44.4394 190.59 -43.3821 192.295 -42.2944 193.894C-41.2296 195.504 -40.2751 197.106 -39.4536 198.446C-38.6093 199.861 -37.7461 201.296 -36.7459 202.639C-35.7495 203.982 -34.6998 205.306 -33.6159 206.61C-32.4826 207.873 -31.3113 209.117 -30.1171 210.353C-28.9154 211.578 -27.6223 212.726 -26.3559 213.905C-12.007 226.822 5.54017 235.962 23.4943 239.701L25.6811 239.843C26.4075 239.897 27.1339 239.931 27.8641 239.936C29.313 239.957 30.7544 239.978 32.1882 240C33.6143 240.006 35.0366 239.915 36.4247 239.861C37.1168 239.825 37.8052 239.789 38.4936 239.753C39.1743 239.713 39.8551 239.624 40.5244 239.556C41.9924 239.395 43.004 238.915 43.2246 238.432C43.7075 237.396 43.7798 236.29 43.6049 235.169C43.4756 234.364 42.3309 233.511 40.5586 232.751C39.6725 232.389 38.6419 231.939 37.4895 231.581C36.9115 231.395 36.3068 231.218 35.6793 231.051C35.3637 230.972 35.0442 230.892 34.721 230.81C34.3939 230.722 34.0668 230.633 33.736 230.543C32.0854 230.097 30.3855 229.755 28.7274 229.283C27.0731 228.794 25.4111 228.343 23.8328 227.756C22.285 227.144 20.5926 226.522 19.0562 225.83C18.5999 225.613 18.1625 225.395 17.7366 225.179C18.7254 225.576 19.7218 225.958 20.7258 226.316C24.951 227.917 29.313 229.147 33.7132 230.203C35.9303 230.664 38.1361 231.185 40.3799 231.504C41.4979 231.676 42.6161 231.885 43.738 232.023L47.1189 232.403C52.2568 232.885 57.33 233.096 62.3349 232.761L64.2098 232.662L66.0771 232.471C67.3207 232.335 68.5604 232.216 69.7964 232.045C72.2532 231.627 74.7214 231.264 77.1401 230.635C79.9696 230.014 82.78 229.227 85.4688 228.593C88.1195 227.84 90.6561 227.26 92.8277 226.658C93.9382 226.368 95.0753 226.086 96.2124 225.712C97.3457 225.321 98.5056 224.897 99.7112 224.432C100.921 223.989 102.134 223.409 103.408 222.793C104.674 222.167 106.02 221.542 107.37 220.72C112.238 218.03 117.015 214.55 121.381 211.38C132.075 203.577 141.039 193.627 147.862 182.463C154.711 171.3 159.522 158.984 162.321 146.122C163.26 141.296 163.758 136.393 164.07 131.491L164.218 127.809C164.264 126.58 164.218 125.352 164.222 124.123V123.658C164.739 124.924 165.382 124.604 165.861 122.616C166.272 120.857 166.679 118.927 166.804 116.825C166.892 115.775 166.953 114.684 166.991 113.547C167.025 112.414 166.957 111.243 166.903 110.026Z" fill="#231F20"/>
<path d="M16.8428 197.614C15.6638 197.057 14.5077 196.515 13.3515 195.97C12.2296 195.363 11.1192 194.726 10.0201 194.039C8.77649 193.192 7.30853 192.433 6.08015 191.899C5.28531 191.51 4.50948 191.185 3.74507 190.888C2.97685 190.59 2.21243 190.323 1.48604 189.991C1.26167 189.896 1.12856 190.132 1.21983 190.365C1.32251 190.625 1.70665 191.197 2.01089 191.38C4.65021 193.162 7.42638 195.05 10.1037 196.195C12.3247 197.202 14.6978 198.274 17.1128 199.171C18.3373 199.583 19.5315 200.029 20.756 200.312C21.9844 200.59 23.19 200.815 24.3613 200.93C23.0455 200.266 21.7563 199.709 20.4975 199.194C19.2653 198.618 18.0445 198.114 16.8428 197.614Z" fill="#231F20"/>
<path d="M134.186 40.1097C134.623 40.5447 135.121 40.9415 135.593 41.3535C135.365 41.0521 135.174 40.7316 134.897 40.4608C134.456 40.0296 133.965 39.6252 133.486 39.2208C133.722 39.5146 133.908 39.8427 134.186 40.1097Z" fill="#231F20"/>
<path d="M58.182 202.23C58.2467 201.959 57.8892 201.673 57.3834 201.486C57.1286 201.395 56.8395 201.326 56.5428 201.299C56.25 201.257 55.9496 201.246 55.672 201.295C54.6794 201.467 54.0785 201.936 53.3521 202.249C54.1584 202.646 54.5615 203.008 55.2727 203.153C56.4326 203.424 58.0565 202.787 58.182 202.23Z" fill="#231F20"/>
<path d="M57.0942 205.748C56.7138 205.798 56.4743 206.019 56.1663 206.133C56.1967 206.542 56.8698 206.729 58.1286 206.599C58.4861 206.565 58.9691 206.343 58.9767 206.21C59.0033 205.771 58.2655 205.588 57.0942 205.748Z" fill="#231F20"/>
</svg>
