<svg width="129" height="252" viewBox="0 0 129 252" fill="none" xmlns="http://www.w3.org/2000/svg">
<path d="M204.841 179.8C201.074 186.118 196.392 191.875 191.009 196.842C185.639 201.822 179.712 206.173 173.33 209.746C172.394 210.263 171.446 210.78 170.495 211.304C169.527 211.809 168.523 212.258 167.535 212.743L166.052 213.46L164.528 214.097C163.517 214.525 162.505 214.95 161.501 215.371C159.45 216.092 157.47 216.921 155.491 217.51C154.503 217.822 153.551 218.175 152.6 218.459C151.648 218.728 150.716 219.004 149.816 219.28C147.685 219.925 145.521 220.446 143.346 220.883C141.806 220.803 140.611 220.422 139.835 219.769C139.391 219.397 138.663 219.212 137.76 219.116C136.852 218.98 135.768 218.948 134.62 218.968C134.185 218.976 133.765 218.988 133.361 218.996C132.953 218.992 132.557 218.984 132.177 218.98C131.413 218.98 130.706 219 130.038 219.04C128.71 219.148 127.562 219.188 126.551 219.381C125.539 219.557 124.663 219.857 123.879 220.198C123.096 220.53 122.408 220.963 121.764 221.508C121.572 221.672 121.624 221.884 121.444 222.049C120.124 221.936 118.809 221.804 117.489 221.652C113.874 221.095 110.239 220.462 106.668 219.445C100.75 217.85 94.9513 215.679 89.4288 212.963C84.8701 210.723 80.3633 208.132 77.2801 206.597C73.4811 204.69 69.3823 201.966 65.4154 198.505C61.4445 195.048 57.6455 190.837 54.2624 186.21C53.5866 185.349 52.9787 184.432 52.3749 183.518C51.779 182.597 51.1272 181.711 50.5754 180.766L48.8999 177.938L48.48 177.233L48.1001 176.504L47.3403 175.045C46.2766 173.134 45.4208 171.115 44.5011 169.136C44.0532 168.143 43.6853 167.113 43.2734 166.104C42.8695 165.094 42.4536 164.089 42.1297 163.051C40.4062 158.304 39.1665 153.557 38.1468 148.785C37.603 146.406 37.259 143.994 36.8512 141.575C36.6992 140.357 36.5472 139.135 36.3953 137.909C36.2353 136.679 36.1834 135.441 36.0634 134.195L35.9354 132.717L35.8914 131.235C35.8594 130.241 35.8274 129.248 35.7994 128.25C35.8234 127.257 35.8474 126.255 35.8714 125.258L35.9074 123.755L36.0274 122.253C36.1074 121.248 36.1873 120.246 36.2673 119.241C36.4033 118.239 36.5352 117.238 36.6712 116.236L36.8791 114.73L37.1631 113.235L37.7429 110.243C39.5624 102.323 42.4296 94.5551 46.4885 87.5084C47.0804 86.4709 47.6602 85.3091 48.332 84.2555C48.9318 83.286 49.4917 82.2685 50.0475 81.331C50.6234 80.4096 51.1472 79.5363 51.5751 78.7912C51.987 78.0421 52.3269 77.4331 52.5469 77.0325C52.7548 76.6319 52.8068 76.4276 52.6548 76.5037C52.103 76.7881 51.4831 77.0205 50.4914 78.2023C44.593 84.8564 38.7386 94.9718 35.1516 106.902C31.8885 117.67 30.5168 129.176 31.2407 140.697C31.0367 138.975 30.8847 137.24 30.8008 135.485C30.7888 133.634 30.5849 131.74 30.4929 129.909L30.3329 126.279C30.2649 125.061 30.3249 123.852 30.3129 122.626C30.3129 122.013 30.3169 121.4 30.3169 120.783C30.3209 120.166 30.3769 119.553 30.4009 118.932C30.4769 117.694 30.5209 116.44 30.6168 115.178C30.093 116.076 29.6371 116.528 29.4211 117.406C27.9615 123.371 27.4577 129.672 28.3814 136.114C28.7253 138.021 28.8053 139.9 28.8773 141.707C28.9813 143.505 28.8534 145.264 28.7454 146.911C28.6614 148.168 28.6054 149.483 28.5614 150.748C28.5254 152.014 28.5934 153.216 28.5934 154.274C30.5249 162.102 33.0722 168.88 36.2593 175.31C37.0711 176.844 37.8869 178.162 38.7067 179.256C39.5584 180.333 40.4422 181.171 41.2939 181.804C41.7618 182.148 42.2497 182.545 42.7256 182.941C43.2214 183.318 43.7093 183.694 44.1531 184.031C45.7927 186.35 45.4128 186.939 45.5128 187.885C45.5728 188.546 45.7647 189.363 46.0407 190.228C46.2486 190.873 46.5245 191.61 46.8084 192.295C47.0964 192.977 47.3643 193.634 47.4882 194.17C47.6242 194.755 47.0603 195.068 46.5125 194.635C45.9087 194.15 45.2769 193.674 44.681 193.153C44.0932 192.616 43.4973 192.075 42.8895 191.526C42.2897 190.969 41.6738 190.397 41.07 189.792C40.4942 189.167 39.9103 188.522 39.3265 187.853C38.8386 187.292 38.3348 186.639 37.8269 185.954C37.359 185.241 36.8752 184.504 36.4033 183.787C35.9314 183.061 35.4635 182.36 35.0156 181.731C34.8997 181.559 34.7877 181.395 34.6757 181.231C29.7451 171.7 26.2301 161.469 24.3706 150.937C22.667 141.759 22.3471 132.429 22.991 123.191C23.4068 118.58 23.9267 113.965 24.8784 109.41L25.2023 107.695C25.3223 107.126 25.4623 106.561 25.5942 105.996L26.1581 103.573C26.198 103.877 26.2421 104.178 26.2901 104.474C26.354 104.799 26.6659 104.895 26.8219 104.594C27.2337 103.817 28.0016 102.467 28.0696 101.906C28.7534 96.5782 29.921 91.2061 32.5963 85.4814C32.9522 84.6401 33.3121 83.8068 33.66 82.9655C34.1559 82.0121 34.6718 81.0707 35.1636 80.1413C37.643 75.7266 40.3022 71.42 43.3373 67.3939C46.3405 63.3518 49.5517 59.4619 53.0867 55.8884L54.3943 54.5304C54.8342 54.0857 55.3021 53.661 55.754 53.2284C56.6697 52.3671 57.5735 51.4938 58.5013 50.6485C60.4167 49.022 62.2802 47.3354 64.2997 45.8372C66.2511 44.2548 68.3346 42.8486 70.394 41.4065C71.4257 40.6934 72.5134 40.0604 73.5732 39.3834L75.1727 38.3819C75.7046 38.0534 76.2644 37.7649 76.8082 37.4525C77.9959 36.7955 79.1676 36.0864 80.3153 35.4174C81.479 34.7764 82.6107 34.1474 83.6744 33.5626C84.5141 33.0898 84.8661 32.6852 84.8101 32.549C84.7581 32.4369 83.9783 32.5891 83.1905 32.9336C78.0959 35.0408 73.2372 37.6568 68.5225 40.5251C63.7918 43.3815 59.345 46.7065 55.1062 50.312L53.5266 51.6821C52.9947 52.1348 52.4709 52.5954 51.975 53.0882L49.8316 55.1433C50.4234 54.4903 51.0232 53.8333 51.6351 53.1883L53.6786 51.1933C54.3624 50.5363 55.0142 49.8433 55.71 49.2063C56.3978 48.5693 57.0777 47.9283 57.7375 47.2794C59.0291 45.9574 60.3407 44.7275 61.4884 43.4095C61.8003 43.057 62.3642 42.5442 62.964 42.0835C63.5798 41.6428 64.2157 41.2422 64.6356 41.0499C66.0592 40.4049 67.4588 39.5917 68.9464 38.8265C70.43 38.0574 71.8696 37.132 73.4091 36.3508C76.4203 34.6923 79.5435 33.1259 82.5826 32.0603C83.1945 31.864 83.7623 31.6477 84.3182 31.4273C84.814 32.8014 86.3456 33.7388 89.3168 34.0793C90.8204 34.2556 91.3882 34.8645 91.2643 35.7379C90.9843 37.7129 90.8404 38.6503 93.5677 38.2737C94.2555 38.2016 95.1272 38.0454 96.2149 37.809C96.7628 37.6848 97.3626 37.5486 98.0224 37.3964C98.6942 37.2642 99.4301 37.1199 100.23 36.9597C101.03 36.7955 101.893 36.6112 102.833 36.4149C103.781 36.2587 104.805 36.0944 105.908 35.9141C106.456 35.822 107.024 35.7258 107.612 35.6257C108.208 35.5576 108.819 35.4855 109.459 35.4134C110.091 35.3373 110.747 35.2611 111.423 35.181C111.763 35.1409 112.107 35.1009 112.454 35.0568C112.806 35.0368 113.162 35.0127 113.526 34.9887C114.122 35.0368 114.954 35.0488 115.262 35.149C115.89 35.3573 116.513 35.5696 116.641 35.858C116.773 36.1465 117.017 36.4069 117.385 36.6352C117.753 36.8716 118.245 37.0999 118.865 37.2962C120.108 37.7129 121.86 37.9131 124.207 38.2537C125.379 38.4059 126.695 38.486 128.17 38.6943C129.638 38.8746 131.265 38.9948 133.053 39.2672C133.945 39.3914 134.88 39.4836 135.852 39.6198C136.824 39.776 137.84 39.9362 138.895 40.1045C139.959 40.2367 141.047 40.4891 142.186 40.6974C142.754 40.8055 143.334 40.9137 143.926 41.0219C144.518 41.1301 145.114 41.2943 145.721 41.4305C152.556 42.9688 158.494 45.4326 163.74 48.0285C164.84 48.4171 165.824 48.9219 166.8 49.3345C167.763 49.7632 168.691 50.1598 169.547 50.6165C170.419 51.0491 171.254 51.4657 172.066 51.8703C172.882 52.279 173.638 52.7317 174.41 53.1403C179.02 55.6401 183.415 58.5004 187.422 61.8375C191.441 65.1585 195.004 69.0164 197.931 73.3189C198.099 73.5592 198.383 73.9118 198.727 74.3204C199.059 74.737 199.443 75.2178 199.835 75.7105C200.618 76.692 201.502 77.6615 201.998 78.2584C205.397 82.0442 208.424 86.8595 210.964 92.7123C216.166 104.771 218.857 117.642 219.037 130.638H217.59C218.182 136.254 217.822 142.219 216.938 148.201C216.422 151.69 215.734 155.179 214.979 158.688C214.415 160.359 213.811 162.014 213.171 163.62C210.94 169.321 207.709 175.009 204.841 179.8ZM129.562 238.038C129.346 238.18 128.502 238.393 127.47 238.426C113.318 238.767 98.6982 235.551 85.6018 229.584C80.5832 227.281 75.7365 224.613 71.1178 221.604C72.3375 220.903 72.9333 219.789 71.6017 217.65C71.0258 216.765 70.0861 215.607 69.0384 214.429C68.5185 213.836 67.9627 213.247 67.4388 212.634C66.9309 212.013 66.435 211.396 65.9912 210.808C65.7712 210.515 65.7312 210.291 65.6673 210.054C70.8099 214.641 76.6842 218.487 82.9665 221.44C83.3944 221.644 83.9583 221.864 84.4702 222.033C91.2963 225.59 98.5623 228.39 106.1 230.325C109.003 231.057 111.943 231.654 114.898 232.142C115.518 232.446 116.105 232.762 116.793 233.057C117.601 233.42 118.393 233.762 119.261 234.06C118.437 233.98 117.613 233.901 116.789 233.821C114.882 233.603 112.986 233.278 111.083 232.995L108.256 232.424C107.312 232.226 106.364 232.068 105.432 231.811C103.573 231.321 101.689 230.926 99.8619 230.333C92.4919 228.174 85.4139 225.302 78.7197 222.057C77.668 221.56 76.0925 220.795 76.1924 220.955C76.5523 221.432 77.1122 222.265 78.4318 223.014C90.1886 229.945 103.585 234.57 117.301 236.477C119.245 236.73 121.144 237.027 123.016 237.177C123.955 237.274 124.883 237.369 125.803 237.464C126.723 237.54 127.638 237.578 128.55 237.636C129.358 237.684 129.754 237.91 129.562 238.038ZM63.3559 207.422C63.8958 208.091 64.4356 208.756 65.0074 209.401C64.7435 209.201 64.4796 209.001 64.2237 208.789L62.884 207.667C62.0003 206.91 61.0966 206.185 60.2968 205.367C59.441 204.486 59.441 204.009 60.0648 204.186C61.0245 205.143 62.0043 206.076 63.004 206.994C63.12 207.138 63.24 207.282 63.3559 207.422ZM36.8151 172.301C36.5632 171.909 36.2553 171.536 36.0793 171.127C35.4595 169.725 35.5395 169.277 36.1274 170.062C36.3193 170.298 36.5512 170.971 36.7672 171.452C36.7832 171.728 36.7991 172.013 36.8151 172.301ZM244.898 115.527C244.426 105.187 242.271 94.7514 238.66 84.7162C238.212 83.4623 237.688 82.2364 237.196 80.9905L236.441 79.1317C236.189 78.5108 235.889 77.9138 235.613 77.3049L233.901 73.6594L232.01 70.102C231.686 69.5131 231.374 68.9122 231.038 68.3313L229.994 66.6007C229.291 65.451 228.607 64.2852 227.863 63.1595C226.343 60.9321 224.848 58.6727 223.156 56.5575C221.913 55.5279 221.009 54.6626 220.109 54.0657C218.294 52.8158 216.79 52.0065 215.342 51.3856C213.871 50.7847 212.503 50.328 211.036 49.7351C210.2 49.3786 209.148 48.7136 208.016 47.8643C206.877 47.019 205.677 45.9534 204.365 44.9879C203.062 44.0104 201.786 42.9768 200.502 42.1997C200.011 41.8992 199.535 41.6308 199.071 41.3864C198.023 40.481 197.163 39.6398 196.635 39.0789C195.944 38.3058 195.908 37.9532 196.967 38.486C197.503 38.7624 198.095 39.0549 198.683 39.3994C199.267 39.752 199.867 40.1165 200.47 40.477C201.666 41.2182 202.898 41.9152 203.898 42.5562C204.741 43.081 204.733 42.7124 204.189 41.9072C203.654 41.098 202.498 39.9442 201.174 38.8145C195.34 33.9632 188.974 29.5164 182.159 26.0471C159.566 14.4615 133.261 10.5957 108.228 14.8582C106.456 15.1947 104.657 15.5592 102.925 15.9959C101.206 16.4806 99.546 16.9934 98.0224 17.5022C96.5068 18.043 95.1432 18.6359 93.9755 19.1567C92.8079 19.6735 91.8562 20.1622 91.1883 20.6229C89.9527 21.4402 88.389 22.3736 87.5853 23.0466C86.1377 23.5834 84.6981 24.1483 83.2745 24.7452C76.6683 27.7818 70.126 31.3873 64.5276 35.6938C56.6897 41.787 49.3557 48.7776 43.4733 56.6015C41.9617 58.5204 40.6181 60.5475 39.2905 62.5466C38.6027 63.532 38.0389 64.5936 37.423 65.6072C36.8352 66.6407 36.1993 67.6342 35.6794 68.6919C34.6157 70.791 33.5481 72.8382 32.7043 74.9654C32.2684 76.023 31.8245 77.0606 31.4366 78.1102C31.0687 79.1758 30.7168 80.2294 30.3769 81.275C30.3729 81.295 30.3649 81.315 30.3569 81.3351C30.2249 81.5794 30.093 81.8198 29.9651 82.0682L28.4574 85.1368C28.2095 85.6496 27.9496 86.1584 27.7136 86.6752L27.0298 88.2456L25.6742 91.3903L24.4625 94.5992L23.8587 96.2097C23.6707 96.7465 23.5028 97.2953 23.3228 97.8401L22.2711 101.113C19.6719 109.906 18.1123 119.056 17.7284 128.302C17.6964 130.614 17.5684 132.929 17.6804 135.245L17.7884 138.722L18.0563 142.191L18.1762 143.702C18.0403 143.081 17.9043 142.456 17.7803 141.831L17.1965 138.33L16.9086 136.575C16.8246 135.986 16.7647 135.397 16.6927 134.808L16.2888 131.263C16.1528 130.077 16.1208 128.887 16.0329 127.697C15.9769 126.504 15.8569 125.306 15.8529 124.104L15.8209 120.495C15.7929 119.285 15.8489 118.079 15.9089 116.869C15.9649 115.655 16.0248 114.441 16.0848 113.223C16.2048 112.01 16.3248 110.792 16.4488 109.574L16.6407 107.739C16.7166 107.13 16.8206 106.525 16.9126 105.916C17.1086 104.695 17.3045 103.473 17.5004 102.247C17.7244 101.025 18.0043 99.8151 18.2642 98.5933C18.7481 96.1335 19.4879 93.7339 20.1597 91.2862C20.5876 89.9161 21.0194 88.546 21.4433 87.192C21.6553 86.519 21.8393 85.8339 22.0512 85.1769C22.2671 84.5159 22.4831 83.8629 22.691 83.226C26.338 71.3439 33.2281 59.6782 42.0777 49.4948C45.9846 44.9478 50.3035 40.7535 54.7863 36.8155C55.59 36.1144 56.3379 35.3893 57.0577 34.6602C57.7935 33.9551 58.5132 33.2621 59.2211 32.5851C59.573 32.2486 59.561 31.9041 59.417 31.7879C59.2931 31.6837 58.7572 31.7478 58.3773 31.9882C49.4757 37.5847 41.5619 44.8597 34.8037 53.3326C23.8747 67.2577 15.7849 83.4984 11.646 100.716C11.51 101.325 11.1382 102.247 10.9342 102.483C10.3024 103.22 10.1464 102.503 10.4384 100.676C11.4461 95.3523 12.6577 90.0082 14.4013 84.8043L15.0331 82.8413C15.2451 82.1843 15.501 81.5474 15.7329 80.9024L17.1925 77.0285C17.7204 75.7506 18.2802 74.4887 18.8321 73.2147L19.6719 71.3079L20.5916 69.437C22.983 64.4014 25.8941 59.5941 29.0413 54.8909C32.2364 50.2158 35.8435 45.7771 39.7424 41.5227C44.0532 36.9317 48.9279 32.4769 53.1027 28.543C59.7969 22.3255 67.6347 17.1537 76.8082 13.1315C84.2742 9.87061 92.0081 7.04631 99.9859 5.25159C107.768 3.49692 115.702 2.48741 123.631 2.20297C131.557 1.91454 139.507 2.35521 147.373 3.56505C163.101 5.94865 178.385 11.3168 192.129 19.2648C200.606 24.1803 208.376 30.0412 215.13 36.9076C220.145 41.9112 225.032 47.3395 229.323 53.1203C229.682 53.593 230.618 54.4062 230.694 54.3221C230.914 54.0657 231.238 53.641 230.798 52.9159C229.858 51.3816 228.923 49.7711 227.871 48.2008C226.795 46.6544 225.656 45.1041 224.412 43.6098C213.747 31.2551 200.634 20.7952 185.806 13.452C165.02 3.15642 141.351 -1.46663 118.293 0.408218C106.716 1.22946 95.2432 3.78136 84.2702 7.66325C82.8986 8.16 81.551 8.70885 80.1953 9.23364L78.1638 10.0388C77.492 10.3193 76.8322 10.6237 76.1644 10.9202L72.1855 12.7149L68.2905 14.6939C67.6467 15.0264 66.991 15.3509 66.3551 15.6994L64.4556 16.7771C63.196 17.5062 61.9243 18.2113 60.6846 18.9724C58.2333 20.5388 55.75 22.0571 53.4026 23.7797C48.9559 26.8524 44.809 30.3256 40.7901 33.9271L37.8669 36.7274L36.4113 38.1375L35.0196 39.6037L32.2444 42.5522L29.6011 45.6209C22.587 53.8333 16.7206 63.0032 11.9579 72.694C8.69084 79.4121 6.03157 86.4789 4.16008 93.6217C-2.48611 119.136 -1.07449 146.025 7.7191 170.318C11.2941 180.137 15.8688 189.708 21.6033 198.485C22.671 200.119 23.7828 201.91 24.9264 203.589C26.0461 205.279 27.0498 206.962 27.9136 208.368C28.8013 209.854 29.7091 211.36 30.7608 212.771C31.8085 214.181 32.9122 215.571 34.0519 216.941C35.2436 218.267 36.4753 219.573 37.7309 220.871C38.9946 222.157 40.3542 223.363 41.6858 224.601C56.7737 238.164 75.2246 247.76 94.1035 251.686L96.4029 251.835C97.1666 251.892 97.9305 251.928 98.6982 251.932C100.222 251.955 101.737 251.977 103.245 252C104.745 252.006 106.24 251.911 107.7 251.854C108.428 251.816 109.151 251.779 109.875 251.741C110.591 251.698 111.307 251.605 112.011 251.533C113.554 251.365 114.618 250.86 114.85 250.354C115.358 249.266 115.434 248.105 115.25 246.927C115.114 246.083 113.91 245.187 112.047 244.388C111.115 244.008 110.031 243.536 108.819 243.16C108.212 242.964 107.576 242.778 106.916 242.604C106.584 242.521 106.248 242.436 105.908 242.351C105.564 242.259 105.22 242.165 104.873 242.07C103.137 241.602 101.35 241.243 99.606 240.747C97.8665 240.234 96.1189 239.76 94.4594 239.143C92.8318 238.501 91.0523 237.849 89.4368 237.122C88.9569 236.894 88.4971 236.665 88.0492 236.438C89.0889 236.854 90.1366 237.256 91.1923 237.632C95.6351 239.313 100.222 240.604 104.849 241.713C107.18 242.198 109.499 242.744 111.859 243.079C113.034 243.26 114.21 243.48 115.39 243.624L118.945 244.024C124.347 244.529 129.682 244.75 134.944 244.399L136.916 244.295L138.879 244.095C140.187 243.951 141.491 243.826 142.79 243.647C145.373 243.209 147.969 242.827 150.512 242.166C153.487 241.515 156.443 240.688 159.27 240.023C162.057 239.232 164.724 238.623 167.008 237.99C168.175 237.687 169.371 237.39 170.567 236.998C171.758 236.588 172.978 236.142 174.246 235.653C175.517 235.189 176.793 234.58 178.133 233.933C179.464 233.275 180.88 232.619 182.299 231.756C187.418 228.931 192.441 225.278 197.031 221.948C208.276 213.756 217.702 203.308 224.876 191.586C232.078 179.865 237.136 166.933 240.08 153.428C241.067 148.361 241.591 143.213 241.919 138.065L242.075 134.199C242.123 132.909 242.075 131.619 242.079 130.329V129.841C242.623 131.171 243.299 130.834 243.803 128.747C244.234 126.9 244.662 124.873 244.794 122.666C244.886 121.564 244.95 120.418 244.99 119.225C245.026 118.035 244.954 116.805 244.898 115.527Z" fill="#BE0023"/>
<path d="M87.1094 207.494C85.8697 206.909 84.654 206.341 83.4383 205.768C82.2587 205.131 81.091 204.462 79.9353 203.741C78.6277 202.851 77.0841 202.054 75.7925 201.493C74.9567 201.085 74.1409 200.744 73.3371 200.432C72.5293 200.119 71.7255 199.839 70.9617 199.49C70.7258 199.39 70.5859 199.638 70.6818 199.883C70.7898 200.155 71.1937 200.756 71.5136 200.948C74.2889 202.819 77.208 204.802 80.0233 206.004C82.3586 207.062 84.854 208.187 87.3933 209.129C88.6809 209.561 89.9365 210.03 91.2242 210.327C92.5158 210.619 93.7835 210.855 95.0152 210.976C93.6316 210.279 92.2759 209.694 90.9523 209.153C89.6567 208.548 88.373 208.019 87.1094 207.494Z" fill="#BE0023"/>
<path d="M59.6409 163.055C58.7771 161.597 57.7094 160.451 56.7857 159.666C55.8259 158.905 54.8662 158.568 54.1264 158.849C53.6665 159.017 53.9825 161.064 54.6223 162.238C55.4061 163.508 56.1539 164.654 56.9616 165.611C57.7974 166.552 58.6252 167.334 59.437 167.938C60.2687 168.539 60.9525 168.583 61.1005 167.706C61.1765 167.217 61.0925 166.432 60.8206 165.599C60.5687 164.754 60.0928 163.876 59.6409 163.055Z" fill="#BE0023"/>
<path d="M53.3026 146.174C53.1986 145.725 53.0667 145.276 52.9467 144.848C52.6268 143.69 52.3468 142.023 51.695 142.216C51.515 142.264 51.695 143.786 51.711 145C51.843 145.497 51.9589 146.082 52.1349 146.686C52.3268 147.291 52.5268 147.928 52.7388 148.553C52.8387 148.846 53.2346 149.21 53.2786 149.094C53.4466 148.645 53.6745 148.085 53.5985 147.456C53.5506 147.051 53.4346 146.618 53.3026 146.174Z" fill="#BE0023"/>
<path d="M25.4543 135.377C25.4383 135.946 25.6103 136.543 25.7102 137.124C25.7702 136.627 25.8541 136.143 25.8621 135.626C25.8621 135.061 25.7382 134.46 25.6663 133.875C25.5903 134.376 25.4503 134.861 25.4543 135.377Z" fill="#BE0023"/>
<path d="M130.578 212.342C130.646 212.057 130.27 211.757 129.738 211.561C129.47 211.465 129.166 211.392 128.854 211.364C128.546 211.32 128.23 211.308 127.938 211.36C126.895 211.541 126.263 212.033 125.499 212.362C126.347 212.779 126.771 213.159 127.518 213.311C128.738 213.596 130.446 212.927 130.578 212.342Z" fill="#BE0023"/>
<path d="M129.434 216.036C129.034 216.088 128.782 216.32 128.458 216.44C128.49 216.869 129.198 217.065 130.522 216.929C130.897 216.893 131.405 216.661 131.413 216.52C131.441 216.06 130.665 215.867 129.434 216.036Z" fill="#BE0023"/>
<path d="M49.8915 127.701L50.1195 126.824L49.7996 126.519L49.8915 127.701Z" fill="#BE0023"/>
</svg>
